<?xml version="1.0" encoding="UTF-8"?>
<!-- Generator: Adobe Illustrator 17.0.0, SVG Export Plug-In . SVG Version: 6.00 Build 0)  -->
<!DOCTYPE svg PUBLIC "-//W3C//DTD SVG 1.1//EN" "http://www.w3.org/Graphics/SVG/1.1/DTD/svg11.dtd">
<svg xmlns="http://www.w3.org/2000/svg" xmlns:xlink="http://www.w3.org/1999/xlink" version="1.1" id="Layer_1" x="0px" y="0px" width="512px" height="512px" viewBox="0 0 512 512" enable-background="new 0 0 512 512" xml:space="preserve">

<path d="M502.666,434.783L385.061,317.178C404.672,285.442,416,248.047,416,208C416,93.125,322.875,0,208,0S0,93.125,0,208  s93.125,208,208,208c40.047,0,77.442-11.328,109.178-30.939l117.605,117.605c12.445,12.445,32.81,12.445,45.255,0l22.628-22.628  C515.111,467.593,515.111,447.228,502.666,434.783z M106.177,309.823C78.979,282.625,64,246.464,64,208  s14.979-74.625,42.177-101.823C133.375,78.979,169.536,64,208,64s74.625,14.979,101.823,42.177C337.021,133.375,352,169.536,352,208  s-14.979,74.625-42.177,101.823C282.625,337.021,246.464,352,208,352S133.375,337.021,106.177,309.823z"/>
</svg>
