<svg width="512" height="512" xmlns="http://www.w3.org/2000/svg">

 <g>
  <title>background</title>
  <rect fill="none" id="canvas_background" height="402" width="582" y="-1" x="-1"/>
 </g>
 <g>
  <title>Layer 1</title>
  <path fill="#000000" id="svg_1" d="m160,352l192,0l0,-192l-192,0l0,192zm96,-352c-141.4,0 -256,114.6 -256,256s114.6,256 256,256s256,-114.6 256,-256s-114.6,-256 -256,-256zm135.8,391.8c-36.3,36.2 -84.5,56.2 -135.8,56.2s-99.5,-20 -135.8,-56.2c-36.2,-36.3 -56.2,-84.5 -56.2,-135.8s20,-99.5 56.2,-135.8c36.3,-36.2 84.5,-56.2 135.8,-56.2s99.5,20 135.8,56.2c36.2,36.3 56.2,84.5 56.2,135.8s-20,99.5 -56.2,135.8z"/>
 </g>
</svg>