<svg xmlns="http://www.w3.org/2000/svg" width="188" height="32" viewBox="0 0 188 32"><path fill="#D04200" d="M30 0h-28c-1.1 0-2 .9-2 2v28c0 1.1.9 2 2 2h28c1.1 0 2-.9 2-2v-28c0-1.1-.9-2-2-2z"/><path fill="#fff" d="M18.1 27.2c0-.6.2-1.2.4-1.8-.6.5-.8 1.1-1 1.9.1-.9.5-6.9.5-7.2 1.5-4.4.8-17.4 2.8-19.1-2.2.4-3 2.7-3.7 4.5-.7-2.1-.1-3.5-2.5-4.3 1.9 1.6 1.5 3 1.9 5.2-1.1-1.5-.8-3.3-2.1-4.8-.4-.4-1.6-1.3-1.6-1.3 0 .1 1 2 1.2 3.1.2 1 .6 3.1.6 3.9.2 4.2 1.2 8.3 2 12.5.1.7.5 2.8.5 2.8l.1.9c-.1-.6-.3-1.1-.3-1.3-.2-.6-.7-2.2-.9-2.9-1.8-3.7-5-10.8-9.4-11.9 2.5 2.2 5.1 5.1 5.7 7.9-1.3-1.9-6.5-5.8-8.7-7.3 4 4.1 7.2 8.4 10.7 13 1 1.3 2.3 4 2.4 4.6.1.4.1 2.1.2 3.1-1.9-4.7-3-7.1-6.6-9.2-.6-.3-2.5-1-2.5-1 .9 1 1.9 1 2.7 2.3-1.6-1.1-3.3-1.3-5.2-1.3 6 3.1 9.2 4 11.2 9.9.2 1-.1 1.6-.1 2.6h1.3v-1.4c.1-.4.1-1.7.3-2 .6-1.6 1.6-2.3 3.1-3.3-1.4.5-2 .3-3 1.9zm5.9-14c-.5.5-2 2.3-2 2.3.1-2.6.7-5.4 2.4-7.4-2.3 1.5-3.6 5.3-4.3 7.6-.2.9-3 6.3-1.7 9.2.2-1.1.8-2.1 1.5-3 .3-.4 1.6-2.5 2.9-5.4 1.1-2.9 3-4.7 5.6-6.1-1.9.3-3 1.4-4.4 2.8z"/><path fill="#333" d="M49 6v4.9c0-.1-.8-.1-1.1-.2-.3 0-.6-.1-1.1-.1-.8 0-1.6.1-2.2.4-.6.3-1.1.7-1.5 1.2-.4.5-.7 1.2-.9 2-.1.8-.2 1.7-.2 2.6 0 1.9.3 3.4 1 4.4.7 1 1.7 1.5 2.9 1.5.8 0 1.4-.1 1.9-.4.5-.3.9-.5 1.3-1.2l.1 1.8h1.8v-16.9h-2zm0 11.5c0 .5-.1 1-.2 1.5s-.3.9-.6 1.2c-.2.3-.5.6-.9.8-.3.2-.7.3-1.1.3-.8 0-1.4-.4-1.8-1.2-.4-.8-.6-1.9-.6-3.5 0-1.5.2-2.6.7-3.4.4-.8 1.2-1.1 2.2-1.1.5 0 .9 0 1.3.1s1 .2 1 .3v5zM58.8 22.3c-.7.3-1.5.5-2.3.5-1.5 0-2.6-.4-3.3-1.3-.7-.9-1.1-2.3-1.1-4.2 0-2.2.4-3.9 1.2-5 .8-1.1 1.9-1.7 3.3-1.7s2.4.5 3.2 1.5c.7 1 1 2.6.9 4.7h-6.7v.2c0 1.6.2 2.7.7 3.4.5.7 1.1 1 2 1 .5 0 1.1-.1 1.6-.3.5-.2 1.1-.5 1.8-1l.7 1.2c-.7.4-1.3.7-2 1zm-.6-9.4c-.4-.6-1-.9-1.7-.9s-1.3.3-1.7.9c-.4.6-.6 1.5-.7 2.6h4.7c0-1.1-.2-2-.6-2.6zM69.2 13.6c-.2.9-.5 1.8-.8 2.8-.3.9-.6 1.9-.9 3-.3 1-.6 2.1-1 3.2h-1.8c-.4-1.2-.7-2.3-1.1-3.3l-.9-3c-.3-.9-.5-1.9-.8-2.7-.2-.9-.4-1.8-.6-2.6h1.7l1.2 4.8c.4 1.6.9 3.2 1.4 4.9l1.3-4.8c.4-1.6.8-3.2 1.2-4.9h1.6c0 .8-.2 1.7-.5 2.6zM77.1 22.3c-.7.3-1.5.5-2.3.5-1.5 0-2.6-.4-3.3-1.3-.7-.9-1.1-2.3-1.1-4.2 0-2.2.4-3.9 1.2-5 .8-1.1 1.9-1.7 3.3-1.7s2.4.5 3.2 1.5c.7 1 1 2.6.9 4.7h-6.7v.2c0 1.6.2 2.7.7 3.4.5.7 1.1 1 2 1 .5 0 1.1-.1 1.6-.3.5-.2 1.1-.5 1.8-1l.7 1.2c-.7.4-1.3.7-2 1zm-.6-9.4c-.4-.6-1-.9-1.7-.9s-1.3.3-1.7.9c-.4.6-.6 1.5-.7 2.6h4.6c.1-1.1-.1-2-.5-2.6zM80.5 22.5v-16h1.7v16.1h-1.7zM88.1 22.8c-1.5 0-2.6-.5-3.3-1.4-.7-1-1.1-2.5-1.1-4.5 0-2.1.4-3.6 1.1-4.7.7-1 1.9-1.5 3.5-1.5 1.5 0 2.6.5 3.3 1.5.7 1 1 2.5 1 4.5 0 4.1-1.5 6.1-4.5 6.1zm2.1-9.6c-.4-.8-1.1-1.2-2.1-1.2-.9 0-1.5.4-1.9 1.1-.4.8-.6 1.9-.6 3.5 0 1.7.2 2.9.6 3.6.4.7 1.1 1.1 2 1.1 1.6 0 2.5-1.5 2.5-4.6 0-1.6-.2-2.8-.5-3.5zM102.4 21.1c-.8 1.1-2 1.7-3.7 1.7-.4 0-.8 0-1.1-.1-.3 0-.6-.1-1.1-.2v3.9h-1.7v-15.5h1.5l.1 1.5c.4-.7.8-1.1 1.3-1.4.5-.3 1.1-.4 1.9-.4 1.3 0 2.2.5 2.9 1.5.7 1 1 2.5 1 4.4 0 2-.3 3.5-1.1 4.6zm-1.3-7.8c-.4-.8-1-1.2-1.8-1.2-.4 0-.8.1-1.1.3-.3.2-.6.5-.8.8-.2.3-.4.7-.6 1.2s-.2.9-.2 1.5v5.1c.3.1.6.2 1 .3.4.1.8.1 1.3.1 1 0 1.7-.4 2.2-1.1s.7-1.9.7-3.4c-.1-1.7-.3-2.9-.7-3.6zM117.6 22.5v-7.8c0-.8-.1-1.5-.2-2s-.5-.7-1.1-.7c-.4 0-.8.1-1.2.4-.4.3-.9.7-1.6 1.2v8.9h-1.7v-7.8c0-.8-.1-1.5-.2-2s-.5-.7-1.1-.7c-.4 0-.8.1-1.2.4-.4.3-.9.7-1.6 1.2v8.9h-1.7v-11.6h1.5l.1 1.4 1.7-1.2c.5-.3 1.1-.5 1.7-.5.7 0 1.2.2 1.5.5.3.3.6.7.8 1.3.6-.5 1.2-.9 1.8-1.2.6-.3 1.1-.5 1.7-.5 1 0 1.6.3 2 .9.4.6.5 1.5.5 2.8v8.2h-1.7zM127.5 22.3c-.7.3-1.5.5-2.3.5-1.5 0-2.6-.4-3.3-1.3-.7-.9-1.1-2.3-1.1-4.2 0-2.2.4-3.9 1.2-5 .8-1.1 1.9-1.7 3.3-1.7s2.4.5 3.2 1.5c.7 1 1 2.6.9 4.7h-6.7v.2c0 1.6.2 2.7.7 3.4.5.7 1.1 1 2 1 .5 0 1.1-.1 1.6-.3.5-.2 1.1-.5 1.8-1l.7 1.2c-.7.4-1.4.7-2 1zm-.7-9.4c-.4-.6-1-.9-1.7-.9s-1.3.3-1.7.9c-.4.6-.6 1.5-.7 2.6h4.7c0-1.1-.2-2-.6-2.6zM136.9 22.5v-7.8c0-.8-.1-1.5-.3-2-.2-.5-.6-.7-1.2-.7-.4 0-.8.1-1.2.4-.4.3-1 .7-1.6 1.2v8.9h-1.7v-11.6h1.5l.1 1.4c.6-.4 1.2-.8 1.7-1.2.6-.3 1.1-.5 1.7-.5 1 0 1.7.3 2 .9.4.6.6 1.5.6 2.8v8.2h-1.6zM144.7 22.8c-.6 0-1.2-.1-1.6-.2-.4-.1-.7-.4-.9-.7-.2-.3-.4-.7-.4-1.3-.1-.5-.1-1.2-.1-1.9v-6.4h-1.7v-1.4h1.7v-3.2l1.7-.2v3.4h2.4l-.1 1.4h-2.2v7.5c0 .4.1.7.2.9.1.2.3.4.5.5.2.1.5.2.9.2h.5l.5-.1.2 1.4c-.6 0-1.1.1-1.6.1z"/><path fill="#D04200" d="M157.4 20.4c-.2.5-.5.9-.9 1.2-.4.3-.9.6-1.4.8-.6.2-1.2.3-1.8.3-1.5 0-2.5-.3-3.2-.9-.7-.6-.9-1.5-.8-2.5l1.5-.2c0 .3 0 .5.1.8.1.3.2.5.4.7.2.2.5.4.8.5.4.1.8.2 1.4.2.8 0 1.4-.2 1.9-.6.5-.4.7-1 .7-1.7 0-.6-.2-1.1-.5-1.4-.3-.4-.7-.6-1.2-.9-.5-.2-1-.5-1.6-.7-.6-.2-1.1-.5-1.6-.8-.5-.3-.9-.7-1.2-1.2-.3-.5-.5-1.1-.5-1.9 0-.5.1-1 .3-1.5.2-.4.5-.8.8-1.1.4-.3.8-.5 1.3-.7.5-.2 1.1-.2 1.8-.2s1.3.1 1.7.3c.5.2.9.4 1.2.7.3.3.5.6.6 1 .1.4.2.8.2 1.2l-1.5.2c0-.3 0-.5-.1-.8-.1-.2-.2-.5-.4-.6-.2-.2-.4-.3-.7-.4-.3-.1-.7-.2-1.1-.2-.4 0-.8.1-1.1.2-.3.1-.6.3-.8.4-.2.2-.4.4-.5.6-.1.2-.2.5-.2.8 0 .6.2 1.1.5 1.4.3.4.8.6 1.3.9l1.6.7c.6.2 1.1.5 1.6.8.5.3.9.7 1.3 1.2.3.5.5 1.1.5 1.9-.1.5-.2 1-.4 1.5zM159.7 22.5v-13.6h6.9l-.1 1.4h-5.1v4.5h4v1.4h-4v5h5.3v1.4h-7zM168.8 22.5v-13.6h6.9l-.1 1.4h-5.1v4.5h4v1.4h-4v5h5.3v1.4h-7zM186.8 18.4c-.3.9-.7 1.6-1.2 2.2s-1.2 1.1-1.9 1.4c-.8.3-1.6.5-2.6.5h-2.9v-13.6h2.9c2 0 3.6.6 4.6 1.8 1 1.2 1.5 2.8 1.5 4.9 0 1-.1 1.9-.4 2.8zm-2.4-6.7c-.7-1-1.8-1.5-3.4-1.5h-1.1v10.9h1.4c1.4 0 2.4-.5 3.1-1.4.7-.9 1.1-2.3 1.1-4-.1-1.7-.4-3-1.1-4z"/></svg>