<?xml version="1.0" encoding="UTF-8" standalone="no"?>
<!-- Created with Inkscape (http://www.inkscape.org/) -->

<svg
   xmlns:dc="http://purl.org/dc/elements/1.1/"
   xmlns:cc="http://creativecommons.org/ns#"
   xmlns:rdf="http://www.w3.org/1999/02/22-rdf-syntax-ns#"
   xmlns:svg="http://www.w3.org/2000/svg"
   xmlns="http://www.w3.org/2000/svg"
   xmlns:sodipodi="http://sodipodi.sourceforge.net/DTD/sodipodi-0.dtd"
   xmlns:inkscape="http://www.inkscape.org/namespaces/inkscape"
   id="svg4247"
   version="1.1"
   inkscape:version="0.91 r13725"
   xml:space="preserve"
   width="475.625"
   height="118.5"
   viewBox="0 0 475.625 118.5"
   sodipodi:docname="hot-logo-w-text.svg"><metadata
     id="metadata4253"><rdf:RDF><cc:Work
         rdf:about=""><dc:format>image/svg+xml</dc:format><dc:type
           rdf:resource="http://purl.org/dc/dcmitype/StillImage" /><dc:title></dc:title></cc:Work></rdf:RDF></metadata><defs
     id="defs4251"><clipPath
       clipPathUnits="userSpaceOnUse"
       id="clipPath4265"><path
         d="m 0,122.8 396.5,0 L 396.5,0 0,0 0,122.8 Z"
         id="path4267"
         inkscape:connector-curvature="0" /></clipPath></defs><sodipodi:namedview
     pagecolor="#ffffff"
     bordercolor="#666666"
     borderopacity="1"
     objecttolerance="10"
     gridtolerance="10"
     guidetolerance="10"
     inkscape:pageopacity="0"
     inkscape:pageshadow="2"
     inkscape:window-width="1889"
     inkscape:window-height="993"
     id="namedview4249"
     showgrid="false"
     inkscape:zoom="7.0537294"
     inkscape:cx="443.83286"
     inkscape:cy="39.574538"
     inkscape:window-x="32"
     inkscape:window-y="23"
     inkscape:window-maximized="0"
     inkscape:current-layer="g4255" /><g
     id="g4255"
     inkscape:groupmode="layer"
     inkscape:label="Hot_logo_with_text_rgb"
     transform="matrix(1.25,0,0,-1.25,0,118.5)"><g
       id="g4257"
       transform="translate(174.6063,73.058804)"><path
         d="m 0,0 0,21.31 2.789,0 0,-8.746 10.958,0 0,8.746 2.789,0 0,-21.31 -2.789,0 0,10.046 -10.958,0 L 2.789,0 0,0 Z"
         style="fill:#d73f3f;fill-opacity:1;fill-rule:nonzero;stroke:none"
         id="path4259"
         inkscape:connector-curvature="0" /></g><g
       id="g4261"
       transform="translate(-6.4,-15.164796)"><g
         id="g4263"
         clip-path="url(#clipPath4265)"><g
           id="g4269"
           transform="translate(211.8804,88.2236)"><path
             d="m 0,0 0,2.273 c -1.191,-1.749 -2.805,-2.619 -4.85,-2.619 -0.896,0 -1.74,0.177 -2.518,0.524 -0.785,0.346 -1.368,0.785 -1.74,1.318 -0.381,0.524 -0.651,1.174 -0.803,1.935 -0.101,0.515 -0.161,1.326 -0.161,2.442 l 0,9.565 2.594,0 0,-8.56 c 0,-1.369 0.051,-2.29 0.152,-2.763 0.169,-0.684 0.516,-1.225 1.04,-1.622 0.524,-0.389 1.182,-0.583 1.96,-0.583 0.769,0 1.504,0.194 2.18,0.6 0.685,0.405 1.166,0.946 1.445,1.639 0.287,0.693 0.422,1.698 0.422,3.017 l 0,8.272 2.594,0 L 2.315,0 0,0 Z"
             style="fill:#d73f3f;fill-opacity:1;fill-rule:nonzero;stroke:none"
             id="path4271"
             inkscape:connector-curvature="0" /></g><g
           id="g4273"
           transform="translate(218.2681,88.2236)"><path
             d="m 0,0 0,15.438 2.315,0 0,-2.164 c 0.474,0.752 1.116,1.361 1.91,1.825 0.794,0.457 1.698,0.685 2.72,0.685 1.124,0 2.054,-0.237 2.781,-0.71 0.726,-0.473 1.233,-1.141 1.529,-1.994 1.208,1.808 2.78,2.704 4.714,2.704 1.521,0 2.687,-0.423 3.498,-1.268 0.82,-0.845 1.226,-2.154 1.226,-3.92 l 0,-10.596 -2.577,0 0,9.726 c 0,1.047 -0.085,1.799 -0.254,2.264 -0.169,0.456 -0.473,0.828 -0.912,1.107 -0.44,0.278 -0.955,0.422 -1.555,0.422 -1.073,0 -1.96,-0.363 -2.67,-1.081 -0.71,-0.727 -1.065,-1.876 -1.065,-3.464 l 0,-8.974 -2.585,0 0,10.03 c 0,1.166 -0.211,2.036 -0.634,2.619 -0.422,0.583 -1.115,0.87 -2.07,0.87 -0.735,0 -1.403,-0.194 -2.028,-0.583 C 3.727,12.547 3.278,11.981 3,11.238 2.721,10.494 2.585,9.413 2.585,8.01 L 2.585,0 0,0 Z"
             style="fill:#d73f3f;fill-opacity:1;fill-rule:nonzero;stroke:none"
             id="path4275"
             inkscape:connector-curvature="0" /></g><g
           id="g4277"
           transform="translate(252.5811,95.0171)"><path
             d="m 0,0 c 0,-1.158 -0.144,-2.028 -0.422,-2.619 -0.364,-0.769 -0.93,-1.369 -1.707,-1.808 -0.777,-0.44 -1.664,-0.668 -2.662,-0.668 -1.005,0 -1.774,0.237 -2.298,0.701 -0.524,0.465 -0.777,1.048 -0.777,1.741 0,0.456 0.118,0.87 0.355,1.251 0.236,0.371 0.583,0.65 1.022,0.844 0.439,0.195 1.191,0.372 2.256,0.524 1.884,0.271 3.287,0.6 4.233,0.989 L 0,0 Z m 2.78,-4.935 c -0.11,0.643 -0.169,2.181 -0.169,4.614 l 0,3.489 C 2.611,4.326 2.569,5.129 2.484,5.577 2.332,6.295 2.062,6.886 1.682,7.359 1.293,7.833 0.693,8.221 -0.118,8.525 -0.929,8.838 -1.994,8.99 -3.295,8.99 -4.613,8.99 -5.762,8.813 -6.759,8.45 -7.756,8.086 -8.525,7.571 -9.049,6.895 -9.573,6.219 -9.953,5.34 -10.182,4.242 l 2.527,-0.347 c 0.279,1.09 0.71,1.859 1.284,2.29 0.583,0.431 1.479,0.642 2.704,0.642 1.301,0 2.281,-0.296 2.94,-0.887 C -0.236,5.509 0.009,4.757 0.009,3.692 0.009,3.591 0.009,3.363 0,3.008 -0.988,2.653 -2.526,2.357 -4.622,2.104 -5.644,1.977 -6.413,1.851 -6.92,1.715 -7.613,1.521 -8.229,1.234 -8.787,0.854 -9.336,0.473 -9.784,-0.025 -10.122,-0.65 c -0.338,-0.626 -0.507,-1.319 -0.507,-2.071 0,-1.292 0.447,-2.348 1.352,-3.176 0.895,-0.829 2.188,-1.243 3.869,-1.243 1.014,0 1.969,0.169 2.848,0.507 0.887,0.338 1.816,0.921 2.771,1.749 0.076,-0.726 0.254,-1.368 0.516,-1.909 l 2.704,0 C 3.109,-6.202 2.89,-5.585 2.78,-4.935"
             style="fill:#d73f3f;fill-opacity:1;fill-rule:nonzero;stroke:none"
             id="path4279"
             inkscape:connector-curvature="0" /></g><g
           id="g4281"
           transform="translate(259.2222,88.2236)"><path
             d="m 0,0 0,15.438 2.332,0 0,-2.198 c 1.116,1.699 2.738,2.544 4.858,2.544 0.922,0 1.767,-0.161 2.536,-0.499 0.777,-0.329 1.351,-0.769 1.732,-1.318 0.388,-0.541 0.659,-1.183 0.811,-1.926 0.093,-0.49 0.144,-1.335 0.144,-2.543 l 0,-9.498 -2.595,0 0,9.396 c 0,1.064 -0.101,1.859 -0.296,2.391 C 9.32,12.311 8.965,12.733 8.45,13.046 7.934,13.359 7.334,13.519 6.642,13.519 5.543,13.519 4.588,13.165 3.786,12.463 2.991,11.753 2.585,10.41 2.585,8.433 L 2.585,0 0,0 Z"
             style="fill:#d73f3f;fill-opacity:1;fill-rule:nonzero;stroke:none"
             id="path4283"
             inkscape:connector-curvature="0" /></g><path
           d="m 275.631,109.533 2.586,0 0,-3.008 -2.586,0 0,3.008 z"
           style="fill:#d73f3f;fill-opacity:1;fill-rule:nonzero;stroke:none"
           id="path4285"
           inkscape:connector-curvature="0" /><path
           d="m 275.631,103.661 2.586,0 0,-15.438 -2.586,0 0,15.438 z"
           style="fill:#d73f3f;fill-opacity:1;fill-rule:nonzero;stroke:none"
           id="path4287"
           inkscape:connector-curvature="0" /><g
           id="g4289"
           transform="translate(287.8232,90.5645)"><path
             d="m 0,0 0.38,-2.307 c -0.734,-0.16 -1.385,-0.236 -1.96,-0.236 -0.938,0 -1.664,0.152 -2.188,0.447 -0.516,0.304 -0.879,0.702 -1.09,1.192 -0.211,0.49 -0.313,1.512 -0.313,3.084 l 0,8.88 -1.901,0 0,2.037 1.901,0 0,3.829 2.569,1.559 0,-5.388 2.602,0 0,-2.037 -2.602,0 0,-9.024 c 0,-0.744 0.051,-1.225 0.135,-1.436 0.093,-0.22 0.245,-0.389 0.448,-0.516 0.211,-0.118 0.498,-0.186 0.887,-0.186 0.287,0 0.668,0.034 1.132,0.102"
             style="fill:#d73f3f;fill-opacity:1;fill-rule:nonzero;stroke:none"
             id="path4291"
             inkscape:connector-curvature="0" /></g><g
           id="g4293"
           transform="translate(300.0918,95.0171)"><path
             d="m 0,0 c 0,-1.158 -0.135,-2.028 -0.414,-2.619 -0.363,-0.769 -0.938,-1.369 -1.715,-1.808 -0.777,-0.44 -1.664,-0.668 -2.662,-0.668 -1.005,0 -1.766,0.237 -2.29,0.701 -0.523,0.465 -0.785,1.048 -0.785,1.741 0,0.456 0.118,0.87 0.363,1.251 0.237,0.371 0.575,0.65 1.014,0.844 0.448,0.195 1.2,0.372 2.264,0.524 1.876,0.271 3.288,0.6 4.225,0.989 L 0,0 Z m 2.78,-4.935 c -0.11,0.643 -0.161,2.181 -0.161,4.614 l 0,3.489 C 2.619,4.326 2.577,5.129 2.493,5.577 2.332,6.295 2.07,6.886 1.682,7.359 1.302,7.833 0.702,8.221 -0.118,8.525 -0.929,8.838 -1.985,8.99 -3.295,8.99 -4.604,8.99 -5.762,8.813 -6.759,8.45 -7.756,8.086 -8.517,7.571 -9.041,6.895 -9.573,6.219 -9.953,5.34 -10.181,4.242 l 2.535,-0.347 c 0.278,1.09 0.701,1.859 1.284,2.29 0.583,0.431 1.478,0.642 2.695,0.642 1.301,0 2.29,-0.296 2.949,-0.887 C -0.228,5.509 0.017,4.757 0.017,3.692 0.017,3.591 0.009,3.363 0,3.008 -0.988,2.653 -2.526,2.357 -4.613,2.104 -5.644,1.977 -6.404,1.851 -6.92,1.715 -7.604,1.521 -8.229,1.234 -8.779,0.854 -9.328,0.473 -9.776,-0.025 -10.114,-0.65 c -0.346,-0.626 -0.515,-1.319 -0.515,-2.071 0,-1.292 0.456,-2.348 1.352,-3.176 0.904,-0.829 2.196,-1.243 3.87,-1.243 1.013,0 1.969,0.169 2.855,0.507 0.888,0.338 1.809,0.921 2.772,1.749 0.076,-0.726 0.245,-1.368 0.515,-1.909 l 2.704,0 C 3.109,-6.202 2.89,-5.585 2.78,-4.935"
             style="fill:#d73f3f;fill-opacity:1;fill-rule:nonzero;stroke:none"
             id="path4295"
             inkscape:connector-curvature="0" /></g><g
           id="g4297"
           transform="translate(306.708,88.2236)"><path
             d="m 0,0 0,15.438 2.332,0 0,-2.341 c 0.591,1.098 1.141,1.817 1.647,2.171 0.499,0.347 1.057,0.516 1.657,0.516 0.87,0 1.758,-0.279 2.661,-0.837 L 7.41,12.514 C 6.776,12.894 6.143,13.08 5.509,13.08 4.942,13.08 4.436,12.911 3.979,12.564 3.532,12.227 3.211,11.745 3.017,11.137 2.729,10.207 2.585,9.185 2.585,8.086 L 2.585,0 0,0 Z"
             style="fill:#d73f3f;fill-opacity:1;fill-rule:nonzero;stroke:none"
             id="path4299"
             inkscape:connector-curvature="0" /></g><path
           d="m 316.585,109.533 2.594,0 0,-3.008 -2.594,0 0,3.008 z"
           style="fill:#d73f3f;fill-opacity:1;fill-rule:nonzero;stroke:none"
           id="path4301"
           inkscape:connector-curvature="0" /><path
           d="m 316.585,103.661 2.594,0 0,-15.438 -2.594,0 0,15.438 z"
           style="fill:#d73f3f;fill-opacity:1;fill-rule:nonzero;stroke:none"
           id="path4303"
           inkscape:connector-curvature="0" /><g
           id="g4305"
           transform="translate(332.8838,95.0171)"><path
             d="m 0,0 c 0,-1.158 -0.144,-2.028 -0.422,-2.619 -0.363,-0.769 -0.93,-1.369 -1.707,-1.808 -0.777,-0.44 -1.665,-0.668 -2.661,-0.668 -1.006,0 -1.774,0.237 -2.299,0.701 -0.515,0.465 -0.777,1.048 -0.777,1.741 0,0.456 0.118,0.87 0.355,1.251 0.244,0.371 0.582,0.65 1.022,0.844 0.439,0.195 1.191,0.372 2.257,0.524 1.883,0.271 3.295,0.6 4.232,0.989 L 0,0 Z m 2.78,-4.935 c -0.11,0.643 -0.169,2.181 -0.169,4.614 l 0,3.489 C 2.611,4.326 2.569,5.129 2.484,5.577 2.332,6.295 2.062,6.886 1.682,7.359 1.293,7.833 0.701,8.221 -0.118,8.525 -0.929,8.838 -1.994,8.99 -3.295,8.99 -4.613,8.99 -5.763,8.813 -6.759,8.45 -7.756,8.086 -8.517,7.571 -9.049,6.895 -9.573,6.219 -9.953,5.34 -10.182,4.242 l 2.527,-0.347 c 0.279,1.09 0.71,1.859 1.293,2.29 0.575,0.431 1.478,0.642 2.695,0.642 1.302,0 2.281,-0.296 2.949,-0.887 C -0.236,5.509 0.009,4.757 0.009,3.692 0.009,3.591 0.009,3.363 0,3.008 -0.988,2.653 -2.526,2.357 -4.621,2.104 -5.644,1.977 -6.413,1.851 -6.92,1.715 -7.612,1.521 -8.229,1.234 -8.778,0.854 -9.336,0.473 -9.775,-0.025 -10.122,-0.65 c -0.338,-0.626 -0.507,-1.319 -0.507,-2.071 0,-1.292 0.447,-2.348 1.352,-3.176 0.904,-0.829 2.188,-1.243 3.87,-1.243 1.013,0 1.969,0.169 2.855,0.507 0.888,0.338 1.809,0.921 2.764,1.749 0.075,-0.726 0.253,-1.368 0.523,-1.909 l 2.696,0 C 3.109,-6.202 2.89,-5.585 2.78,-4.935"
             style="fill:#d73f3f;fill-opacity:1;fill-rule:nonzero;stroke:none"
             id="path4307"
             inkscape:connector-curvature="0" /></g><g
           id="g4309"
           transform="translate(339.5254,88.2236)"><path
             d="m 0,0 0,15.438 2.332,0 0,-2.198 c 1.124,1.699 2.737,2.544 4.858,2.544 0.921,0 1.766,-0.161 2.535,-0.499 0.777,-0.329 1.352,-0.769 1.741,-1.318 0.38,-0.541 0.65,-1.183 0.803,-1.926 0.092,-0.49 0.143,-1.335 0.143,-2.543 l 0,-9.498 -2.586,0 0,9.396 c 0,1.064 -0.101,1.859 -0.304,2.391 -0.203,0.524 -0.557,0.946 -1.073,1.259 -0.515,0.313 -1.115,0.473 -1.808,0.473 -1.098,0 -2.053,-0.354 -2.847,-1.056 C 2.991,11.753 2.585,10.41 2.585,8.433 L 2.585,0 0,0 Z"
             style="fill:#d73f3f;fill-opacity:1;fill-rule:nonzero;stroke:none"
             id="path4311"
             inkscape:connector-curvature="0" /></g><g
           id="g4313"
           transform="translate(196.0283,55.9868)"><path
             d="m 0,0 c -1.36,-1.496 -3.084,-2.239 -5.188,-2.239 -2.062,0 -3.769,0.735 -5.137,2.214 -1.369,1.478 -2.053,3.498 -2.053,6.066 0,3.211 0.718,5.501 2.137,6.87 1.428,1.368 3.126,2.061 5.095,2.061 1.394,0 2.645,-0.363 3.769,-1.073 1.115,-0.71 1.96,-1.715 2.543,-3.008 C 1.74,9.599 2.036,8.086 2.036,6.345 2.036,3.608 1.352,1.487 0,0 m 3.684,12.057 c -0.82,1.682 -2.011,2.991 -3.575,3.929 -1.563,0.938 -3.32,1.411 -5.263,1.411 -2.974,0 -5.4,-1.005 -7.275,-3 -1.884,-2.002 -2.822,-4.773 -2.822,-8.305 0,-1.876 0.405,-3.65 1.208,-5.323 0.803,-1.682 1.985,-3 3.549,-3.972 1.563,-0.963 3.337,-1.453 5.323,-1.453 1.833,0 3.54,0.44 5.12,1.319 1.58,0.878 2.805,2.163 3.667,3.869 0.862,1.707 1.293,3.642 1.293,5.805 0,2.129 -0.406,4.039 -1.225,5.72"
             style="fill:#d73f3f;fill-opacity:1;fill-rule:nonzero;stroke:none"
             id="path4315"
             inkscape:connector-curvature="0" /></g><g
           id="g4317"
           transform="translate(213.5688,54.9727)"><path
             d="m 0,0 c -0.819,-0.98 -1.799,-1.47 -2.949,-1.47 -1.132,0 -2.095,0.473 -2.889,1.419 -0.803,0.955 -1.2,2.417 -1.2,4.403 0,1.985 0.422,3.506 1.276,4.545 0.845,1.04 1.825,1.563 2.923,1.563 1.115,0 2.07,-0.49 2.873,-1.47 0.802,-0.98 1.2,-2.45 1.2,-4.419 C 1.234,2.51 0.82,0.989 0,0 m 3.118,8.619 c -0.507,1.241 -1.259,2.196 -2.256,2.872 -0.997,0.676 -2.146,1.014 -3.456,1.014 -0.997,0 -1.842,-0.194 -2.543,-0.583 -0.701,-0.397 -1.326,-0.98 -1.884,-1.766 l 0,2.003 -2.357,0 0,-21.352 2.585,0 0,7.512 c 0.439,-0.558 1.005,-1.023 1.69,-1.394 0.684,-0.364 1.461,-0.55 2.323,-0.55 1.183,0 2.307,0.338 3.372,1.006 1.073,0.676 1.884,1.647 2.45,2.915 0.558,1.259 0.836,2.687 0.836,4.258 0,1.479 -0.253,2.831 -0.76,4.065"
             style="fill:#d73f3f;fill-opacity:1;fill-rule:nonzero;stroke:none"
             id="path4319"
             inkscape:connector-curvature="0" /></g><g
           id="g4321"
           transform="translate(222.5425,60.896)"><path
             d="m 0,0 c 0.084,1.352 0.532,2.425 1.343,3.228 0.811,0.802 1.808,1.208 3,1.208 1.309,0 2.383,-0.507 3.202,-1.513 C 8.086,2.273 8.407,1.301 8.525,0 L 0,0 Z m 11.254,-1.454 c 0,2.552 -0.642,4.529 -1.935,5.932 C 8.018,5.88 6.354,6.582 4.309,6.582 2.205,6.582 0.49,5.872 -0.837,4.436 -2.163,3 -2.822,0.988 -2.822,-1.614 c 0,-2.51 0.65,-4.461 1.96,-5.847 1.31,-1.394 3.084,-2.087 5.315,-2.087 1.774,0 3.235,0.44 4.377,1.31 1.14,0.87 1.918,2.095 2.34,3.675 L 8.5,-4.225 C 8.103,-5.332 7.57,-6.134 6.903,-6.642 6.227,-7.148 5.416,-7.394 4.47,-7.394 c -1.276,0 -2.341,0.448 -3.195,1.352 -0.853,0.896 -1.326,2.197 -1.419,3.896 l 11.39,0 c 0.008,0.304 0.008,0.541 0.008,0.692"
             style="fill:#d73f3f;fill-opacity:1;fill-rule:nonzero;stroke:none"
             id="path4323"
             inkscape:connector-curvature="0" /></g><g
           id="g4325"
           transform="translate(236.9736,51.6943)"><path
             d="m 0,0 0,15.437 2.332,0 0,-2.197 c 1.124,1.698 2.746,2.544 4.858,2.544 0.921,0 1.775,-0.161 2.544,-0.499 0.769,-0.329 1.352,-0.769 1.732,-1.318 0.38,-0.541 0.651,-1.183 0.803,-1.926 0.101,-0.491 0.143,-1.335 0.143,-2.544 l 0,-9.497 -2.585,0 0,9.396 c 0,1.064 -0.101,1.859 -0.305,2.391 -0.202,0.524 -0.557,0.946 -1.072,1.259 -0.508,0.312 -1.107,0.473 -1.8,0.473 -1.107,0 -2.053,-0.355 -2.856,-1.056 -0.803,-0.71 -1.2,-2.053 -1.2,-4.03 L 2.594,0 0,0 Z"
             style="fill:#d73f3f;fill-opacity:1;fill-rule:nonzero;stroke:none"
             id="path4327"
             inkscape:connector-curvature="0" /></g><g
           id="g4329"
           transform="translate(252.7573,58.5386)"><path
             d="m 0,0 2.627,0.236 c 0.127,-1.064 0.415,-1.943 0.871,-2.627 0.456,-0.676 1.166,-1.234 2.121,-1.656 0.963,-0.423 2.036,-0.626 3.236,-0.626 1.064,0 2.002,0.152 2.822,0.473 0.811,0.322 1.419,0.761 1.817,1.319 0.397,0.557 0.599,1.166 0.599,1.825 0,0.667 -0.194,1.25 -0.574,1.749 C 13.13,1.191 12.497,1.614 11.618,1.952 11.052,2.171 9.801,2.518 7.866,2.991 5.923,3.464 4.571,3.903 3.793,4.317 2.788,4.85 2.036,5.517 1.546,6.303 1.047,7.097 0.803,7.976 0.803,8.956 c 0,1.073 0.304,2.079 0.904,3.017 0.608,0.938 1.487,1.647 2.644,2.129 1.166,0.49 2.451,0.727 3.87,0.727 1.563,0 2.941,-0.254 4.132,-0.761 1.2,-0.507 2.112,-1.259 2.754,-2.247 0.643,-0.989 0.989,-2.104 1.039,-3.355 L 13.468,8.263 c -0.143,1.344 -0.625,2.358 -1.453,3.05 -0.837,0.685 -2.053,1.031 -3.676,1.031 -1.69,0 -2.915,-0.312 -3.692,-0.937 C 3.878,10.781 3.49,10.029 3.49,9.15 3.49,8.382 3.768,7.748 4.309,7.258 4.85,6.759 6.252,6.252 8.517,5.737 10.781,5.222 12.344,4.765 13.181,4.376 14.415,3.811 15.319,3.084 15.902,2.205 16.485,1.327 16.78,0.321 16.78,-0.828 c 0,-1.132 -0.321,-2.197 -0.963,-3.202 -0.642,-1.006 -1.563,-1.783 -2.771,-2.341 -1.2,-0.558 -2.552,-0.837 -4.065,-0.837 -1.9,0 -3.506,0.279 -4.79,0.846 -1.293,0.557 -2.307,1.41 -3.033,2.534 C 0.422,-2.695 0.034,-1.419 0,0"
             style="fill:#d73f3f;fill-opacity:1;fill-rule:nonzero;stroke:none"
             id="path4331"
             inkscape:connector-curvature="0" /></g><g
           id="g4333"
           transform="translate(278.6968,54.0352)"><path
             d="m 0,0 0.372,-2.307 c -0.727,-0.16 -1.377,-0.236 -1.952,-0.236 -0.938,0 -1.673,0.151 -2.189,0.447 -0.515,0.304 -0.878,0.701 -1.089,1.192 -0.212,0.49 -0.321,1.512 -0.321,3.084 l 0,8.88 -1.893,0 0,2.036 1.893,0 0,3.828 2.576,1.563 0,-5.391 2.603,0 0,-2.036 -2.603,0 0,-9.024 c 0,-0.744 0.043,-1.225 0.136,-1.436 0.093,-0.22 0.245,-0.389 0.447,-0.516 0.204,-0.118 0.499,-0.186 0.888,-0.186 0.287,0 0.659,0.034 1.132,0.102"
             style="fill:#d73f3f;fill-opacity:1;fill-rule:nonzero;stroke:none"
             id="path4335"
             inkscape:connector-curvature="0" /></g><g
           id="g4337"
           transform="translate(281.1895,51.6943)"><path
             d="m 0,0 0,15.437 2.324,0 0,-2.34 c 0.599,1.098 1.149,1.816 1.647,2.171 0.507,0.347 1.056,0.516 1.665,0.516 0.87,0 1.757,-0.279 2.661,-0.837 L 7.401,12.514 C 6.768,12.894 6.134,13.08 5.5,13.08 4.935,13.08 4.427,12.911 3.979,12.564 3.532,12.227 3.211,11.745 3.017,11.136 2.729,10.207 2.585,9.185 2.585,8.086 L 2.585,0 0,0 Z"
             style="fill:#d73f3f;fill-opacity:1;fill-rule:nonzero;stroke:none"
             id="path4339"
             inkscape:connector-curvature="0" /></g><g
           id="g4341"
           transform="translate(293.0103,60.896)"><path
             d="m 0,0 c 0.084,1.352 0.532,2.425 1.343,3.228 0.811,0.802 1.808,1.208 3,1.208 1.309,0 2.383,-0.507 3.202,-1.513 C 8.085,2.273 8.407,1.301 8.525,0 L 0,0 Z m 11.254,-1.454 c 0,2.552 -0.642,4.529 -1.943,5.932 C 8.018,5.88 6.354,6.582 4.309,6.582 2.205,6.582 0.481,5.872 -0.836,4.436 -2.163,3 -2.822,0.988 -2.822,-1.614 c 0,-2.51 0.65,-4.461 1.96,-5.847 1.31,-1.394 3.084,-2.087 5.315,-2.087 1.774,0 3.236,0.44 4.377,1.31 1.14,0.87 1.918,2.095 2.34,3.675 L 8.492,-4.225 C 8.103,-5.332 7.57,-6.134 6.903,-6.642 6.227,-7.148 5.416,-7.394 4.47,-7.394 c -1.276,0 -2.341,0.448 -3.194,1.352 -0.854,0.896 -1.327,2.197 -1.42,3.896 l 11.39,0 c 0.008,0.304 0.008,0.541 0.008,0.692"
             style="fill:#d73f3f;fill-opacity:1;fill-rule:nonzero;stroke:none"
             id="path4343"
             inkscape:connector-curvature="0" /></g><g
           id="g4345"
           transform="translate(309.4014,60.896)"><path
             d="m 0,0 c 0.085,1.352 0.533,2.425 1.344,3.228 0.811,0.802 1.808,1.208 3,1.208 1.309,0 2.383,-0.507 3.202,-1.513 C 8.087,2.273 8.416,1.301 8.526,0 L 0,0 Z m 11.264,-1.454 c 0,2.552 -0.651,4.529 -1.944,5.932 C 8.027,5.88 6.354,6.582 4.318,6.582 2.206,6.582 0.49,5.872 -0.836,4.436 -2.154,3 -2.821,0.988 -2.821,-1.614 c 0,-2.51 0.659,-4.461 1.968,-5.847 1.31,-1.394 3.076,-2.087 5.315,-2.087 1.766,0 3.227,0.44 4.368,1.31 1.141,0.87 1.918,2.095 2.341,3.675 l -2.67,0.338 C 8.104,-5.332 7.571,-6.134 6.903,-6.642 6.228,-7.148 5.425,-7.394 4.471,-7.394 c -1.277,0 -2.341,0.448 -3.195,1.352 -0.853,0.896 -1.326,2.197 -1.42,3.896 l 11.391,0 c 0.008,0.304 0.017,0.541 0.017,0.692"
             style="fill:#d73f3f;fill-opacity:1;fill-rule:nonzero;stroke:none"
             id="path4347"
             inkscape:connector-curvature="0" /></g><g
           id="g4349"
           transform="translate(329.4941,54.0352)"><path
             d="m 0,0 0.372,-2.307 c -0.726,-0.16 -1.386,-0.236 -1.96,-0.236 -0.938,0 -1.665,0.151 -2.181,0.447 -0.523,0.304 -0.886,0.701 -1.097,1.192 -0.212,0.49 -0.313,1.512 -0.313,3.084 l 0,8.88 -1.901,0 0,2.036 1.901,0 0,3.828 2.576,1.563 0,-5.391 2.603,0 0,-2.036 -2.603,0 0,-9.024 c 0,-0.744 0.043,-1.225 0.136,-1.436 0.093,-0.22 0.237,-0.389 0.44,-0.516 0.211,-0.118 0.506,-0.186 0.886,-0.186 0.288,0 0.668,0.034 1.141,0.102"
             style="fill:#d73f3f;fill-opacity:1;fill-rule:nonzero;stroke:none"
             id="path4351"
             inkscape:connector-curvature="0" /></g><g
           id="g4353"
           transform="translate(332.249,51.6943)"><path
             d="m 0,0 0,21.31 4.199,0 4.994,-15.091 c 0.456,-1.403 0.794,-2.45 1.005,-3.152 0.245,0.778 0.617,1.918 1.124,3.414 l 5.044,14.829 3.76,0 0,-21.31 -2.695,0 0,17.837 L 11.306,0 8.787,0 2.695,18.141 2.695,0 0,0 Z"
             style="fill:#d73f3f;fill-opacity:1;fill-rule:nonzero;stroke:none"
             id="path4355"
             inkscape:connector-curvature="0" /></g><g
           id="g4357"
           transform="translate(366.3252,58.4878)"><path
             d="m 0,0 c 0,-1.158 -0.144,-2.028 -0.422,-2.619 -0.363,-0.769 -0.93,-1.369 -1.707,-1.809 -0.777,-0.439 -1.665,-0.667 -2.662,-0.667 -1.005,0 -1.774,0.237 -2.298,0.701 -0.523,0.465 -0.777,1.048 -0.777,1.741 0,0.456 0.118,0.87 0.354,1.25 0.238,0.372 0.583,0.651 1.023,0.845 0.439,0.195 1.191,0.372 2.256,0.524 1.884,0.27 3.287,0.6 4.233,0.989 L 0,0 Z m 2.78,-4.935 c -0.11,0.643 -0.169,2.181 -0.169,4.614 l 0,3.489 C 2.611,4.326 2.568,5.129 2.484,5.577 2.332,6.295 2.062,6.886 1.682,7.359 1.293,7.833 0.693,8.221 -0.118,8.525 -0.937,8.838 -1.994,8.99 -3.295,8.99 -4.613,8.99 -5.763,8.813 -6.76,8.449 -7.757,8.086 -8.525,7.571 -9.049,6.895 -9.573,6.219 -9.953,5.34 -10.189,4.242 l 2.534,-0.347 c 0.279,1.09 0.71,1.859 1.284,2.29 0.583,0.431 1.479,0.642 2.704,0.642 1.302,0 2.281,-0.296 2.94,-0.887 C -0.236,5.509 0.009,4.757 0.009,3.692 0.009,3.591 0.009,3.363 0,3.008 -0.988,2.653 -2.526,2.357 -4.622,2.104 -5.645,1.977 -6.413,1.851 -6.92,1.715 -7.612,1.521 -8.229,1.233 -8.787,0.854 c -0.549,-0.381 -0.997,-0.879 -1.335,-1.505 -0.338,-0.625 -0.507,-1.318 -0.507,-2.07 0,-1.293 0.447,-2.349 1.352,-3.177 0.895,-0.828 2.188,-1.242 3.87,-1.242 1.013,0 1.96,0.169 2.847,0.507 0.887,0.338 1.817,0.921 2.771,1.749 0.076,-0.726 0.254,-1.368 0.516,-1.909 l 2.704,0 C 3.109,-6.202 2.89,-5.585 2.78,-4.935"
             style="fill:#d73f3f;fill-opacity:1;fill-rule:nonzero;stroke:none"
             id="path4359"
             inkscape:connector-curvature="0" /></g><g
           id="g4361"
           transform="translate(382.3457,54.9727)"><path
             d="m 0,0 c -0.82,-0.98 -1.8,-1.47 -2.949,-1.47 -1.132,0 -2.096,0.473 -2.89,1.419 -0.803,0.955 -1.2,2.417 -1.2,4.403 0,1.985 0.432,3.506 1.276,4.545 0.845,1.04 1.825,1.563 2.924,1.563 1.115,0 2.069,-0.49 2.872,-1.47 0.803,-0.98 1.2,-2.45 1.2,-4.419 C 1.233,2.51 0.819,0.989 0,0 M 3.117,8.619 C 2.61,9.86 1.858,10.815 0.861,11.491 c -0.997,0.676 -2.145,1.014 -3.456,1.014 -0.996,0 -1.842,-0.194 -2.543,-0.583 -0.701,-0.397 -1.326,-0.98 -1.883,-1.766 l 0,2.003 -2.358,0 0,-21.352 2.585,0 0,7.512 c 0.44,-0.558 1.006,-1.023 1.69,-1.394 0.685,-0.364 1.462,-0.55 2.324,-0.55 1.182,0 2.306,0.338 3.371,1.006 1.073,0.676 1.885,1.647 2.45,2.915 0.558,1.259 0.837,2.687 0.837,4.258 0,1.479 -0.254,2.831 -0.761,4.065"
             style="fill:#d73f3f;fill-opacity:1;fill-rule:nonzero;stroke:none"
             id="path4363"
             inkscape:connector-curvature="0" /></g><g
           id="g4365"
           transform="translate(187.7222,15.1519)"><path
             d="m 0,0 0,18.8 -6.945,0 0,2.51 16.713,0 0,-2.51 -6.979,0 L 2.789,0 0,0 Z"
             style="fill:#d73f3f;fill-opacity:1;fill-rule:nonzero;stroke:none"
             id="path4367"
             inkscape:connector-curvature="0" /></g><g
           id="g4369"
           transform="translate(201.9932,24.353)"><path
             d="m 0,0 c 0.084,1.352 0.533,2.425 1.344,3.228 0.811,0.803 1.808,1.208 2.999,1.208 1.31,0 2.383,-0.507 3.202,-1.512 C 8.086,2.273 8.407,1.301 8.525,0 L 0,0 Z m 11.255,-1.453 c 0,2.552 -0.642,4.529 -1.935,5.932 C 8.019,5.881 6.354,6.582 4.31,6.582 2.206,6.582 0.482,5.873 -0.836,4.436 -2.163,3 -2.822,0.989 -2.822,-1.614 c 0,-2.509 0.651,-4.461 1.96,-5.846 1.31,-1.395 3.084,-2.088 5.315,-2.088 1.775,0 3.236,0.44 4.377,1.31 1.141,0.87 1.918,2.095 2.34,3.676 L 8.5,-4.225 C 8.103,-5.332 7.571,-6.134 6.903,-6.641 6.228,-7.148 5.416,-7.393 4.47,-7.393 c -1.276,0 -2.341,0.448 -3.194,1.352 -0.853,0.895 -1.326,2.197 -1.42,3.895 l 11.39,0 c 0.009,0.304 0.009,0.541 0.009,0.693"
             style="fill:#d73f3f;fill-opacity:1;fill-rule:nonzero;stroke:none"
             id="path4371"
             inkscape:connector-curvature="0" /></g><g
           id="g4373"
           transform="translate(226.1753,21.9453)"><path
             d="m 0,0 c 0,-1.158 -0.135,-2.028 -0.414,-2.62 -0.363,-0.768 -0.938,-1.368 -1.707,-1.808 -0.777,-0.439 -1.664,-0.667 -2.661,-0.667 -1.006,0 -1.775,0.237 -2.299,0.701 -0.523,0.465 -0.785,1.048 -0.785,1.741 0,0.456 0.127,0.87 0.363,1.25 0.237,0.372 0.583,0.651 1.023,0.845 0.439,0.195 1.191,0.372 2.255,0.524 1.876,0.27 3.288,0.6 4.225,0.989 L 0,0 Z m 2.789,-4.935 c -0.11,0.643 -0.169,2.18 -0.169,4.614 l 0,3.489 C 2.62,4.326 2.577,5.128 2.493,5.577 2.341,6.294 2.07,6.886 1.69,7.359 1.301,7.833 0.702,8.221 -0.11,8.525 -0.929,8.838 -1.985,8.99 -3.287,8.99 -4.604,8.99 -5.762,8.813 -6.759,8.449 -7.756,8.086 -8.517,7.57 -9.041,6.895 -9.573,6.219 -9.945,5.34 -10.181,4.241 l 2.535,-0.346 c 0.278,1.09 0.709,1.859 1.284,2.29 0.583,0.431 1.479,0.642 2.695,0.642 1.31,0 2.29,-0.296 2.949,-0.887 C -0.228,5.509 0.017,4.757 0.017,3.692 0.017,3.591 0.017,3.363 0,3.008 -0.98,2.653 -2.526,2.357 -4.613,2.104 -5.636,1.977 -6.404,1.85 -6.912,1.715 -7.604,1.521 -8.221,1.233 -8.779,0.853 c -0.549,-0.38 -0.997,-0.878 -1.335,-1.504 -0.338,-0.625 -0.507,-1.318 -0.507,-2.07 0,-1.293 0.448,-2.349 1.352,-3.177 0.896,-0.828 2.188,-1.242 3.862,-1.242 1.022,0 1.969,0.169 2.855,0.507 0.887,0.338 1.817,0.921 2.772,1.749 0.076,-0.726 0.245,-1.369 0.515,-1.909 l 2.704,0 c -0.321,0.591 -0.541,1.208 -0.65,1.858"
             style="fill:#d73f3f;fill-opacity:1;fill-rule:nonzero;stroke:none"
             id="path4375"
             inkscape:connector-curvature="0" /></g><g
           id="g4377"
           transform="translate(232.8252,15.1519)"><path
             d="m 0,0 0,15.437 2.315,0 0,-2.163 c 0.482,0.752 1.115,1.36 1.91,1.825 0.794,0.456 1.707,0.684 2.72,0.684 1.133,0 2.062,-0.236 2.78,-0.709 0.727,-0.473 1.234,-1.141 1.529,-1.994 1.209,1.808 2.789,2.703 4.724,2.703 1.512,0 2.678,-0.422 3.489,-1.267 0.82,-0.845 1.225,-2.155 1.225,-3.92 l 0,-10.596 -2.577,0 0,9.725 c 0,1.048 -0.084,1.8 -0.244,2.265 -0.17,0.456 -0.474,0.828 -0.922,1.107 -0.439,0.278 -0.954,0.422 -1.546,0.422 -1.073,0 -1.968,-0.363 -2.678,-1.081 -0.71,-0.727 -1.065,-1.876 -1.065,-3.465 l 0,-8.973 -2.585,0 0,10.029 c 0,1.166 -0.212,2.037 -0.634,2.62 -0.422,0.583 -1.115,0.87 -2.07,0.87 -0.727,0 -1.403,-0.194 -2.019,-0.583 C 3.726,12.547 3.278,11.981 3.008,11.238 2.729,10.494 2.585,9.413 2.585,8.01 L 2.585,0 0,0 Z"
             style="fill:#d73f3f;fill-opacity:1;fill-rule:nonzero;stroke:none"
             id="path4379"
             inkscape:connector-curvature="0" /></g><g
           id="g4381"
           transform="translate(82.7354,56.146)"><path
             d="m 0,0 c 0,-0.817 0.452,-1.426 1.004,-1.812 0.552,-0.391 1.204,-0.596 1.955,-0.596 0.75,0 1.405,0.205 1.956,0.596 0.55,0.386 0.863,0.995 0.863,1.812 l 0,12.53 c 0,0.82 -0.313,1.428 -0.863,1.815 -0.551,0.388 -1.206,0.649 -1.956,0.649 -0.751,0 -1.403,-0.261 -1.955,-0.649 C 0.452,13.958 0,13.35 0,12.53 L 0,0 Z m -3.958,12.537 c 0,0.952 0.202,1.801 0.604,2.535 0.401,0.735 0.934,1.335 1.593,1.814 0.657,0.477 1.396,0.839 2.219,1.082 0.819,0.242 1.645,0.365 2.478,0.365 0.831,0 1.658,-0.123 2.481,-0.365 0.818,-0.243 1.558,-0.605 2.214,-1.082 0.662,-0.479 1.191,-1.079 1.595,-1.814 0.405,-0.734 0.605,-1.583 0.605,-2.535 l 0,-12.531 c 0,-0.973 -0.2,-1.825 -0.605,-2.547 C 8.822,-3.266 8.293,-3.863 7.631,-4.341 6.975,-4.82 6.235,-5.184 5.417,-5.424 4.594,-5.667 3.767,-5.788 2.936,-5.788 c -0.833,0 -1.659,0.121 -2.478,0.364 -0.823,0.24 -1.562,0.604 -2.219,1.083 -0.659,0.478 -1.192,1.075 -1.593,1.8 -0.402,0.722 -0.604,1.574 -0.604,2.547 l 0,12.531 z"
             style="fill:#d73f3f;fill-opacity:1;fill-rule:nonzero;stroke:none"
             id="path4383"
             inkscape:connector-curvature="0" /></g><g
           id="g4385"
           transform="translate(71.6392,74.4961)"><path
             d="m 0,0 0,-10.177 -6.308,0 0,10.177 -3.449,0 0,-24.159 3.449,0 0,10.18 6.308,0 0,-10.18 3.713,0 L 3.713,0 0,0 Z"
             style="fill:#d73f3f;fill-opacity:1;fill-rule:nonzero;stroke:none"
             id="path4387"
             inkscape:connector-curvature="0" /></g><g
           id="g4389"
           transform="translate(108.8799,74.4961)"><path
             d="m 0,0 -13.691,0 0,-3.553 5.06,0 -0.059,-20.606 3.64,0 0,20.606 5.05,0 L 0,0 Z"
             style="fill:#d73f3f;fill-opacity:1;fill-rule:nonzero;stroke:none"
             id="path4391"
             inkscape:connector-curvature="0" /></g><g
           id="g4393"
           transform="translate(84.271,30.9688)"><path
             d="M 0,0 C -18.61,0 -33.696,14.043 -33.696,31.364 -33.696,48.69 -18.61,62.732 0,62.732 18.609,62.732 33.696,48.69 33.696,31.364 33.696,14.043 18.609,0 0,0 m 50.003,21.992 27.866,0 -16.662,18.876 -16.588,18.876 -16.588,18.82 -83.347,0 16.588,-18.82 -27.927,0 16.59,-18.876 0.129,-0.127 -27.934,0 16.656,-18.876 16.597,-18.876 16.588,-18.821 83.347,0 -16.597,18.821 -0.122,0.182 27.931,0 -16.527,18.821 z"
             style="fill:#d73f3f;fill-opacity:1;fill-rule:nonzero;stroke:none"
             id="path4395"
             inkscape:connector-curvature="0" /></g></g></g></g></svg>