<?xml version="1.0" encoding="UTF-8" standalone="no"?>
<!-- Generator: Adobe Illustrator 21.1.0, SVG Export Plug-In . SVG Version: 6.00 Build 0)  -->

<svg
   xmlns:dc="http://purl.org/dc/elements/1.1/"
   xmlns:cc="http://creativecommons.org/ns#"
   xmlns:rdf="http://www.w3.org/1999/02/22-rdf-syntax-ns#"
   xmlns:svg="http://www.w3.org/2000/svg"
   xmlns="http://www.w3.org/2000/svg"
   xmlns:sodipodi="http://sodipodi.sourceforge.net/DTD/sodipodi-0.dtd"
   xmlns:inkscape="http://www.inkscape.org/namespaces/inkscape"
   version="1.1"
   id="Layer_1"
   x="0px"
   y="0px"
   width="250"
   height="47"
   viewBox="0 0 250 46.999996"
   enable-background="new 0 0 852.5 574.9"
   xml:space="preserve"
   sodipodi:docname="hot-tm-logo.svg"
   inkscape:version="0.92.2 (5c3e80d, 2017-08-06)"><metadata
     id="metadata4721"><rdf:RDF><cc:Work
         rdf:about=""><dc:format>image/svg+xml</dc:format><dc:type
           rdf:resource="http://purl.org/dc/dcmitype/StillImage" /><dc:title /></cc:Work></rdf:RDF></metadata><defs
     id="defs4719" /><sodipodi:namedview
     pagecolor="#ffffff"
     bordercolor="#666666"
     borderopacity="1"
     objecttolerance="10"
     gridtolerance="10"
     guidetolerance="10"
     inkscape:pageopacity="0"
     inkscape:pageshadow="2"
     inkscape:window-width="1577"
     inkscape:window-height="939"
     id="namedview4717"
     showgrid="true"
     inkscape:pagecheckerboard="false"
     inkscape:zoom="3.0348682"
     inkscape:cx="100.89752"
     inkscape:cy="9.6659336"
     inkscape:window-x="62"
     inkscape:window-y="23"
     inkscape:window-maximized="0"
     inkscape:current-layer="text4692"><inkscape:grid
       type="xygrid"
       id="grid5447" /></sodipodi:namedview><g
     transform="matrix(1.8626612,0,0,1.8626612,-34.133916,-282.57429)"
     id="g6783"
     inkscape:export-xdpi="120.952"
     inkscape:export-ydpi="120.952"><g
       id="g6775"><path
         style="fill:#d53f3f"
         inkscape:connector-curvature="0"
         id="path6773"
         d="m 38.8,163 c 0,-0.2 0.1,-0.5 0.2,-0.6 0.1,-0.2 0.2,-0.3 0.4,-0.5 0.2,-0.1 0.4,-0.2 0.6,-0.3 0.2,-0.1 0.4,-0.1 0.6,-0.1 0.2,0 0.4,0 0.6,0.1 0.2,0.1 0.4,0.2 0.6,0.3 0.2,0.1 0.3,0.3 0.4,0.5 0.1,0.2 0.2,0.4 0.2,0.6 v 3.2 c 0,0.2 -0.1,0.5 -0.2,0.6 -0.1,0.2 -0.2,0.3 -0.4,0.5 -0.2,0.1 -0.4,0.2 -0.6,0.3 -0.2,0.1 -0.4,0.1 -0.6,0.1 -0.2,0 -0.4,0 -0.6,-0.1 -0.2,-0.1 -0.4,-0.2 -0.6,-0.3 -0.2,-0.1 -0.3,-0.3 -0.4,-0.5 -0.1,-0.2 -0.2,-0.4 -0.2,-0.6 z m 1,3.2 c 0,0.2 0.1,0.4 0.3,0.5 0.1,0.1 0.3,0.2 0.5,0.2 0.2,0 0.4,-0.1 0.5,-0.2 0.1,-0.1 0.2,-0.3 0.2,-0.5 V 163 c 0,-0.2 -0.1,-0.4 -0.2,-0.5 -0.1,-0.1 -0.3,-0.2 -0.5,-0.2 -0.2,0 -0.4,0.1 -0.5,0.2 -0.1,0.1 -0.3,0.3 -0.3,0.5 z"
         class="st5" /></g><polygon
       style="fill:#d53f3f"
       id="polygon6777"
       points="36.9,167.7 37.9,167.7 37.9,161.5 36.9,161.5 36.9,164.1 35.3,164.1 35.3,161.5 34.4,161.5 34.4,167.7 35.3,167.7 35.3,165.1 36.9,165.1 "
       class="st5" /><polygon
       style="fill:#d53f3f"
       id="polygon6779"
       points="45.3,167.7 45.3,162.4 46.6,162.4 46.6,161.5 43.1,161.5 43.1,162.4 44.4,162.4 44.4,167.7 "
       class="st5" /><path
       style="fill:#d53f3f"
       inkscape:connector-curvature="0"
       id="path6781"
       d="m 53.2,167 h 7.2 l -4.3,-4.8 -4.3,-4.8 -4.3,-4.8 H 25.8 l 4.3,4.8 h -7.3 l 4.3,4.8 v 0 H 20 l 4.3,4.8 4.3,4.8 4.3,4.8 h 21.7 l -4.3,-4.8 v 0 h 7.3 z m -13,5.6 c -4.8,0 -8.8,-3.6 -8.8,-8 0,-4.4 3.9,-8 8.8,-8 4.8,0 8.8,3.6 8.8,8 0,4.4 -3.9,8 -8.8,8 z"
       class="st5" /></g><g
     aria-label="TASKING MANAGER"
     style="font-style:normal;font-variant:normal;font-weight:normal;font-stretch:normal;font-size:18.66666602999999824px;font-family:Yantramanav;-inkscape-font-specification:'Yantramanav, Normal';font-variant-ligatures:normal;font-variant-caps:normal;font-variant-numeric:normal;font-feature-settings:normal;text-align:start;writing-mode:lr-tb;text-anchor:start;fill:#4f4444;stroke:none;stroke-opacity:1"
     id="text4692"><path
       d="m 96.742859,18.035705 h -9.059896 v 2.132813 h 3.126302 v 9.807291 h 2.779948 v -9.807291 h 3.153646 z"
       style="font-style:normal;font-variant:normal;font-weight:normal;font-stretch:normal;font-size:18.66666602999999824px;font-family:Yantramanav;-inkscape-font-specification:'Yantramanav, Normal';font-variant-ligatures:normal;font-variant-caps:normal;font-variant-numeric:normal;font-feature-settings:normal;text-align:start;writing-mode:lr-tb;text-anchor:start;fill:#4f4444;stroke:none;stroke-opacity:1"
       id="path886" /><path
       d="m 101.4551,21.244039 h 0.0456 l 1.2487,4.274739 h -2.53386 z m 2.58854,8.73177 h 2.78906 l -3.86458,-11.940104 h -2.98047 l -3.855469,11.940104 h 2.789063 l 0.674479,-2.324219 h 3.764327 z"
       style="font-style:normal;font-variant:normal;font-weight:normal;font-stretch:normal;font-size:18.66666602999999824px;font-family:Yantramanav;-inkscape-font-specification:'Yantramanav, Normal';font-variant-ligatures:normal;font-variant-caps:normal;font-variant-numeric:normal;font-feature-settings:normal;text-align:start;writing-mode:lr-tb;text-anchor:start;fill:#4f4444;stroke:none;stroke-opacity:1"
       id="path888" /><path
       d="m 112.32879,28.070861 c -1.51302,0 -2.24218,-0.53776 -2.24218,-1.914062 h -2.70703 l -0.009,0.04557 c -0.0638,2.579427 2.23307,3.964843 4.95833,3.964843 2.70704,0 4.48438,-1.239583 4.48438,-3.354166 0,-2.078125 -1.36719,-3.126302 -4.10156,-3.928385 -1.75912,-0.638021 -2.27865,-0.938803 -2.27865,-1.631511 0,-0.729166 0.67448,-1.285156 1.78646,-1.285156 1.14844,0 1.82292,0.647135 1.82292,1.613281 h 2.6888 l 0.0182,-0.05469 c 0.0638,-2.151042 -1.8138,-3.645834 -4.47526,-3.645834 -2.6888,0 -4.60287,1.339844 -4.60287,3.354167 0,2.059896 1.40365,2.925781 4.44792,3.882812 1.44922,0.528646 1.91406,0.865886 1.91406,1.722657 0,0.747395 -0.54687,1.239583 -1.70443,1.239583 z"
       style="font-style:normal;font-variant:normal;font-weight:normal;font-stretch:normal;font-size:18.66666602999999824px;font-family:Yantramanav;-inkscape-font-specification:'Yantramanav, Normal';font-variant-ligatures:normal;font-variant-caps:normal;font-variant-numeric:normal;font-feature-settings:normal;text-align:start;writing-mode:lr-tb;text-anchor:start;fill:#4f4444;stroke:none;stroke-opacity:1"
       id="path890" /><path
       d="m 125.04364,29.975809 h 3.37239 l -4.01953,-6.535156 3.70052,-5.404948 h -3.44531 l -2.625,4.675781 h -0.9388 v -4.675781 h -2.77995 v 11.940104 h 2.77995 v -4.794271 h 1.27604 z"
       style="font-style:normal;font-variant:normal;font-weight:normal;font-stretch:normal;font-size:18.66666602999999824px;font-family:Yantramanav;-inkscape-font-specification:'Yantramanav, Normal';font-variant-ligatures:normal;font-variant-caps:normal;font-variant-numeric:normal;font-feature-settings:normal;text-align:start;writing-mode:lr-tb;text-anchor:start;fill:#4f4444;stroke:none;stroke-opacity:1"
       id="path892" /><path
       d="m 132.12567,18.035705 h -2.77083 v 11.940104 h 2.77083 z"
       style="font-style:normal;font-variant:normal;font-weight:normal;font-stretch:normal;font-size:18.66666602999999824px;font-family:Yantramanav;-inkscape-font-specification:'Yantramanav, Normal';font-variant-ligatures:normal;font-variant-caps:normal;font-variant-numeric:normal;font-feature-settings:normal;text-align:start;writing-mode:lr-tb;text-anchor:start;fill:#4f4444;stroke:none;stroke-opacity:1"
       id="path894" /><path
       d="m 144.16603,18.035705 h -2.76172 v 7.592448 l -0.0547,0.01823 -4.36589,-7.610677 h -2.77995 v 11.940104 h 2.77995 v -7.592448 l 0.0456,-0.01823 4.375,7.610677 h 2.76172 z"
       style="font-style:normal;font-variant:normal;font-weight:normal;font-stretch:normal;font-size:18.66666602999999824px;font-family:Yantramanav;-inkscape-font-specification:'Yantramanav, Normal';font-variant-ligatures:normal;font-variant-caps:normal;font-variant-numeric:normal;font-feature-settings:normal;text-align:start;writing-mode:lr-tb;text-anchor:start;fill:#4f4444;stroke:none;stroke-opacity:1"
       id="path896" /><path
       d="m 155.48635,23.859924 h -4.66667 v 1.832031 h 1.88672 v 1.886719 c -0.34635,0.282552 -0.875,0.455729 -1.88672,0.455729 -1.41276,0 -2.21484,-1.102865 -2.21484,-2.761719 v -2.515625 c 0,-1.622395 0.84765,-2.743489 2.14192,-2.743489 1.30339,0 1.86849,0.628906 2.05079,1.895833 h 2.60677 l 0.009,-0.05469 c -0.20963,-2.470052 -1.66797,-3.973959 -4.75781,-3.973959 -2.84375,0 -4.82162,1.996094 -4.82162,4.894532 v 2.497395 c 0,2.907552 2.01433,4.894531 4.98568,4.894531 2.33333,0 3.84636,-0.85677 4.66667,-1.822916 z"
       style="font-style:normal;font-variant:normal;font-weight:normal;font-stretch:normal;font-size:18.66666602999999824px;font-family:Yantramanav;-inkscape-font-specification:'Yantramanav, Normal';font-variant-ligatures:normal;font-variant-caps:normal;font-variant-numeric:normal;font-feature-settings:normal;text-align:start;writing-mode:lr-tb;text-anchor:start;fill:#4f4444;stroke:none;stroke-opacity:1"
       id="path898" /><path
       d="m 161.91213,18.035705 v 11.940104 h 2.77995 V 27.01357 l -0.26433,-5.377604 0.0456,-0.0091 2.85286,8.348958 h 1.86849 l 2.88021,-8.421875 0.0456,0.0091 -0.26432,5.450521 v 2.962239 h 2.77995 V 18.035705 h -3.65495 l -2.70703,8.358073 h -0.0456 l -2.67969,-8.358073 z"
       style="font-style:normal;font-variant:normal;font-weight:normal;font-stretch:normal;font-size:18.66666602999999824px;font-family:Yantramanav;-inkscape-font-specification:'Yantramanav, Normal';font-variant-ligatures:normal;font-variant-caps:normal;font-variant-numeric:normal;font-feature-settings:normal;text-align:start;writing-mode:lr-tb;text-anchor:start;fill:#4f4444;stroke:none;stroke-opacity:1"
       id="path900" /><path
       d="m 180.97072,21.244039 h 0.0456 l 1.2487,4.274739 h -2.53385 z m 2.58854,8.73177 h 2.78906 l -3.86458,-11.940104 h -2.98047 l -3.85547,11.940104 h 2.78907 l 0.67448,-2.324219 h 3.76432 z"
       style="font-style:normal;font-variant:normal;font-weight:normal;font-stretch:normal;font-size:18.66666602999999824px;font-family:Yantramanav;-inkscape-font-specification:'Yantramanav, Normal';font-variant-ligatures:normal;font-variant-caps:normal;font-variant-numeric:normal;font-feature-settings:normal;text-align:start;writing-mode:lr-tb;text-anchor:start;fill:#4f4444;stroke:none;stroke-opacity:1"
       id="path902" /><path
       d="m 197.17645,18.035705 h -2.76172 v 7.592448 l -0.0547,0.01823 -4.36588,-7.610677 h -2.77995 v 11.940104 h 2.77995 v -7.592448 l 0.0456,-0.01823 4.375,7.610677 h 2.76172 z"
       style="font-style:normal;font-variant:normal;font-weight:normal;font-stretch:normal;font-size:18.66666602999999824px;font-family:Yantramanav;-inkscape-font-specification:'Yantramanav, Normal';font-variant-ligatures:normal;font-variant-caps:normal;font-variant-numeric:normal;font-feature-settings:normal;text-align:start;writing-mode:lr-tb;text-anchor:start;fill:#4f4444;stroke:none;stroke-opacity:1"
       id="path904" /><path
       d="m 203.50197,21.244039 h 0.0456 l 1.2487,4.274739 h -2.53385 z m 2.58854,8.73177 h 2.78906 l -3.86458,-11.940104 h -2.98047 l -3.85547,11.940104 h 2.78907 l 0.67448,-2.324219 h 3.76432 z"
       style="font-style:normal;font-variant:normal;font-weight:normal;font-stretch:normal;font-size:18.66666602999999824px;font-family:Yantramanav;-inkscape-font-specification:'Yantramanav, Normal';font-variant-ligatures:normal;font-variant-caps:normal;font-variant-numeric:normal;font-feature-settings:normal;text-align:start;writing-mode:lr-tb;text-anchor:start;fill:#4f4444;stroke:none;stroke-opacity:1"
       id="path906" /><path
       d="m 219.17905,23.859924 h -4.66667 v 1.832031 h 1.88672 v 1.886719 c -0.34635,0.282552 -0.875,0.455729 -1.88672,0.455729 -1.41276,0 -2.21484,-1.102865 -2.21484,-2.761719 v -2.515625 c 0,-1.622395 0.84766,-2.743489 2.14193,-2.743489 1.30338,0 1.86849,0.628906 2.05078,1.895833 h 2.60677 l 0.009,-0.05469 c -0.20963,-2.470052 -1.66796,-3.973959 -4.75781,-3.973959 -2.84375,0 -4.82161,1.996094 -4.82161,4.894532 v 2.497395 c 0,2.907552 2.01432,4.894531 4.98567,4.894531 2.33334,0 3.84636,-0.85677 4.66667,-1.822916 z"
       style="font-style:normal;font-variant:normal;font-weight:normal;font-stretch:normal;font-size:18.66666602999999824px;font-family:Yantramanav;-inkscape-font-specification:'Yantramanav, Normal';font-variant-ligatures:normal;font-variant-caps:normal;font-variant-numeric:normal;font-feature-settings:normal;text-align:start;writing-mode:lr-tb;text-anchor:start;fill:#4f4444;stroke:none;stroke-opacity:1"
       id="path908" /><path
       d="m 228.3301,22.729716 h -4.6849 v -2.561198 h 5.53255 v -2.132813 h -8.3125 v 11.940104 h 8.29428 v -2.132812 h -5.51433 v -2.980469 h 4.6849 z"
       style="font-style:normal;font-variant:normal;font-weight:normal;font-stretch:normal;font-size:18.66666602999999824px;font-family:Yantramanav;-inkscape-font-specification:'Yantramanav, Normal';font-variant-ligatures:normal;font-variant-caps:normal;font-variant-numeric:normal;font-feature-settings:normal;text-align:start;writing-mode:lr-tb;text-anchor:start;fill:#4f4444;stroke:none;stroke-opacity:1"
       id="path910" /><path
       d="m 233.19728,20.168518 h 1.8138 c 1.11198,0 1.73177,0.647135 1.73177,1.622396 0,0.957031 -0.60156,1.476562 -1.72265,1.476562 h -1.82292 z m 1.90495,5.23177 c 1.17578,0 1.77734,0.610677 1.77734,1.75 v 0.729167 c 0,0.729167 0.0911,1.75 0.52865,2.096354 h 2.86198 v -0.164062 c -0.46485,-0.346355 -0.62891,-1.294271 -0.62891,-1.932292 v -0.747396 c 0,-1.449219 -0.58333,-2.433593 -2.05989,-2.852864 1.28515,-0.565104 1.93229,-1.43099 1.93229,-2.679688 0,-2.233073 -1.73177,-3.582031 -4.50261,-3.582031 h -4.59375 V 29.95758 h 2.77995 v -4.575521 z"
       style="font-style:normal;font-variant:normal;font-weight:normal;font-stretch:normal;font-size:18.66666602999999824px;font-family:Yantramanav;-inkscape-font-specification:'Yantramanav, Normal';font-variant-ligatures:normal;font-variant-caps:normal;font-variant-numeric:normal;font-feature-settings:normal;text-align:start;writing-mode:lr-tb;text-anchor:start;fill:#4f4444;stroke:none;stroke-opacity:1"
       id="path912" /></g></svg>