<svg width="226" height="60" xmlns="http://www.w3.org/2000/svg"><g fill="none" fill-rule="evenodd"><path d="M96.04 18.56c1.408 0 2.471.235 3.19.704.719.47 1.195 1.137 1.43 2.002.235.865.352 2.031.352 3.498v15.532c0 .264-.059.44-.176.528-.117.088-.47.14-1.056.154-.587.015-1.364.022-2.332.022V24.72c0-1.144-.14-1.936-.418-2.376-.279-.44-.858-.66-1.738-.66a5.617 5.617 0 0 0-2.992.836v17.776c0 .264-.051.44-.154.528-.103.088-.433.14-.99.154a94.42 94.42 0 0 1-2.332.022h-.044V24.632c0-.821-.044-1.43-.132-1.826-.088-.396-.286-.69-.594-.88-.308-.19-.8-.286-1.474-.286a6.01 6.01 0 0 0-2.992.792v17.864c0 .264-.059.44-.176.528-.117.088-.47.14-1.056.154-.587.015-1.364.022-2.332.022V20.012c2.141-.968 4.356-1.452 6.644-1.452 1.819 0 3.153.455 4.004 1.364.733-.41 1.591-.74 2.574-.99.983-.25 1.914-.374 2.794-.374zm14.08 22.88c-1.877 0-3.351-.447-4.422-1.342-1.07-.895-1.606-2.677-1.606-5.346 0-2.787.535-4.686 1.606-5.698 1.07-1.012 2.5-1.518 4.29-1.518 1.379 0 2.45.19 3.212.572v-3.476c0-.997-.22-1.687-.66-2.068-.44-.381-1.13-.572-2.068-.572-1.056 0-2.127.095-3.212.286-1.085.19-1.965.433-2.64.726-.323-.616-.484-1.305-.484-2.068 0-.587.161-.983.484-1.188.44-.293 1.29-.565 2.552-.814 1.261-.25 2.655-.374 4.18-.374 1.907 0 3.285.41 4.136 1.232.85.821 1.276 2.2 1.276 4.136v2.332c0 6.453-.088 11.015-.264 13.684-.704.44-1.599.8-2.684 1.078-1.085.279-2.317.418-3.696.418zm.616-2.992c.47 0 .924-.073 1.364-.22.44-.147.763-.308.968-.484.088-.997.132-3.373.132-7.128-.557-.293-1.247-.44-2.068-.44-1.056 0-1.877.308-2.464.924-.587.616-.88 1.804-.88 3.564 0 1.496.242 2.5.726 3.014.484.513 1.225.77 2.222.77zm11.396 11.22c-.645 0-1.093-.11-1.342-.33-.25-.22-.374-.623-.374-1.21V20.32c1.848-1.173 3.99-1.76 6.424-1.76 2.347 0 4.129.675 5.346 2.024 1.217 1.35 1.826 3.725 1.826 7.128 0 5.31-.623 8.925-1.87 10.846-1.247 1.921-2.809 2.882-4.686 2.882-.763 0-1.445-.117-2.046-.352-.601-.235-1.078-.528-1.43-.88v9.196a6.115 6.115 0 0 1-1.848.264zm4.224-11.396c2.493 0 3.74-3.388 3.74-10.164 0-1.73-.125-3.065-.374-4.004-.25-.939-.616-1.584-1.1-1.936-.484-.352-1.137-.528-1.958-.528-.997 0-1.892.279-2.684.836V36.82c.587.968 1.379 1.452 2.376 1.452zm28.468-18.48c.059-.293.154-.484.286-.572.132-.088.477-.147 1.034-.176.557-.03 1.29-.044 2.2-.044-.47 2.317-1.357 6.585-2.662 12.804s-2.002 9.328-2.09 9.328c-.088.03-.337.059-.748.088-.41.03-.924.044-1.54.044-.352 0-.711-.198-1.078-.594-.367-.396-.623-.96-.77-1.694l-.572-2.992c-.675-3.11-1.217-6.761-1.628-10.956-.528 4.635-1.07 8.301-1.628 11l-1.012 5.104c-.205.03-.594.059-1.166.088-.572.03-1.166.044-1.782.044-.704 0-1.203-.719-1.496-2.156a765.273 765.273 0 0 1-2.288-10.252 5435.23 5435.23 0 0 1-1.98-9.108c-.059-.264-.015-.44.132-.528.147-.088.543-.147 1.188-.176.645-.03 1.481-.044 2.508-.044l1.364 7.172c.352 2.053.675 4.195.968 6.424.293 2.23.484 3.667.572 4.312h.264c.557-3.99.968-6.703 1.232-8.14l1.408-8.404c.059-.323.154-.528.286-.616.132-.088.418-.132.858-.132h2.332l1.716 9.24c.323 1.408.616 2.97.88 4.686.264 1.716.425 2.838.484 3.366h.22c.117-1.379.308-3.095.572-5.148.264-2.053.543-3.916.836-5.588l1.1-6.38zm6.248.836c0-.557.095-.946.286-1.166.19-.22.506-.352.946-.396.44-.044 1.217-.066 2.332-.066v21.296c0 .264-.051.44-.154.528-.103.088-.447.14-1.034.154-.587.015-1.379.022-2.376.022V20.628zm1.628-4.708c-1.173 0-1.76-.85-1.76-2.552 0-1.877.675-2.816 2.024-2.816.645 0 1.1.19 1.364.572.264.381.396 1.041.396 1.98 0 .88-.176 1.57-.528 2.068-.352.499-.85.748-1.496.748zm12.012 25.52c-1.203 0-2.105-.257-2.706-.77s-.997-1.232-1.188-2.156c-.19-.924-.286-2.134-.286-3.63V22.036h-2.992c0-.792.015-1.43.044-1.914.03-.484.095-.792.198-.924.103-.132.271-.198.506-.198h2.244v-6.688c0-.41.095-.697.286-.858.19-.161.499-.264.924-.308.425-.044 1.195-.066 2.31-.066V19h4.576c0 .792-.015 1.437-.044 1.936-.03.499-.095.807-.198.924-.103.117-.271.176-.506.176h-3.828v12.848c0 1.203.095 2.09.286 2.662.19.572.638.858 1.342.858.47 0 .88-.051 1.232-.154.352-.103.792-.271 1.32-.506.176.587.264 1.173.264 1.76 0 .704-.367 1.203-1.1 1.496-.733.293-1.628.44-2.684.44zm6.82-31.152c0-.557.088-.946.264-1.166.176-.22.484-.352.924-.396.44-.044 1.217-.066 2.332-.066v11.616c.645-.557 1.415-.983 2.31-1.276a8.506 8.506 0 0 1 2.662-.44c1.79 0 3 .462 3.63 1.386.63.924.946 2.398.946 4.422v15.928c0 .264-.066.44-.198.528-.132.088-.491.14-1.078.154-.587.015-1.364.022-2.332.022V25.336c0-1.115-.176-1.973-.528-2.574-.352-.601-1.041-.902-2.068-.902-.557 0-1.13.095-1.716.286-.587.19-1.13.491-1.628.902v17.248c0 .264-.051.44-.154.528-.103.088-.44.14-1.012.154-.572.015-1.357.022-2.354.022V10.288zm18.832 30.976c-.88 0-1.51-.213-1.892-.638-.381-.425-.572-1.049-.572-1.87 0-.704.227-1.298.682-1.782.455-.484 1.049-.726 1.782-.726 1.613 0 2.42.836 2.42 2.508 0 .733-.22 1.335-.66 1.804-.44.47-1.027.704-1.76.704zm11.264.176c-1.877 0-3.351-.447-4.422-1.342-1.07-.895-1.606-2.677-1.606-5.346 0-2.787.535-4.686 1.606-5.698 1.07-1.012 2.5-1.518 4.29-1.518 1.379 0 2.45.19 3.212.572v-3.476c0-.997-.22-1.687-.66-2.068-.44-.381-1.13-.572-2.068-.572-1.056 0-2.127.095-3.212.286-1.085.19-1.965.433-2.64.726-.323-.616-.484-1.305-.484-2.068 0-.587.161-.983.484-1.188.44-.293 1.29-.565 2.552-.814 1.261-.25 2.655-.374 4.18-.374 1.907 0 3.285.41 4.136 1.232.85.821 1.276 2.2 1.276 4.136v2.332c0 6.453-.088 11.015-.264 13.684-.704.44-1.599.8-2.684 1.078-1.085.279-2.317.418-3.696.418zm.616-2.992c.47 0 .924-.073 1.364-.22.44-.147.763-.308.968-.484.088-.997.132-3.373.132-7.128-.557-.293-1.247-.44-2.068-.44-1.056 0-1.877.308-2.464.924-.587.616-.88 1.804-.88 3.564 0 1.496.242 2.5.726 3.014.484.513 1.225.77 2.222.77zm9.724-17.82c0-.557.095-.946.286-1.166.19-.22.506-.352.946-.396.44-.044 1.217-.066 2.332-.066v21.296c0 .264-.051.44-.154.528-.103.088-.447.14-1.034.154-.587.015-1.379.022-2.376.022V20.628zm1.628-4.708c-1.173 0-1.76-.85-1.76-2.552 0-1.877.675-2.816 2.024-2.816.645 0 1.1.19 1.364.572.264.381.396 1.041.396 1.98 0 .88-.176 1.57-.528 2.068-.352.499-.85.748-1.496.748z" fill="#0F1C4E" fill-rule="nonzero"/><path d="M17.817 32.538v-5.524a6 6 0 0 1 2.839-5.099l5.506-3.414A6 6 0 0 0 29 13.402V6.739A6 6 0 0 0 21.294.986C14.413 3.028 8.885 7.37 4.712 14.011.333 21.125-.994 28.7.73 36.733a6 6 0 0 0 8.808 3.97l5.22-2.936a6 6 0 0 0 3.058-5.23zM42.183 32.538v-5.524a6 6 0 0 0-2.839-5.099l-5.506-3.414A6 6 0 0 1 31 13.402V6.739A6 6 0 0 1 38.706.986c6.881 2.042 12.409 6.383 16.582 13.025 4.379 7.114 5.706 14.688 3.981 22.722a6 6 0 0 1-8.808 3.97l-5.22-2.936a6 6 0 0 1-3.058-5.23zM37.338 39.077l-4.172 2.471a6 6 0 0 1-5.994.07l-5.184-2.909a6 6 0 0 0-5.995.07l-5.296 3.138a6 6 0 0 0-1.172 9.417c5.077 5.048 11.423 7.75 19.04 8.109 8.073.301 15.03-2.292 20.872-7.778a6 6 0 0 0-.951-9.476l-4.933-3.052a6 6 0 0 0-6.215-.06z" fill="#0F1D4F"/><path d="M20.194 9.033l.104.298.734.137.274.887-.445.025.193 1.008 1.178.435.519-.25.422.637.905-.435-.734-.96.378-.774h-.549l-.296-.395-.393.097.208-.508-.838-1.411h-.674l-.986 1.21zm2.45-1.651l-.023.434.864.13-.737.388.588.952h1.46l.253-.434-.343-.328-.268.221-.678-.716.588-.472-.252-.22-1.453.045zm3.098-.046l-.693.137.031.35.94-.116-.032-.213-.246-.158zm1.224.488l-.461.417.915.557.056-.308-.51-.666zm.748 0l-.238.835.775.14.068-.042.128-.327-.733-.606zm1.098-.631l-.237.955.046.061.993.803-.626.626-1.108-.214-.168.107.802.459-.588.604.52.282-.97 1.04.931.955h.061l.848.176.145.145.412-.298 1.192.84-.542.222.152.39.565.023.153.405-.626.871-.955.153-.305.627.52.344h.068l.65-.344.969 1.1 1.038.046.07-.214-1.016-.695 1.359.329.069-.306-.65-.848.153-.321.993.84.542-1.077-.542-.046-1.344-.956.481-.565-1.26-.948-.214-.588-.695-.321-.084-.505-.932-.145-.87-.306 1.367-.175-.26-.367-.931-.199.068-.191.863-.084.802.26.413-.375v-.26l.824-.65.794-.389 1.306-.78-1.26-.84-.32.428-.741-.283-.695.459-.344-.344h-.061l-.825.13.367.52-.497.06-.236-.473-.634-.153zm-2.626 1.665l-.167.249.636 1.104.82.05-.07-.478h-.366l.052-.786-.308-.199-.16.23-.437-.17zm7.625.35l-.284.288-.867-.171-.33.288.545.35-.476.086v.506l1.128.53.829-.195 1.504 1.214-.153.639.153.467h.76l.322.553-.714-.094-.2.755.806.304.284-.724.2.903-.652.639.107.755.913 1.144.062.53 1.588 1.059.936-.133.392-1.65-.261-.841.391-.335.391.093.07-.093.606-.927v-.288l.629-.109.874-1.012.131-.708-.614-.841-.476-.086-.176-.374.437.024.023-.623-.629-.444-.046-.592-.453-.35-.222-.685-.63-.312.023-1.214-.39-.07-.615.42-.606-.171-1.066.218.022-.202 1.175-.218-.722-.42-.844.357.154-.397.299-.117-.368-.085-.783.085-.26.53-.346-.11-.522.266.3.443-.584.07-.023-.358-2.087.639-.261.42.084.047.983.327h-.46zm11.82 5.602l-1.489.164-.161.416 2.087.72h.09l.735-.858-.639-.605-.623.163zm-1.86-8.936l-.276.291.09.05.765.431-.75.108.059.145h.863l.788.437.127-.247v-.031l-.804-.437-.03-.323-.833-.424zm11.86 17.642l.256.61.088.372.499.384.128-.218-.425-.308v-.076l.067-.546-.499-.314-.114.096zm4.323 4.14a30.325 30.325 0 0 1-2.502 13.798l.308-2.511-.262-.811-.478.525-.962-.657-1.355 2.272-1.655.595-1.032-.503-.108-.486-1.131-1.638.061-.549.5-.525-.015-.788-.377-1.012.154-.788 1.702-3.307.507-2.186.04-1.322h.784l1.117-1.004.762-1.445.57.302.238.857 1.27-.085.085-1.468.586-.525 1.193 3.26zM40.097 1C49.427 4.433 56.6 12.217 59.03 21.84l-.578-.26-.797-.52-.336.283.422 1.348-.18.169-.594-.782-1.195-.973v.498l.883.606.242.758-.086.245-1-1.218h-.688l-.039.935-.469.038-.594.72.149 2.544-.351.736-1.462.352-.531-.697.156-1.302-.289-.414.242-.46.602-.023.68-.475v-.72l-.531-.452-.016-.345-.688-.26.11-.46.047-.07.414-.237.25-1.8-.07-.981.445-.674-1.024-.583.29-.72.398.153-.172.59.726.238.446-.345.086-.805-.953-1.7.445-.062v-.345l-.977-.528.602-1.15-.758-.39-.039.957-1.774-2.214-.266.238 2.282 3.103.774 2.022-.22.154-1.023-1.196h-.195l.11.958-.47.13-1.437-1.348.18-1.67-.758-1.548-.907-1.326.227-.283-.555-.996v-.59l.57.245 1.22 1.08.89.115-1.953-2.306-1.39-1.54-.821-.176-1.774-1.586.133-.192 1.812 1.02-.992-1.242-4.742-2.299L40.098 1zm-5.774 19.813l.13-.468-.957-1.639-.827.577-.819-.288.016-.882-2.144-.952-1.11 1.373.566 1.062-.069.881-1.018.203-.199 1.639-.972-.422-.222-1.084.092-.53-2.734-1.795.062-.796-.582-.53-.023-.508 1.34-.6 1.286-.024-.107-.617.819.024.153-.203-.628-.351.046-.156.674.312.475-.07.712.093.742-.6-.199-.906-.65-.07-.498.53-.414-.038.33-.687-.154-.265-.474.265-.376-.492.376-.53-.483-1.015.72.024.429-.601-.322-.312-1.087.265.023-.53-.697-.172-.038.554-.544-.117-.199.491.613.726.39-.086-.13.507.651.554-1.217.952-.414-.686h-.59l-1.3-.71-.56-.219-.673.89-.07-.78-.627-.352v-.64l-.437-.866-.842-.593V8.82h-.873l-.084-.242-.628-.203-.72-1.46.154-1.528-1.585.07-.888.772-.505-.062-.559.421.153.437-.505.445-.636-.336-1.324 1.35-.153.843-1.042-.023-.367.398 1.041.312 1.868-.07.437 1.396-.222 1.725.589-.313-1.348 3.94.866.906.023.094-.26.858-.629-.437h-.022l-.345.991-1.347 1.685-.437 1.545.482.601-.283.773 1.172 3.012.628.772-.024 1.147-.581-.952-.59.554.888 1.927.697-1.264 1.37 3.098-.352 1.022 1.845 2.17 3.002 1.786 2.71 1.264.367 1.35.567.266.696.795.889.352.72-.29.91.82-.306.687.084.952-2.013 1.748h.023l.015.444-.237.195.566 1.733 1.868 2.364 1.302.75.566.179.215.998-.176 1.81-1.256 2.146-.52.664.153.952-.437.912.214.46 1.088.469.436-.336h.107l.567-.179.038-.218-.191-.313 1.102-.374-.061-.398.321-.398.269.421h.06l.72-.444 1.493-.086.437-.336-.39-.64.26-.265.52.617.996-.196 1.439-.998.214.18.934-.75.284-.648 1.125-.64 1.63-.132 2.236-2.06 1.539-1.896.628-.624.306-.843-1.256-.812-2.151-.226-.735-.53H38.565l-.498.312h-.605l-.367-.36-.46.25-.26-.25.567-.506.497.023.153-.156-.283-.687-.061-.53-1.05-.82-.841-.265-.437.265-.674-.374-.39.023.084-.507-.605-.242-.834.008.398-.398-.903-.554-.934.21-1.133-.343-1.08-.78-.544.507.13.476-.237.086-.39-.32.29-.218-.076-.164.253-.258-.1-.218-1.026.28h-.038l-.612-.038-.07.023-.91.882-.934-.936-.575.093-.888-.484-.275-.71-.268-1.7-2.044-.43.964-2.107-.114-.25-1.11-.132-.942 1.225-.498-.476-.972-.11-.628-1.38v-1.678l.497-.218v-1.038l.98-.445 1.8.336.78.35.437-.265 2.435.75v.928l.865 1.046.436-.227-.544-.99v-.773l2.282-1.553.414-.398-.223-.952.023-.062.628-.468.069.35 1.172-1.084.735-.039.85-.82 2.166-.553-.842.64.674.265v-.062l.957-.843-.024-.484-.543-.117-.873-.772.781-.906.789.063.214-.219 1.761-.507-.413 1.24-.368.375 2.037.445.497-.663-1.432-.6-.13-.844.2-.218-.33-.773-.283-.53-.865-.289-.52-.421z" fill-opacity=".43" fill="#FFF"/><path d="M31.5 22.155l3.361 1.94a4 4 0 0 1 2 3.464v3.882a4 4 0 0 1-2 3.464l-3.361 1.94a4 4 0 0 1-4 0l-3.361-1.94a4 4 0 0 1-2-3.464v-3.882a4 4 0 0 1 2-3.464l3.361-1.94a4 4 0 0 1 4 0z" fill="#C80BC7"/></g></svg>