<?xml version="1.0" encoding="utf-8"?>
<!-- Generator: Adobe Illustrator 24.0.3, SVG Export Plug-In . SVG Version: 6.00 Build 0)  -->
<svg version="1.1"
	 id="svg4153" xmlns:cc="http://creativecommons.org/ns#" xmlns:dc="http://purl.org/dc/elements/1.1/" xmlns:rdf="http://www.w3.org/1999/02/22-rdf-syntax-ns#" xmlns:svg="http://www.w3.org/2000/svg"
	 xmlns="http://www.w3.org/2000/svg" xmlns:xlink="http://www.w3.org/1999/xlink" x="0px" y="0px" viewBox="0 0 135.2 31.9"
	 style="enable-background:new 0 0 135.2 31.9;" xml:space="preserve">
<style type="text/css">
	.st0{opacity:0.5044;}
	.st1{fill:#B1E479;}
	.st2{fill:#87D531;}
	.st3{fill:#CEEEAB;}
	.st4{fill:#B9E787;}
	.st5{opacity:0.5217;}
	.st6{fill:#83D32B;}
	.st7{fill:#A4DF62;}
	.st8{fill:url(#rect5757-8-7-7-9_2_);}
	.st9{fill:#2D3335;}
	.st10{fill:#9EAAAC;}
	.st11{fill:#D0E9F2;fill-opacity:0.4759;}
	.st12{fill:url(#path5604-9-1-3_2_);}
	.st13{fill:url(#path5604-9-1-8-8-1_2_);}
	.st14{fill:url(#rect5757-5_2_);}
	.st15{fill:url(#rect5757-8-7-2_2_);}
	.st16{fill:url(#rect5757-8-6_2_);}
	.st17{opacity:0.5957;fill:url(#rect5757-8-6-3_2_);enable-background:new    ;}
	.st18{opacity:0.6043;fill:url(#path6587_2_);enable-background:new    ;}
	.st19{opacity:0.7652;fill:url(#path6587-7_2_);enable-background:new    ;}
</style>
<g id="g4199" transform="translate(0,320)" class="st0">
	<path id="path3834-4" class="st1" d="M79.4-319.5c0,0-3.3,1.2-4.3,1.4s-2.9,0.7-2.9,0.7s-1.3-0.6-3-1.2c-1.7-0.6-4.1-0.8-4.1-0.8
		s-0.4,0.5-3,1.1c-2.6,0.6-3.8,0.8-3.8,0.8s-2.5-1.2-4.3-1.6c-1.8-0.3-3.3-0.3-3.4-0.2c0,0,1,1.8,1.6,3.8s0.9,3.5,0.9,3.5l7,0.7
		l6.7-0.5l7.1,1.6c1.4-0.6,7.1-0.7,7.6-1.8c0,0-0.6-2.1-1-4.1C80.1-318,79.4-319.5,79.4-319.5z"/>
	<path id="path3834-7-2" class="st2" d="M53.1-311.9c0,0-0.8,1.7-1.1,3.4c-0.4,1.6-0.8,3.1-0.8,3.1l7,2.2l7.3-2.2l7.1,2.4
		c2.2-0.6,4.4-1.2,6.6-2.1c0,0,0.2-1.4,0.9-3.2c0.7-1.8,1.4-3.7,1.4-3.7c-0.4,1.1-6.1,1.2-7.6,1.8l-7.1-1.6l-6.6,0.5L53.1-311.9z"/>
	<path id="path3834-7-26" class="st3" d="M81.1-298.2c-2.4,1-4.9,2-7.4,2.9l-7.1-2.5l-6.9,1.2L53-298c0,0-0.5,1.4-1,3.3
		c-0.5,1.9-0.7,4.2-0.7,4.2s1.3-0.3,3.9,0.2c2.6,0.4,4.4,0.8,4.4,0.8s1.7-0.4,3.3-0.9c1.5-0.5,2.2-0.9,2.2-0.9s0.8,0.1,3.1,0.9
		s4,1.2,4,1.2s1.8-0.4,3.6-0.8c1.8-0.4,3.6-1.1,3.6-1.1s-0.1-0.7,0.6-3.3C80.6-297.1,81.1-298.2,81.1-298.2z"/>
	<path id="path3834-7-26-0" class="st4" d="M51.2-305.4c0,0,0.8,2.2,1.3,4.1c0.5,1.9,0.5,3.3,0.5,3.3l6.7,1.4l6.9-1.2l7.1,2.5
		c2.5-0.9,5-1.9,7.4-2.9c0,0-0.1-0.6-0.5-2.7c-0.4-2.1-1.4-4.1-1.4-4.1c-2.1,0.9-4.3,1.5-6.6,2.1l-7.1-2.4l-7.3,2.2
		C58.1-303.1,51.2-305.4,51.2-305.4z"/>
</g>
<g id="g4205" transform="translate(0,140)" class="st5">
	<path id="path3834-2" class="st6" d="M51.3-139.2c-0.4,0-0.6,0-0.6,0c0,0,1,1.8,1.6,3.8c0.6,2,0.9,3.5,0.9,3.5s-0.8,1.7-1.1,3.4
		c-0.4,1.6-0.8,3.1-0.8,3.1s0.8,2.2,1.3,4.1S53-118,53-118s-0.5,1.4-1,3.3c-0.5,1.9-0.7,4.2-0.7,4.2s1.3-0.3,3.9,0.2
		c2.6,0.4,4.4,0.8,4.4,0.8l0.2-7.3l-1.7-6.4l2.2-8.2c-0.3-2.1-1.2-4.1-1.9-6.1c0,0-2.5-1.2-4.3-1.6
		C52.9-139.2,51.9-139.2,51.3-139.2L51.3-139.2z"/>
	<path id="path3834-6-2" class="st1" d="M65.1-139.2c0,0-0.4,0.5-3,1.1c-2.6,0.6-3.8,0.8-3.8,0.8c0.7,2,1.6,4,1.9,6.1l-2.2,8.2
		l1.7,6.4l-0.2,7.3c0,0,1.7-0.4,3.3-0.9c1.5-0.5,2.2-0.9,2.2-0.9l1.5-6.6l-1.1-7.4l1.6-6.2C66.6-132.7,66-139.2,65.1-139.2z"/>
	<path id="path3834-6-6" class="st7" d="M79.4-139.5c0,0-3.3,1.2-4.3,1.4c-1,0.2-2.9,0.7-2.9,0.7c0.7-0.2,1.6,6.2,1.9,7.1l-1.5,7.3
		l1.3,7.5l-1.7,6.2c0,0,1.8-0.4,3.6-0.8c1.8-0.4,3.6-1.1,3.6-1.1s-0.1-0.7,0.6-3.3s1.2-3.8,1.2-3.8s-0.1-0.6-0.5-2.7
		c-0.4-2.1-1.4-4.1-1.4-4.1s0.2-1.4,0.9-3.2c0.7-1.8,1.4-3.7,1.4-3.7s-0.6-2.1-1-4.1C80.1-138,79.4-139.5,79.4-139.5z"/>
	<path id="path3834-6-6-9" class="st3" d="M65.1-139.2c0.9,0.1,1.5,6.5,2,7.9l-1.6,6.2l1.1,7.3l-1.5,6.8c0,0,0.8,0.1,3.1,0.9
		s4,1.2,4,1.2l1.7-6.2l-1.3-7.5l1.5-7.3c-0.4-0.9-1.3-7.3-1.9-7.1c0,0-1.3-0.6-3-1.2C67.5-139.1,65.1-139.2,65.1-139.2z"/>
</g>
<linearGradient id="rect5757-8-7-7-9_2_" gradientUnits="userSpaceOnUse" x1="114.3465" y1="288.6468" x2="116.5318" y2="288.6468" gradientTransform="matrix(0.9843 0.9843 0.9843 -0.9843 -343.2395 201.5595)">
	<stop  offset="0" style="stop-color:#F9E295"/>
	<stop  offset="0.125" style="stop-color:#F7DD84"/>
	<stop  offset="0.2058" style="stop-color:#FFFFFF"/>
	<stop  offset="0.3011" style="stop-color:#F4CE51"/>
	<stop  offset="0.3412" style="stop-color:#F9E7AA"/>
	<stop  offset="1" style="stop-color:#EFBB0E"/>
</linearGradient>
<path id="rect5757-8-7-7-9_1_" class="st8" d="M55.2,32.5c-0.7-0.7-1.4-1.5-2.1-2.2l0.6-0.6c0.9,0.9,1.2,1.2,2.1,2.1v0L55.2,32.5"/>
<path id="path5604-26_1_" class="st9" d="M66.4,19.2c-3.7-3.7-3.7-9.7,0-13.5c3.7-3.7,9.7-3.7,13.5,0c3.7,3.7,3.7,9.7,0,13.5
	C76.1,22.9,70.1,22.9,66.4,19.2z M66.8,18.8c3.6,3.6,9.2,3.7,12.8,0.1c3.6-3.6,3.4-9.2-0.1-12.8C75.9,2.5,70.2,2.4,66.7,6
	C63.1,9.5,63.2,15.2,66.8,18.8z"/>
<path id="path5604-2-9_1_" class="st10" d="M66.4,19.2c-3.7-3.7-3.7-9.7,0-13.5c0,0,0,0,0.1-0.1c-3.6,3.7-3.6,9.7,0.1,13.4
	c3.7,3.7,9.7,3.7,13.4,0.1c0,0,0,0-0.1,0.1C76.1,22.9,70.1,22.9,66.4,19.2z M66.7,5.9C66.8,5.9,66.8,5.9,66.7,5.9
	C70.4,2.3,76,2.4,79.6,6c3.6,3.6,3.7,9.2,0.1,12.8l-0.1,0.1c3.5-3.6,3.3-9.2-0.2-12.7C75.9,2.6,70.3,2.4,66.7,5.9z"/>
<path id="path5604-9-13_1_" class="st11" d="M66.7,18.9c3.6,3.6,9.4,3.6,12.9,0c3.6-3.6,3.6-9.4,0-12.9C76,2.4,70.2,2.4,66.7,6
	C63.1,9.5,63.1,15.3,66.7,18.9z"/>
<radialGradient id="path5604-9-1-3_2_" cx="110.7682" cy="411.614" r="6.4258" gradientTransform="matrix(1.0052 1.0052 -1.0052 1.0052 375.542 -512.6622)" gradientUnits="userSpaceOnUse">
	<stop  offset="0" style="stop-color:#D0E9F2;stop-opacity:0"/>
	<stop  offset="0.8393" style="stop-color:#D0E9F2;stop-opacity:0"/>
	<stop  offset="0.9431" style="stop-color:#D0E9F2;stop-opacity:0.2819"/>
	<stop  offset="1" style="stop-color:#D0E9F2"/>
</radialGradient>
<path id="path5604-9-1-3_1_" class="st12" d="M66.7,18.9c3.6,3.6,9.4,3.6,12.9,0c3.6-3.6,3.6-9.4,0-12.9C76,2.4,70.2,2.4,66.7,6
	C63.1,9.5,63.1,15.3,66.7,18.9z"/>
<linearGradient id="path5604-9-1-8-8-1_2_" gradientUnits="userSpaceOnUse" x1="115.431" y1="233.9721" x2="115.8247" y2="232.7417" gradientTransform="matrix(0.9843 0.9843 0.9843 -0.9843 -277.2915 135.6155)">
	<stop  offset="0" style="stop-color:#2D3335"/>
	<stop  offset="0.5" style="stop-color:#4C464A"/>
	<stop  offset="1" style="stop-color:#384042"/>
</linearGradient>
<path id="path5604-9-1-8-8-1_1_" class="st13" d="M65.2,16.5l-0.8,0.6c0.5,0.8,1,1.6,1.7,2.4c0.7,0.7,1.5,1.3,2.4,1.7l0.6-0.8
	c-0.8-0.4-1.6-1-2.2-1.6C66.1,18.1,65.6,17.3,65.2,16.5z"/>
<linearGradient id="rect5757-5_2_" gradientUnits="userSpaceOnUse" x1="-334.1246" y1="231.7849" x2="-332.7578" y2="231.7849" gradientTransform="matrix(-0.9843 -0.9843 0.9843 -0.9843 -491.8655 -78.9585)">
	<stop  offset="0" style="stop-color:#2D3335"/>
	<stop  offset="0.5" style="stop-color:#4C464A"/>
	<stop  offset="1" style="stop-color:#384042"/>
</linearGradient>
<path id="rect5757-5_1_" class="st14" d="M66.4,19.2c0.2,0.2,0.4,0.5,0.6,0.8l-3.6,3.6c-0.3-0.1-0.5-0.3-0.8-0.6
	c-0.2-0.2-0.4-0.5-0.6-0.8l3.6-3.6C65.9,18.8,66.1,19,66.4,19.2z"/>
<linearGradient id="rect5757-8-7-2_2_" gradientUnits="userSpaceOnUse" x1="114.3442" y1="226.7876" x2="116.5319" y2="226.7876" gradientTransform="matrix(0.9843 0.9843 0.9843 -0.9843 -277.2915 135.6155)">
	<stop  offset="0" style="stop-color:#F9E295"/>
	<stop  offset="0.125" style="stop-color:#F7DD84"/>
	<stop  offset="0.2058" style="stop-color:#FFFFFF"/>
	<stop  offset="0.3011" style="stop-color:#F4CE51"/>
	<stop  offset="0.3412" style="stop-color:#F9E7AA"/>
	<stop  offset="1" style="stop-color:#EFBB0E"/>
</linearGradient>
<path id="rect5757-8-7-2_1_" class="st15" d="M65.2,22.5l-9,9c-0.5-0.3-0.8-0.4-1.3-0.9c-0.5-0.5-0.6-0.7-0.9-1.3l9-9
	C63.7,20.9,64.7,21.8,65.2,22.5L65.2,22.5z"/>
<linearGradient id="rect5757-8-6_2_" gradientUnits="userSpaceOnUse" x1="-221.9023" y1="258.6624" x2="-220.5349" y2="258.6624" gradientTransform="matrix(-1.9685 -1.9685 1.7421 -1.7421 -826.8318 41.4628)">
	<stop  offset="0" style="stop-color:#2D3335"/>
	<stop  offset="0.5" style="stop-color:#4C464A"/>
	<stop  offset="1" style="stop-color:#384042"/>
</linearGradient>
<path id="rect5757-8-6_1_" class="st16" d="M56.2,32.1c-0.9-0.7-2-1.7-2.7-2.7l8.8-8.8c0.5,0,1,0.7,1.5,1.2l0,0v0
	c0.5,0.5,1,0.9,1.2,1.5L56.2,32.1"/>
<linearGradient id="rect5757-8-6-3_2_" gradientUnits="userSpaceOnUse" x1="-223.814" y1="256.8337" x2="-220.3961" y2="259.2057" gradientTransform="matrix(-1.9685 -1.9685 1.7421 -1.7421 -826.8318 41.4628)">
	<stop  offset="0" style="stop-color:#000000"/>
	<stop  offset="1" style="stop-color:#000000;stop-opacity:0"/>
</linearGradient>
<path id="rect5757-8-6-3_1_" class="st17" d="M56.2,32.1c-1.1-0.9-1.6-1.5-2.7-2.7l8.8-8.8c0.5,0,1,0.7,1.5,1.2h0l0,0
	c0.5,0.5,1,0.9,1.2,1.5L56.2,32.1"/>
<linearGradient id="path6587_2_" gradientUnits="userSpaceOnUse" x1="68.155" y1="21.3026" x2="75.4447" y2="6.6215" gradientTransform="matrix(1 0 0 -1 0 24)">
	<stop  offset="0" style="stop-color:#FFFFFF"/>
	<stop  offset="1" style="stop-color:#FFFFFF;stop-opacity:0"/>
</linearGradient>
<path id="path6587_1_" class="st18" d="M67.2,5.8c5.6-4.4,10.7-1.7,10.6,0.7c0,2.5-7.7,9.6-10.4,9C64.7,15,64,8.3,67.2,5.8L67.2,5.8
	z"/>
<linearGradient id="path6587-7_2_" gradientUnits="userSpaceOnUse" x1="-636.233" y1="1233.083" x2="-628.9434" y2="1218.4019" gradientTransform="matrix(-0.503 0.1984 -0.1972 0.4325 1.4045 -387.1982)">
	<stop  offset="0" style="stop-color:#FFFFFF"/>
	<stop  offset="1" style="stop-color:#FFFFFF;stop-opacity:0"/>
</linearGradient>
<path id="path6587-7_1_" class="st19" d="M79.3,18.4c-3.7,3-5.7,2.9-5.2,1.8c0.5-1.1,5.8-5.7,7-6C82.4,13.9,81.4,16.7,79.3,18.4z"/>
<g>
	<path d="M71.3,7.3v3.9h4.1V7.3h2.2v10.2h-2.2v-4.4h-4.1v4.4H69V7.3H71.3z"/>
</g>
</svg>
