<?xml version="1.0" encoding="UTF-8" standalone="no"?>
<svg
   xmlns:dc="http://purl.org/dc/elements/1.1/"
   xmlns:cc="http://creativecommons.org/ns#"
   xmlns:rdf="http://www.w3.org/1999/02/22-rdf-syntax-ns#"
   xmlns:svg="http://www.w3.org/2000/svg"
   xmlns="http://www.w3.org/2000/svg"
   width="47.684429mm"
   height="11.256537mm"
   viewBox="0 0 47.68443 11.256537"
   version="1.1"
   id="svg4153">
  <defs
     id="defs4147" />
  <metadata
     id="metadata4150">
    <rdf:RDF>
      <cc:Work
         rdf:about="">
        <dc:format>image/svg+xml</dc:format>
        <dc:type
           rdf:resource="http://purl.org/dc/dcmitype/StillImage" />
        <dc:title></dc:title>
      </cc:Work>
    </rdf:RDF>
  </metadata>
  <g
     transform="matrix(0.119438,0,0,-0.119438,23.46201,6.3803014)"
     id="g4381">
    <path
       id="path4383"
       style="fill:#d73f3f;fill-opacity:1;fill-rule:nonzero;stroke:none"
       d="m 0,0 c 0,-0.817 0.452,-1.426 1.004,-1.812 0.552,-0.391 1.204,-0.596 1.955,-0.596 0.75,0 1.405,0.205 1.956,0.596 0.55,0.386 0.863,0.995 0.863,1.812 v 12.53 c 0,0.82 -0.313,1.428 -0.863,1.815 -0.551,0.388 -1.206,0.649 -1.956,0.649 -0.751,0 -1.403,-0.261 -1.955,-0.649 C 0.452,13.958 0,13.35 0,12.53 Z m -3.958,12.537 c 0,0.952 0.202,1.801 0.604,2.535 0.401,0.735 0.934,1.335 1.593,1.814 0.657,0.477 1.396,0.839 2.219,1.082 0.819,0.242 1.645,0.365 2.478,0.365 0.831,0 1.658,-0.123 2.481,-0.365 0.818,-0.243 1.558,-0.605 2.214,-1.082 0.662,-0.479 1.191,-1.079 1.595,-1.814 0.405,-0.734 0.605,-1.583 0.605,-2.535 V 0.006 c 0,-0.973 -0.2,-1.825 -0.605,-2.547 C 8.822,-3.266 8.293,-3.863 7.631,-4.341 6.975,-4.82 6.235,-5.184 5.417,-5.424 4.594,-5.667 3.767,-5.788 2.936,-5.788 c -0.833,0 -1.659,0.121 -2.478,0.364 -0.823,0.24 -1.562,0.604 -2.219,1.083 -0.659,0.478 -1.192,1.075 -1.593,1.8 -0.402,0.722 -0.604,1.574 -0.604,2.547 z" />
  </g>
  <g
     transform="matrix(0.119438,0,0,-0.119438,22.136703,4.1886027)"
     id="g4385">
    <path
       id="path4387"
       style="fill:#d73f3f;fill-opacity:1;fill-rule:nonzero;stroke:none"
       d="M 0,0 V -10.177 H -6.308 V 0 h -3.449 v -24.159 h 3.449 v 10.18 H 0 v -10.18 H 3.713 V 0 Z" />
  </g>
  <g
     transform="matrix(0.119438,0,0,-0.119438,26.584658,4.1886027)"
     id="g4389">
    <path
       id="path4391"
       style="fill:#d73f3f;fill-opacity:1;fill-rule:nonzero;stroke:none"
       d="m 0,0 h -13.691 v -3.553 h 5.06 L -8.69,-24.159 h 3.64 V -3.553 H 0 Z" />
  </g>
  <g
     id="g201"
     transform="matrix(0.119438,0,0,-0.119438,14.344663,11.275016)">
    <g
       id="g4393"
       transform="translate(77.871,15.804004)">
      <path
         d="M 0,0 C -18.61,0 -33.696,14.043 -33.696,31.364 -33.696,48.69 -18.61,62.732 0,62.732 18.609,62.732 33.696,48.69 33.696,31.364 33.696,14.043 18.609,0 0,0 M 50.003,21.992 H 77.869 L 61.207,40.868 44.619,59.744 28.031,78.564 h -83.347 l 16.588,-18.82 h -27.927 l 16.59,-18.876 0.129,-0.127 H -77.87 L -61.214,21.865 -44.617,2.989 -28.029,-15.832 H 55.318 L 38.721,2.989 38.599,3.171 H 66.53 Z"
         style="fill:#d73f3f;fill-opacity:1;fill-rule:nonzero;stroke:none"
         id="path4395" />
    </g>
  </g>
</svg>
