<?xml version="1.0" encoding="UTF-8" standalone="no"?>
<svg xmlns="http://www.w3.org/2000/svg" width={180.225} height={42.544} viewBox="0 0 47.684 11.257">
   <path style="fill: #d73f3f;fillOpacity: 1;fillRule: nonzero;stroke: none;" d="M0 0c0-.817.452-1.426 1.004-1.812.552-.391 1.204-.596 1.955-.596.75 0 1.405.205 1.956.596.55.386.863.995.863 1.812v12.53c0 .82-.313 1.428-.863 1.815-.551.388-1.206.649-1.956.649-.751 0-1.403-.261-1.955-.649C.452 13.958 0 13.35 0 12.53Zm-3.958 12.537c0 .952.202 1.801.604 2.535a5.423 5.423 0 0 0 1.593 1.814 7.228 7.228 0 0 0 2.219 1.082 8.706 8.706 0 0 0 2.478.365c.831 0 1.658-.123 2.481-.365a7.246 7.246 0 0 0 2.214-1.082 5.429 5.429 0 0 0 1.595-1.814c.405-.734.605-1.583.605-2.535V.006c0-.973-.2-1.825-.605-2.547a5.469 5.469 0 0 0-1.595-1.8 7.136 7.136 0 0 0-2.214-1.083 8.72 8.72 0 0 0-2.481-.364 8.67 8.67 0 0 0-2.478.364 7.12 7.12 0 0 0-2.219 1.083 5.463 5.463 0 0 0-1.593 1.8c-.402.722-.604 1.574-.604 2.547z" transform="matrix(.11944 0 0 -.11944 23.462 6.38)" />
   <path style="fill:#d73f3f;fillOpacity: 1;fillRule: nonzero;stroke: none;" d="M0 0v-10.177h-6.308V0h-3.449v-24.159h3.449v10.18H0v-10.18h3.713V0Z" transform="matrix(.11944 0 0 -.11944 22.137 4.189)" />
   <path style="fill:#d73f3f;fillOpacity: 1;fillRule: nonzero;stroke: none;" d="M0 0h-13.691v-3.553h5.06l-.059-20.606h3.64v20.606H0Z" transform="matrix(.11944 0 0 -.11944 26.585 4.189)" />
   <path d="M0 0c-18.61 0-33.696 14.043-33.696 31.364C-33.696 48.69-18.61 62.732 0 62.732c18.609 0 33.696-14.042 33.696-31.368C33.696 14.043 18.609 0 0 0m50.003 21.992h27.866L61.207 40.868 44.619 59.744l-16.588 18.82h-83.347l16.588-18.82h-27.927l16.59-18.876.129-.127H-77.87l16.656-18.876 16.597-18.876 16.588-18.821h83.347L38.721 2.989l-.122.182H66.53Z" style="fill:#d73f3f;fillOpacity: 1;fillRule: nonzero;stroke: none;" transform="matrix(.11944 0 0 -.11944 23.645 9.387)" />
</svg>
