<?xml version="1.0" encoding="utf-8"?>
<!-- Generator: Adobe Illustrator 19.1.0, SVG Export Plug-In . SVG Version: 6.00 Build 0)  -->
<svg version="1.1" id="Layer_1" xmlns="http://www.w3.org/2000/svg" xmlns:xlink="http://www.w3.org/1999/xlink" x="0px" y="0px"
	 viewBox="0 0 259 195" style="enable-background:new 0 0 259 195;" xml:space="preserve">
<style type="text/css">
	.st0{fill:#DEDEDD;}
	.st1{fill:#848484;}
	.st2{fill:none;stroke:#848484;stroke-width:3;stroke-miterlimit:10;}
	.st3{fill:#A9A8A8;}
	.st4{fill:#C2C1C1;}
	.st5{fill:#EAEAEA;}
	.st6{fill:#F7F8F8;}
	.st7{fill:#CFCFCE;}
	.st8{opacity:0.2;}
	.st9{fill:#010101;}
	.st10{fill:#E6EFC6;}
	.st11{fill:#CFE39C;}
	.st12{fill:#B3D56E;}
	.st13{fill:#C6E7DF;}
	.st14{fill:#94D3D2;}
	.st15{fill:#64C8CB;}
	.st16{fill:#2D2E2D;}
	.st17{fill:none;stroke:#2D2E2D;stroke-width:4;stroke-miterlimit:10;}
	.st18{fill:#E0C53E;}
</style>
<rect x="20.1" y="146" class="st0" width="198.6" height="4"/>
<ellipse class="st0" cx="121.6" cy="148.6" rx="74.1" ry="10.2"/>
<path class="st1" d="M244.2,186.3v3.7c0,0-0.2,5-4.7,5H4.7c-4.5,0-4.7-5-4.7-5v-3.7l0.1-0.6c0.2,1.4,1.2,4.2,4.6,4.2h234.9
	c3.4,0,4.3-2.9,4.6-4.2L244.2,186.3z"/>
<path class="st2" d="M209.2,174c0,0,75.9-13.8,35.1-20.4c-40.8-6.6-93.8-10-93.8-10"/>
<path class="st3" d="M120.9,153.5c0,0-60.9-1.2-53.4-8.2s53.4-7,53.4-7s45.9,0,53.4,7S120.9,153.5,120.9,153.5z"/>
<path class="st1" d="M120.1,117.5c17,0,6.5,26,6.5,26h-10.2C116.4,143.5,104.6,117.5,120.1,117.5z"/>
<g>
	<path class="st4" d="M221.9,5.3L217.2,126h-197L15.6,5.3c0-0.1,0-0.2,0-0.3c0.2-0.9,1.6-5,9.3-5h187.6c7.7,0,9.1,4.1,9.3,5
		C221.9,5.1,221.9,5.2,221.9,5.3z"/>
</g>
<g>
	<path class="st5" d="M207.8,5.2h-47.4c14,33-7.2,66.8-50.8,65.5c-44.4-1.4-66.6,30.3-76,49.9h175.9l4.3-111.3
		C213.8,9.2,214.5,5.2,207.8,5.2z"/>
	<path class="st6" d="M109.6,70.7c43.5,1.4,64.8-32.5,50.8-65.5h-41.7c0,0,0,0,0,0H29.5c-6.7,0-6,4-6,4l4.4,111.3h5.7
		C43.1,101,65.3,69.3,109.6,70.7z"/>
</g>
<g>
	<path class="st7" d="M38.7,154.3H23.8l-16.5,22C30.4,172.7,37,161.7,38.7,154.3z"/>
	<path class="st4" d="M220.7,154.3H38.7c-1.7,7.5-8.3,18.4-31.3,22l-7.1,9.5c0.2,1.4,1.2,4.2,4.6,4.2h234.9c3.4,0,4.3-2.9,4.6-4.2
		L220.7,154.3z"/>
</g>
<polygon class="st1" points="31.1,158.3 14.1,183.3 227.1,183.3 213.1,158.3 "/>
<g>
	<g class="st8">
		<path class="st9" d="M145.6,41.9l28.6-12.5l-9.6-10.7l-20.7,5.4l-0.4,11.8C144,37.9,144.8,39.9,145.6,41.9z"/>
		<polygon class="st9" points="125.3,41 119.8,18.6 118.1,18.2 98.4,26.6 105.9,46.9 		"/>
		<path class="st9" d="M135.4,42.1c1.6-7.4,2.7-14.5,3.4-18.8l-18.9-4.6l5.4,22.4L135.4,42.1z"/>
		<path class="st9" d="M143.8,24.1l-0.9,0.2l-1.1-0.3c-0.2,4.1,0.4,8,1.6,11.8L143.8,24.1z"/>
		<path class="st9" d="M151.4,55.9l14.1-10.5l8.6-16l-28.6,12.5C147.3,46.3,149.5,50.8,151.4,55.9z"/>
		<path class="st9" d="M130.1,60c2.1-5.1,3.9-11.6,5.3-17.9L125.3,41l0.2,19.4L130.1,60z"/>
		<polygon class="st9" points="125.3,41 105.9,46.9 103.8,66 125.5,60.4 		"/>
		<path class="st9" d="M125.5,60.4l2.2,4.5c0.9-1.4,1.7-3.1,2.5-4.9L125.5,60.4z"/>
		<path class="st9" d="M127.6,64.9l-2.2-4.5L103.8,66l1.8,6.7c5.8-2.2,11.4-3.1,14.9-2.7C123.2,70.3,125.6,68.3,127.6,64.9z"/>
		<path class="st9" d="M98.4,26.6l-0.5,0.2l-22.4-3c0,0,10,12.4,12.8,22.4l17.6,0.7L98.4,26.6z"/>
		<path class="st9" d="M132.8,88.2l-0.2,9.7l0.7-0.3l14.5,9.5l2.1-19.1C145.5,89.4,139.4,89.1,132.8,88.2z"/>
		<path class="st9" d="M149.9,88l-2.1,19.1L172.1,95l5.4-18.9l-22,7.5C154.4,85.7,152.4,87.1,149.9,88z"/>
		<path class="st9" d="M165.6,45.4l-14.1,10.5c2,5.2,3.9,11.1,5,18c0.7,4.2,0.3,7.4-0.9,9.6l22-7.5l0.2-0.6L165.6,45.4z"/>
		<path class="st9" d="M108.3,84.7l0.5,23.5l23.8-10.3l0.2-9.7C124.5,87.1,115.5,85.1,108.3,84.7z"/>
		<path class="st9" d="M105.9,46.9l-17.6-0.7c0.6,2.2,0.9,4.4,0.6,6.2c-1.4,8.5-7.8,16-9.7,18.1l24.7-4.6L105.9,46.9z"/>
		<path class="st9" d="M101.8,84.9c-13.2,2.3-9.7,15.1-7.4,20.8l13.9,2.7l0.5-0.2l-0.5-23.5C105.9,84.5,103.7,84.6,101.8,84.9z"/>
		<path class="st9" d="M89.3,83.8l-4,0.3l0.2,0.3l-6.5,18.2l8.2,1.6C83.2,96,84.9,89.2,89.3,83.8z"/>
		<path class="st9" d="M105.7,72.7l-1.8-6.7l-24.7,4.6c-0.3,0.4-0.5,0.6-0.5,0.6l6.6,12.9l4-0.3C93.3,78.8,99.5,75.1,105.7,72.7z"/>
		<path class="st9" d="M143.4,35.9l-0.2,7.1l2.4-1C144.8,39.9,144,37.9,143.4,35.9z"/>
		<path class="st9" d="M143.2,43l0.2-7.1c-1.1-3.8-1.8-7.7-1.6-11.8l-3.1-0.8c-0.6,4.3-1.7,11.4-3.4,18.8L143.2,43z"/>
		<path class="st9" d="M143.2,43l5,15.4l3.3-2.4c-2-5.1-4.1-9.6-5.8-14L143.2,43z"/>
		<path class="st9" d="M148.1,58.3l-5-15.4l-7.8-0.8c-1.4,6.3-3.1,12.7-5.3,17.9L148.1,58.3z"/>
		<path class="st9" d="M127.6,64.9l5.5,11.4l17.1,9.1l-2.1-27L130.1,60C129.3,61.8,128.5,63.5,127.6,64.9z"/>
		<path class="st9" d="M127.6,64.9c-2.1,3.4-4.4,5.4-7,5.1c-3.5-0.4-9.2,0.5-14.9,2.7l2.6,9.6l24.8-6L127.6,64.9z"/>
		<path class="st9" d="M133.1,76.3l-0.3,11.9c6.6,0.9,12.7,1.2,17.1-0.2l0.3-2.6L133.1,76.3z"/>
		<path class="st9" d="M149.9,88c2.5-0.8,4.4-2.2,5.6-4.4l-5.3,1.8L149.9,88z"/>
		<path class="st9" d="M150.2,85.4l5.3-1.8c1.2-2.3,1.6-5.4,0.9-9.6c-1.1-6.9-3-12.8-5-18l-3.3,2.4L150.2,85.4z"/>
		<path class="st9" d="M108.3,82.4l0,2.3c7.2,0.4,16.2,2.4,24.5,3.5l0.3-11.9L108.3,82.4z"/>
		<path class="st9" d="M101.8,84.9c1.9-0.3,4.1-0.4,6.6-0.3l0-2.3l-19,1.4c-4.3,5.4-6,12.2-2.2,20.5l7.3,1.4
			C92.1,100,88.5,87.3,101.8,84.9z"/>
		<path class="st9" d="M89.3,83.8l19-1.4l-2.6-9.6C99.5,75.1,93.3,78.8,89.3,83.8z"/>
	</g>
	<g>
		<g>
			<path class="st10" d="M143.9,42.1l26.7-11.7l-9-10l-19.4,5l-0.4,11C142.5,38.3,143.2,40.2,143.9,42.1z"/>
			<polygon class="st10" points="124.9,41.3 119.8,20.3 118.2,19.9 99.7,27.8 106.8,46.8 			"/>
			<path class="st11" d="M134.4,42.3c1.5-6.9,2.6-13.6,3.1-17.6l-17.7-4.3l5.1,20.9L134.4,42.3z"/>
			<path class="st11" d="M142.3,25.5l-0.8,0.2l-1-0.3c-0.2,3.9,0.4,7.5,1.5,11L142.3,25.5z"/>
			<path class="st11" d="M149.4,55.2l13.2-9.8l8-14.9l-26.7,11.7C145.6,46.2,147.6,50.4,149.4,55.2z"/>
			<path class="st10" d="M129.4,59c2-4.8,3.7-10.9,5-16.7l-9.5-1l0.2,18.2L129.4,59z"/>
			<polygon class="st11" points="124.9,41.3 106.8,46.8 104.9,64.7 125.1,59.4 			"/>
			<path class="st11" d="M125.1,59.4l2,4.2c0.8-1.3,1.6-2.9,2.3-4.6L125.1,59.4z"/>
			<path class="st10" d="M127.1,63.7l-2-4.2l-20.2,5.2l1.7,6.3c5.4-2,10.7-2.9,14-2.5C123,68.7,125.2,66.8,127.1,63.7z"/>
			<path class="st11" d="M99.7,27.8L99.3,28l-20.9-2.8c0,0,9.3,11.6,11.9,21l16.5,0.6L99.7,27.8z"/>
			<path class="st11" d="M132,85.4l-0.2,9.1l0.7-0.3l13.6,8.9l1.9-17.9C143.9,86.6,138.1,86.3,132,85.4z"/>
			<path class="st12" d="M148,85.2l-1.9,17.9l22.7-11.3l5.1-17.7l-20.6,7C152.1,83.1,150.3,84.4,148,85.2z"/>
			<path class="st10" d="M162.6,45.4l-13.2,9.8c1.9,4.9,3.6,10.4,4.7,16.9c0.6,4,0.3,6.9-0.9,9l20.6-7l0.2-0.6L162.6,45.4z"/>
			<path class="st10" d="M109.1,82.1l0.5,22l22.3-9.7l0.2-9.1C124.2,84.4,115.8,82.5,109.1,82.1z"/>
			<path class="st10" d="M106.8,46.8l-16.5-0.6c0.6,2.1,0.8,4.1,0.5,5.8c-1.3,7.9-7.3,15-9.1,17l23.1-4.3L106.8,46.8z"/>
			<path class="st10" d="M102.9,82.4c-12.4,2.2-9.1,14.1-6.9,19.4l13,2.6l0.5-0.2l-0.5-22C106.8,82,104.7,82.1,102.9,82.4z"/>
			<path class="st10" d="M91.2,81.3l-3.7,0.3l0.2,0.3l-6.1,17.1l7.6,1.5C85.6,92.7,87.2,86.3,91.2,81.3z"/>
			<path class="st11" d="M106.6,71l-1.7-6.3L81.8,69c-0.3,0.4-0.5,0.5-0.5,0.5l6.2,12.1l3.7-0.3C95,76.6,100.9,73.1,106.6,71z"/>
			<path class="st13" d="M141.9,36.5l-0.2,6.6l2.2-1C143.2,40.2,142.5,38.3,141.9,36.5z"/>
			<path class="st14" d="M141.7,43.1l0.2-6.6c-1.1-3.6-1.7-7.2-1.5-11l-2.9-0.7c-0.6,4-1.6,10.7-3.1,17.6L141.7,43.1z"/>
			<path class="st14" d="M141.7,43.1l4.6,14.4l3.1-2.3c-1.8-4.8-3.8-9-5.5-13.1L141.7,43.1z"/>
			<path class="st13" d="M146.3,57.5l-4.6-14.4l-7.3-0.8c-1.3,5.9-2.9,11.9-5,16.7L146.3,57.5z"/>
			<path class="st14" d="M127.1,63.7l5.1,10.6l16,8.5l-1.9-25.3L129.4,59C128.7,60.8,127.9,62.3,127.1,63.7z"/>
			<path class="st13" d="M127.1,63.7c-1.9,3.2-4.1,5-6.6,4.8c-3.3-0.4-8.6,0.5-14,2.5l2.5,9l23.2-5.7L127.1,63.7z"/>
			<path class="st14" d="M132.2,74.3L132,85.4c6.1,0.8,11.9,1.1,16-0.2l0.3-2.4L132.2,74.3z"/>
			<path class="st15" d="M148,85.2c2.3-0.8,4.1-2.1,5.2-4.1l-5,1.7L148,85.2z"/>
			<path class="st13" d="M148.3,82.8l5-1.7c1.1-2.1,1.5-5,0.9-9c-1.1-6.5-2.8-12-4.7-16.9l-3.1,2.3L148.3,82.8z"/>
			<path class="st13" d="M109,80l0,2.2c6.7,0.4,15.1,2.2,22.9,3.3l0.2-11.1L109,80z"/>
			<path class="st13" d="M102.9,82.4c1.8-0.3,3.9-0.4,6.1-0.2l0-2.2l-17.8,1.3c-4,5-5.6,11.4-2.1,19.1l6.9,1.4
				C93.9,96.5,90.5,84.5,102.9,82.4z"/>
			<path class="st14" d="M91.2,81.3L109,80l-2.5-9C100.9,73.1,95,76.6,91.2,81.3z"/>
		</g>
		<g>
			<path class="st16" d="M91,75.2l7.9-3.7c0,0-0.5-1.6-0.9-2.8c-0.4-1.2-0.3-2.4-0.3-2.4l2-0.7c0,0,0.6,3.4,1.9,6.1
				c1.3,2.7,4.6,6.7,4.6,6.7l-2.1,1.3c0,0-1.3-1.6-2.1-2.7s-1.3-1.7-1.3-1.7l-7.6,4C93.2,79.3,88.9,79.6,91,75.2z"/>
			<circle class="st17" cx="123.6" cy="62.4" r="23.1"/>
		</g>
		<g>
			<path class="st16" d="M87.5,74.5L59,88.5l3.8,8.9L93.4,82C91.9,77.4,88.7,75.2,87.5,74.5z"/>
			<path class="st18" d="M94.1,76.9c-2.7-4-3.7-3.9-3.7-3.9l-3,1.5c1.2,0.7,4.4,2.9,6,7.6l1.9-0.9C95.3,81.1,96.8,80.9,94.1,76.9z"
				/>
		</g>
	</g>
</g>
</svg>
