<?xml version="1.0" encoding="UTF-8" standalone="no"?>
<svg
   xmlns:dc="http://purl.org/dc/elements/1.1/"
   xmlns:cc="http://creativecommons.org/ns#"
   xmlns:rdf="http://www.w3.org/1999/02/22-rdf-syntax-ns#"
   xmlns:svg="http://www.w3.org/2000/svg"
   xmlns="http://www.w3.org/2000/svg"
   width="47.684429mm"
   height="11.256537mm"
   viewBox="0 0 47.68443 11.256537"
   version="1.1"
   id="svg4153">
  <defs
     id="defs4147" />
  <metadata
     id="metadata4150">
    <rdf:RDF>
      <cc:Work
         rdf:about="">
        <dc:format>image/svg+xml</dc:format>
        <dc:type
           rdf:resource="http://purl.org/dc/dcmitype/StillImage" />
        <dc:title></dc:title>
      </cc:Work>
    </rdf:RDF>
  </metadata>
  <path
     id="path3205"
     d="M 28.721244,0 A 4.0286912,4.0286912 0 0 0 24.69255,4.0286946 4.0286912,4.0286912 0 0 0 25.605156,6.5784099 L 24.471375,7.7121911 24.252267,7.4930827 21.365105,10.380245 22.241537,11.256678 25.128699,8.3695151 24.909591,8.1504072 26.035104,7.0248943 A 4.0286912,4.0286912 0 0 0 28.721244,8.0573895 4.0286912,4.0286912 0 0 0 32.749941,4.0286946 4.0286912,4.0286912 0 0 0 28.721244,0 Z m 0,1.3492717 a 2.6794392,2.6794392 0 0 1 2.679425,2.6794229 2.6794392,2.6794392 0 0 1 -2.679425,2.6794233 2.6794392,2.6794392 0 0 1 -2.679422,-2.6794233 2.6794392,2.6794392 0 0 1 2.679422,-2.6794229 z"
     style="color:#000000;display:inline;overflow:visible;visibility:visible;fill:#333333;fill-opacity:1;fill-rule:nonzero;stroke:none;stroke-width:0.0378697;marker:none;enable-background:accumulate" />
  <path
     d="M 3.1802648e-6,0.28394821 H 0.80259512 V 7.1336869 H 3.1802648e-6 Z"
     style="font-style:normal;font-variant:normal;font-weight:normal;font-stretch:normal;font-size:40px;line-height:1.25;font-family:'Source Sans Pro';-inkscape-font-specification:'Source Sans Pro';letter-spacing:0px;word-spacing:0px;fill:#333333;fill-opacity:1;stroke:none;stroke-width:0.22435753"
     id="path79" />
  <path
     d="M 6.6562825,4.4659867 V 4.8621798 H 2.9661038 q 0.052342,0.8364077 0.4972575,1.2766223 0.4492773,0.4358125 1.2475076,0.4358125 0.4623622,0 0.8941929,-0.1144559 Q 6.041252,6.345703 6.4687189,6.1167914 V 6.8827647 Q 6.0368904,7.0676549 5.5832514,7.164502 5.1296125,7.2613493 4.6628887,7.2613493 3.493895,7.2613493 2.8090738,6.5746146 2.1286166,5.8878799 2.1286166,4.716909 q 0,-1.21059 0.6455619,-1.9193355 0.6499259,-0.7131476 1.749129,-0.7131476 0.9857917,0 1.5572014,0.6427133 0.5757736,0.6383111 0.5757736,1.7388475 z M 5.8536906,4.2282708 Q 5.8449584,3.5635468 5.4829272,3.1673537 5.1252509,2.7711606 4.5320307,2.7711606 q -0.6717339,0 -1.0773927,0.3829867 Q 3.053341,3.537134 2.9922758,4.232673 Z"
     style="font-style:normal;font-variant:normal;font-weight:normal;font-stretch:normal;font-size:40px;line-height:1.25;font-family:'Source Sans Pro';-inkscape-font-specification:'Source Sans Pro';letter-spacing:0px;word-spacing:0px;fill:#333333;fill-opacity:1;stroke:none;stroke-width:0.22435753"
     id="path81" />
  <path
     d="m 10.193793,4.655279 q -0.9727069,0 -1.347832,0.2245094 -0.3751228,0.2245094 -0.3751228,0.7659734 0,0.4314102 0.2791624,0.6867347 0.2835241,0.2509223 0.7676966,0.2509223 0.6673728,0 1.0686668,-0.4754318 0.405659,-0.4798338 0.405659,-1.27222 V 4.655279 Z m 1.600822,-0.3345631 v 2.812971 H 10.992023 V 6.3853223 q -0.274801,0.4490187 -0.684821,0.664724 -0.4100181,0.211303 -1.0032382,0.211303 -0.7502501,0 -1.1951658,-0.422606 Q 7.6682463,6.411735 7.6682463,5.6985875 7.6682463,4.866582 8.2178456,4.443976 8.7718088,4.02137 9.8666503,4.02137 H 10.992023 V 3.942131 q 0,-0.5590725 -0.366402,-0.8628206 -0.362038,-0.3081502 -1.0206866,-0.3081502 -0.4187436,0 -0.8156769,0.1012494 -0.3969354,0.1012493 -0.763335,0.303748 V 2.4277932 q 0.4405541,-0.1716836 0.8549338,-0.2553244 0.414382,-0.088043 0.8069558,-0.088043 1.0599439,0 1.5833739,0.5546703 0.523429,0.5546704 0.523429,1.6816198 z"
     style="font-style:normal;font-variant:normal;font-weight:normal;font-stretch:normal;font-size:40px;line-height:1.25;font-family:'Source Sans Pro';-inkscape-font-specification:'Source Sans Pro';letter-spacing:0px;word-spacing:0px;fill:#333333;fill-opacity:1;stroke:none;stroke-width:0.22435753"
     id="path83" />
  <path
     d="m 16.283024,2.9604529 q -0.135219,-0.079239 -0.296611,-0.1144558 -0.157028,-0.039619 -0.348953,-0.039619 -0.680457,0 -1.046859,0.4490188 -0.362038,0.4446168 -0.362038,1.2810244 V 7.1336869 H 13.421609 V 2.2032838 h 0.806954 v 0.7659734 q 0.25299,-0.4490189 0.658649,-0.664724 0.405657,-0.2201073 0.985792,-0.2201073 0.08287,0 0.1832,0.013207 0.100324,0.0088 0.222456,0.030815 z"
     style="font-style:normal;font-variant:normal;font-weight:normal;font-stretch:normal;font-size:40px;line-height:1.25;font-family:'Source Sans Pro';-inkscape-font-specification:'Source Sans Pro';letter-spacing:0px;word-spacing:0px;fill:#333333;fill-opacity:1;stroke:none;stroke-width:0.22435753"
     id="path85" />
  <path
     d="M 21.037508,4.1578365 V 7.1336869 H 20.234916 V 4.1842494 q 0,-0.6999412 -0.270439,-1.0477107 -0.270439,-0.3477695 -0.811315,-0.3477695 -0.649926,0 -1.025051,0.4182038 -0.375123,0.4182039 -0.375123,1.1401558 V 7.1336869 H 16.946035 V 2.2032838 h 0.806953 v 0.7659734 q 0.287886,-0.4446168 0.676096,-0.664724 0.392572,-0.2201073 0.902916,-0.2201073 0.841849,0 1.273678,0.5282575 0.43183,0.5238553 0.43183,1.5451531 z"
     style="font-style:normal;font-variant:normal;font-weight:normal;font-stretch:normal;font-size:40px;line-height:1.25;font-family:'Source Sans Pro';-inkscape-font-specification:'Source Sans Pro';letter-spacing:0px;word-spacing:0px;fill:#333333;fill-opacity:1;stroke:none;stroke-width:0.22435753"
     id="path87" />
  <path
     d="M 38.533139,0.76818435 V 2.1592624 Q 37.996625,1.9171443 37.48628,1.7938843 36.975938,1.6706242 36.522299,1.6706242 q -0.601946,0 -0.889831,0.1672815 -0.287886,0.1672816 -0.287886,0.5194532 0,0.2641288 0.191923,0.4138017 0.196287,0.1452708 0.706632,0.2509223 l 0.715352,0.1452708 q 1.086116,0.2201073 1.544117,0.6691262 0.458,0.4490188 0.458,1.2766222 0,1.0873299 -0.6412,1.6199897 -0.636839,0.5282575 -1.949775,0.5282575 -0.619392,0 -1.243144,-0.118858 -0.623754,-0.118858 -1.247508,-0.3521716 V 5.3596224 q 0.623754,0.334563 1.203887,0.5062466 0.584497,0.1672816 1.125375,0.1672816 0.5496,0 0.841849,-0.1848902 0.292247,-0.18489 0.292247,-0.5282575 0,-0.3081501 -0.200648,-0.4754317 Q 36.945404,4.6772897 36.352184,4.5452253 L 35.702258,4.3999545 Q 34.72519,4.1886515 34.271551,3.7264262 33.822274,3.2642009 33.822274,2.480619 q 0,-0.9816785 0.628115,-1.50993597 0.628116,-0.52825758 1.805833,-0.52825758 0.536514,0 1.103564,0.0836408 0.567048,0.0792387 1.173353,0.2421181 z"
     style="font-style:normal;font-variant:normal;font-weight:bold;font-stretch:normal;font-size:40px;line-height:0.01%;font-family:'Source Sans Pro';-inkscape-font-specification:'Source Sans Pro Bold';letter-spacing:0px;word-spacing:0px;fill:#333333;fill-opacity:1;stroke:none;stroke-width:0.22435753"
     id="path89" />
  <path
     d="m 40.439296,0.56128344 h 2.137337 l 1.483051,3.51731446 1.491773,-3.51731446 h 2.132975 V 7.1336869 H 46.096697 V 2.3265439 L 44.596199,5.8702713 H 43.531891 L 42.031393,2.3265439 v 4.807143 h -1.592097 z"
     style="font-style:normal;font-variant:normal;font-weight:bold;font-stretch:normal;font-size:40px;line-height:0.01%;font-family:'Source Sans Pro';-inkscape-font-specification:'Source Sans Pro Bold';letter-spacing:0px;word-spacing:0px;fill:#333333;fill-opacity:1;stroke:none;stroke-width:0.22435753"
     id="path91" />
</svg>
