<?xml version="1.0" encoding="UTF-8" standalone="no"?>
<svg xmlns="http://www.w3.org/2000/svg" width={180.225} height={42.544} viewBox="0 0 47.684 11.257">
   <path d="M28.721 0a4.029 4.029 0 0 0-4.028 4.029 4.029 4.029 0 0 0 .912 2.55l-1.134 1.133-.219-.219-2.887 2.887.877.877 2.887-2.887-.22-.22 1.126-1.125a4.029 4.029 0 0 0 2.686 1.032A4.029 4.029 0 0 0 32.75 4.03 4.029 4.029 0 0 0 28.72 0Zm0 1.35a2.68 2.68 0 0 1 2.68 2.679 2.68 2.68 0 0 1-2.68 2.68 2.68 2.68 0 0 1-2.68-2.68 2.68 2.68 0 0 1 2.68-2.68z" style="color: #000;display: inline;overflow: visible;visibility: visible;fill: #333;fillOpacity: 1;fillRule: nonzero;stroke: none;strokeWidth: 0.0378697;marker: none;enableBackground: accumulate;" />
   <path d="M0 .284h.803v6.85H0ZM6.656 4.466v.396h-3.69q.052.837.497 1.277.45.436 1.248.436.462 0 .894-.115.436-.114.864-.343v.766q-.432.185-.886.282-.453.096-.92.096-1.17 0-1.854-.686-.68-.687-.68-1.858 0-1.21.645-1.92.65-.713 1.75-.713.985 0 1.557.643.575.638.575 1.739zm-.802-.238q-.009-.664-.371-1.06-.358-.397-.951-.397-.672 0-1.077.383-.402.383-.463 1.079ZM10.194 4.655q-.973 0-1.348.225-.375.224-.375.766 0 .431.279.686.284.251.768.251.667 0 1.068-.475.406-.48.406-1.272v-.18Zm1.6-.334v2.813h-.802v-.749q-.275.45-.685.665-.41.211-1.003.211-.75 0-1.195-.422-.44-.427-.44-1.14 0-.832.549-1.255.554-.423 1.649-.423h1.125v-.079q0-.559-.366-.863-.362-.308-1.021-.308-.419 0-.816.101-.397.102-.763.304v-.748q.44-.172.855-.256.414-.088.807-.088 1.06 0 1.583.555.524.555.524 1.682zM16.283 2.96q-.135-.079-.297-.114-.157-.04-.349-.04-.68 0-1.046.45-.362.444-.362 1.28v2.598h-.807v-4.93h.807v.765q.253-.449.658-.664.406-.22.986-.22.083 0 .183.013.1.008.223.03zM21.038 4.158v2.976h-.803v-2.95q0-.7-.27-1.047-.271-.348-.812-.348-.65 0-1.025.418-.375.418-.375 1.14v2.787h-.807v-4.93h.807v.765q.288-.444.676-.664.393-.22.903-.22.842 0 1.274.528.432.524.432 1.545z" style="fontStyle: normal;fontVariant: normal;fontWeight: 400;fontStretch: normal;fontSize: 40;lineHeight: 1.25;fontFamily: 'Source Sans Pro';InkscapeFontSpecification: 'Source Sans Pro';letterSpacing: 0;wordSpacing: 0;fill: #333;fillOpacity: 1;stroke: none;strokeWidth: 0.22435753;" />
   <path d="M38.533.768V2.16q-.536-.242-1.047-.365-.51-.123-.964-.123-.602 0-.89.167-.287.167-.287.52 0 .263.192.413.196.145.706.251l.715.145q1.087.22 1.545.67.458.448.458 1.276 0 1.087-.642 1.62-.636.528-1.95.528-.619 0-1.243-.119-.623-.118-1.247-.352V5.36q.624.334 1.204.506.584.167 1.125.167.55 0 .842-.185.292-.185.292-.528 0-.308-.2-.475-.197-.168-.79-.3l-.65-.145q-.977-.211-1.43-.674-.45-.462-.45-1.245 0-.982.628-1.51.629-.529 1.806-.529.537 0 1.104.084.567.08 1.173.242zM40.44.561h2.137L44.06 4.08 45.55.56h2.133v6.573h-1.587V2.327l-1.5 3.543h-1.065l-1.5-3.543v4.807h-1.593z" style="fontStyle: normal;fontVariant: normal;fontWeight: 700;fontStretch: normal;fontSize: 40;lineHeight: .01%;fontFamily: 'Source Sans Pro';InkscapeFontSpecification: 'Source Sans Pro Bold';letterSpacing: 0;wordSpacing: 0;fill: #333;fillOpacity: 1;stroke: none;strokeWidth: 0.22435753;" />
</svg>