<?xml version="1.0" encoding="utf-8"?>
<!-- Generator: Adobe Illustrator 24.0.3, SVG Export Plug-In . SVG Version: 6.00 Build 0)  -->
<svg version="1.1"
	 id="Layer_1" xmlns:cc="http://creativecommons.org/ns#" xmlns:dc="http://purl.org/dc/elements/1.1/" xmlns:inkscape="http://www.inkscape.org/namespaces/inkscape" xmlns:rdf="http://www.w3.org/1999/02/22-rdf-syntax-ns#" xmlns:sodipodi="http://sodipodi.sourceforge.net/DTD/sodipodi-0.dtd" xmlns:svg="http://www.w3.org/2000/svg"
	 xmlns="http://www.w3.org/2000/svg" xmlns:xlink="http://www.w3.org/1999/xlink" x="0px" y="0px" viewBox="0 0 250 47"
	 style="enable-background:new 0 0 250 47;" xml:space="preserve">
<style type="text/css">
	.st0{fill:#4F4444;}
	.st1{opacity:0.5044;}
	.st2{fill:#B1E479;}
	.st3{fill:#87D531;}
	.st4{fill:#CEEEAB;}
	.st5{fill:#B9E787;}
	.st6{opacity:0.5217;}
	.st7{fill:#83D32B;}
	.st8{fill:#A4DF62;}
	.st9{fill:url(#rect5757-8-7-7-9_2_);}
	.st10{fill:#2D3335;}
	.st11{fill:#9EAAAC;}
	.st12{fill:#D0E9F2;fill-opacity:0.4759;}
	.st13{fill:url(#path5604-9-1-3_2_);}
	.st14{fill:url(#path5604-9-1-8-8-1_2_);}
	.st15{fill:url(#rect5757-5_2_);}
	.st16{fill:url(#rect5757-8-7-2_2_);}
	.st17{fill:url(#rect5757-8-6_2_);}
	.st18{opacity:0.5957;fill:url(#rect5757-8-6-3_2_);enable-background:new    ;}
	.st19{opacity:0.6043;fill:url(#path6587_2_);enable-background:new    ;}
	.st20{opacity:0.7652;fill:url(#path6587-7_2_);enable-background:new    ;}
</style>
<sodipodi:namedview  bordercolor="#666666" borderopacity="1" gridtolerance="10" guidetolerance="10" id="namedview4717" inkscape:current-layer="text4692" inkscape:cx="100.89752" inkscape:cy="9.6659336" inkscape:pagecheckerboard="false" inkscape:pageopacity="0" inkscape:pageshadow="2" inkscape:window-height="939" inkscape:window-maximized="0" inkscape:window-width="1577" inkscape:window-x="62" inkscape:window-y="23" inkscape:zoom="3.0348682" objecttolerance="10" pagecolor="#ffffff" showgrid="true">
	<inkscape:grid  id="grid5447" type="xygrid"></inkscape:grid>
</sodipodi:namedview>
<g id="text4692">
	<path id="path886" class="st0" d="M96.7,18h-9.1v2.1h3.1V30h2.8v-9.8h3.2V18z"/>
	<path id="path888" class="st0" d="M101.5,21.2L101.5,21.2l1.3,4.3h-2.5L101.5,21.2z M104,30h2.8L103,18h-3L96.1,30h2.8l0.7-2.3h3.8
		L104,30z"/>
	<path id="path890" class="st0" d="M112.3,28.1c-1.5,0-2.2-0.5-2.2-1.9h-2.7l0,0c-0.1,2.6,2.2,4,5,4c2.7,0,4.5-1.2,4.5-3.4
		c0-2.1-1.4-3.1-4.1-3.9c-1.8-0.6-2.3-0.9-2.3-1.6c0-0.7,0.7-1.3,1.8-1.3c1.1,0,1.8,0.6,1.8,1.6h2.7l0-0.1c0.1-2.2-1.8-3.6-4.5-3.6
		c-2.7,0-4.6,1.3-4.6,3.4c0,2.1,1.4,2.9,4.4,3.9c1.4,0.5,1.9,0.9,1.9,1.7C114,27.6,113.5,28.1,112.3,28.1L112.3,28.1z"/>
	<path id="path892" class="st0" d="M125,30h3.4l-4-6.5l3.7-5.4h-3.4l-2.6,4.7h-0.9V18h-2.8V30h2.8v-4.8h1.3L125,30z"/>
	<path id="path894" class="st0" d="M132.1,18h-2.8V30h2.8V18z"/>
	<path id="path896" class="st0" d="M144.2,18h-2.8v7.6l-0.1,0L137,18h-2.8V30h2.8v-7.6l0,0l4.4,7.6h2.8V18z"/>
	<path id="path898" class="st0" d="M155.5,23.9h-4.7v1.8h1.9v1.9c-0.3,0.3-0.9,0.5-1.9,0.5c-1.4,0-2.2-1.1-2.2-2.8v-2.5
		c0-1.6,0.8-2.7,2.1-2.7c1.3,0,1.9,0.6,2.1,1.9h2.6l0-0.1c-0.2-2.5-1.7-4-4.8-4c-2.8,0-4.8,2-4.8,4.9v2.5c0,2.9,2,4.9,5,4.9
		c2.3,0,3.8-0.9,4.7-1.8L155.5,23.9z"/>
	<path id="path900" class="st0" d="M161.9,18V30h2.8v-3l-0.3-5.4l0,0l2.9,8.3h1.9l2.9-8.4l0,0l-0.3,5.5v3h2.8V18H171l-2.7,8.4h0
		l-2.7-8.4H161.9z"/>
	<path id="path902" class="st0" d="M181,21.2L181,21.2l1.3,4.3h-2.5L181,21.2z M183.6,30h2.8L182.5,18h-3L175.6,30h2.8l0.7-2.3h3.8
		L183.6,30z"/>
	<path id="path904" class="st0" d="M197.2,18h-2.8v7.6l-0.1,0L190,18h-2.8V30h2.8v-7.6l0,0l4.4,7.6h2.8L197.2,18z"/>
	<path id="path906" class="st0" d="M203.5,21.2L203.5,21.2l1.3,4.3h-2.5L203.5,21.2z M206.1,30h2.8L205,18h-3L198.2,30h2.8l0.7-2.3
		h3.8L206.1,30z"/>
	<path id="path908" class="st0" d="M219.2,23.9h-4.7v1.8h1.9v1.9c-0.3,0.3-0.9,0.5-1.9,0.5c-1.4,0-2.2-1.1-2.2-2.8v-2.5
		c0-1.6,0.8-2.7,2.1-2.7c1.3,0,1.9,0.6,2.1,1.9h2.6l0-0.1c-0.2-2.5-1.7-4-4.8-4c-2.8,0-4.8,2-4.8,4.9v2.5c0,2.9,2,4.9,5,4.9
		c2.3,0,3.8-0.9,4.7-1.8L219.2,23.9z"/>
	<path id="path910" class="st0" d="M228.3,22.7h-4.7v-2.6h5.5V18h-8.3V30h8.3v-2.1h-5.5v-3h4.7V22.7z"/>
	<path id="path912" class="st0" d="M233.2,20.2h1.8c1.1,0,1.7,0.6,1.7,1.6c0,1-0.6,1.5-1.7,1.5h-1.8L233.2,20.2z M235.1,25.4
		c1.2,0,1.8,0.6,1.8,1.8v0.7c0,0.7,0.1,1.8,0.5,2.1h2.9v-0.2c-0.5-0.3-0.6-1.3-0.6-1.9v-0.7c0-1.4-0.6-2.4-2.1-2.9
		c1.3-0.6,1.9-1.4,1.9-2.7c0-2.2-1.7-3.6-4.5-3.6h-4.6V30h2.8v-4.6L235.1,25.4z"/>
</g>
<g id="layer1" transform="translate(0,192)">
	<g id="g4199" transform="translate(0,320)" class="st1">
		<path id="path3834-4" class="st2" d="M62.4-510c0,0-4.6,1.7-6,2c-1.4,0.3-4,1-4,1s-1.8-0.8-4.1-1.6c-2.3-0.8-5.6-1-5.6-1
			s-0.6,0.7-4.1,1.5c-3.5,0.8-5.2,1.1-5.2,1.1s-3.5-1.7-5.9-2.2s-4.5-0.4-4.7-0.3c0,0,1.4,2.4,2.2,5.2s1.2,4.8,1.2,4.8l9.7,1
			l9.2-0.8l9.8,2.3c2-0.8,9.8-0.9,10.4-2.5c0,0-0.9-2.9-1.4-5.6C63.4-507.9,62.4-510,62.4-510z"/>
		<path id="path3834-7-2" class="st3" d="M26.2-499.5c0,0-1,2.4-1.6,4.7c-0.5,2.3-1.1,4.3-1.1,4.3l9.6,3.1l10.1-3l9.8,3.3
			c3.1-0.8,6.1-1.7,9-2.9c0,0,0.3-2,1.3-4.5c0.9-2.5,1.9-5,1.9-5c-0.6,1.6-8.5,1.6-10.4,2.5l-9.8-2.3l-9,0.8L26.2-499.5z"/>
		<path id="path3834-7-26" class="st4" d="M64.7-480.7c-3.4,1.4-6.8,2.8-10.2,4l-9.8-3.5l-9.5,1.7l-9.2-1.9c0,0-0.8,1.9-1.4,4.6
			c-0.7,2.6-0.9,5.8-0.9,5.8s1.7-0.4,5.4,0.2s6.1,1.1,6.1,1.1s2.4-0.5,4.5-1.2c2.1-0.7,3.1-1.2,3.1-1.2s1,0.1,4.2,1.2
			c3.2,1.1,5.5,1.6,5.5,1.6s2.4-0.5,4.9-1.1c2.4-0.6,5-1.5,5-1.5s-0.1-0.9,0.8-4.6C64-479.1,64.7-480.7,64.7-480.7z"/>
		<path id="path3834-7-26-0" class="st5" d="M23.6-490.5c0,0,1.1,3,1.7,5.6c0.7,2.6,0.7,4.6,0.7,4.6l9.2,1.9l9.5-1.7l9.8,3.5
			c3.5-1.2,6.9-2.6,10.2-4c0,0-0.1-0.8-0.7-3.7c-0.6-2.9-1.9-5.6-1.9-5.6c-2.9,1.2-6,2.1-9,2.9l-9.8-3.3l-10.1,3
			C33.2-487.5,23.6-490.5,23.6-490.5z"/>
	</g>
	<g id="g4205" transform="translate(0,140)" class="st6">
		<path id="path3834-2" class="st7" d="M23.7-329.6c-0.5,0-0.8,0-0.9,0c0,0,1.4,2.4,2.2,5.2s1.2,4.8,1.2,4.8s-1,2.4-1.6,4.7
			c-0.5,2.3-1.1,4.3-1.1,4.3s1.1,3,1.7,5.6c0.7,2.6,0.7,4.6,0.7,4.6s-0.8,1.9-1.4,4.6c-0.7,2.6-0.9,5.8-0.9,5.8s1.7-0.4,5.4,0.2
			s6.1,1.1,6.1,1.1l0.3-10l-2.3-8.8l3-11.2c-0.4-2.9-1.7-5.7-2.7-8.4c0,0-3.5-1.7-5.9-2.2C25.9-329.5,24.5-329.6,23.7-329.6
			L23.7-329.6z"/>
		<path id="path3834-6-2" class="st2" d="M42.7-329.6c0,0-0.6,0.7-4.1,1.5c-3.5,0.8-5.2,1.1-5.2,1.1c1,2.8,2.3,5.5,2.7,8.4l-3,11.2
			l2.3,8.8l-0.3,10c0,0,2.4-0.5,4.5-1.2c2.1-0.7,3.1-1.2,3.1-1.2l2.1-9.1l-1.6-10.2l2.2-8.5C44.8-320.7,43.9-329.5,42.7-329.6z"/>
		<path id="path3834-6-6" class="st8" d="M62.4-330c0,0-4.6,1.7-6,2c-1.4,0.3-4,1-4,1c0.9-0.3,2.2,8.5,2.7,9.8l-2.1,10l1.8,10.4
			l-2.4,8.6c0,0,2.4-0.5,4.9-1.1c2.4-0.6,5-1.5,5-1.5s-0.1-0.9,0.8-4.6c0.9-3.7,1.6-5.3,1.6-5.3s-0.1-0.8-0.7-3.7
			c-0.6-2.9-1.9-5.6-1.9-5.6s0.3-2,1.3-4.5c0.9-2.5,1.9-5,1.9-5s-0.9-2.9-1.4-5.6C63.4-327.9,62.4-330,62.4-330z"/>
		<path id="path3834-6-6-9" class="st4" d="M42.7-329.6c1.2,0.1,2.1,9,2.7,10.8l-2.2,8.5l1.6,10l-2.1,9.3c0,0,1,0.1,4.2,1.2
			c3.2,1.1,5.5,1.6,5.5,1.6l2.4-8.6L53-307.2l2.1-10c-0.5-1.3-1.8-10.1-2.7-9.8c0,0-1.8-0.8-4.1-1.6C46-329.4,42.7-329.6,42.7-329.6
			z"/>
	</g>
</g>
<g id="layer5_1_">
	
		<linearGradient id="rect5757-8-7-7-9_2_" gradientUnits="userSpaceOnUse" x1="129.5811" y1="248.1681" x2="132.5899" y2="248.1681" gradientTransform="matrix(0.9843 0.9843 0.9843 -0.9843 -349.2328 159.346)">
		<stop  offset="0" style="stop-color:#F9E295"/>
		<stop  offset="0.125" style="stop-color:#F7DD84"/>
		<stop  offset="0.2058" style="stop-color:#FFFFFF"/>
		<stop  offset="0.3011" style="stop-color:#F4CE51"/>
		<stop  offset="0.3412" style="stop-color:#F9E7AA"/>
		<stop  offset="1" style="stop-color:#EFBB0E"/>
	</linearGradient>
	<path id="rect5757-8-7-7-9_1_" class="st9" d="M26,45.2L25,46c-0.9-1-1.9-2-2.8-3l0.8-0.8C24.3,43.5,24.7,43.8,26,45.2L26,45.2z"/>
	<path id="path5604-26_1_" class="st10" d="M40.5,27.7c-5.1-5.1-5.1-13.4,0-18.5c5.1-5.1,13.4-5.1,18.5,0s5.1,13.4,0,18.5
		S45.6,32.8,40.5,27.7z M41,27.1c4.9,4.9,12.7,5.1,17.6,0.2c4.9-4.9,4.7-12.7-0.2-17.6c-4.9-4.9-12.7-5.1-17.6-0.2
		C35.9,14.5,36.1,22.2,41,27.1z"/>
	<path id="path5604-2-9_1_" class="st11" d="M40.5,27.7c-5.1-5.1-5.1-13.4,0-18.5c0,0,0.1-0.1,0.1-0.1c-5,5.1-5,13.3,0.1,18.4
		c5.1,5.1,13.3,5.1,18.4,0.1c0,0-0.1,0.1-0.1,0.1C53.9,32.8,45.6,32.8,40.5,27.7z M40.9,9.5C41,9.4,41,9.4,40.9,9.5
		c5-5,12.8-4.8,17.7,0.1c4.9,4.9,5.1,12.7,0.2,17.6l-0.1,0.1c4.8-4.9,4.6-12.6-0.3-17.5C53.5,4.9,45.8,4.6,40.9,9.5z"/>
	<path id="path5604-9-13_1_" class="st12" d="M40.8,27.3c4.9,4.9,12.9,4.9,17.8,0c4.9-4.9,4.9-12.9,0-17.8c-4.9-4.9-12.9-4.9-17.8,0
		C35.9,14.5,35.9,22.4,40.8,27.3z"/>
	
		<radialGradient id="path5604-9-1-3_2_" cx="127.2759" cy="458.1172" r="8.8468" gradientTransform="matrix(1.0052 1.0052 -1.0052 1.0052 382.282 -569.995)" gradientUnits="userSpaceOnUse">
		<stop  offset="0" style="stop-color:#D0E9F2;stop-opacity:0"/>
		<stop  offset="0.8393" style="stop-color:#D0E9F2;stop-opacity:0"/>
		<stop  offset="0.9431" style="stop-color:#D0E9F2;stop-opacity:0.2819"/>
		<stop  offset="1" style="stop-color:#D0E9F2"/>
	</radialGradient>
	<path id="path5604-9-1-3_1_" class="st13" d="M40.8,27.3c4.9,4.9,12.9,4.9,17.8,0c4.9-4.9,4.9-12.9,0-17.8
		c-4.9-4.9-12.9-4.9-17.8,0C35.9,14.5,35.9,22.4,40.8,27.3z"/>
	
		<linearGradient id="path5604-9-1-8-8-1_2_" gradientUnits="userSpaceOnUse" x1="131.0751" y1="198.137" x2="131.6172" y2="196.443" gradientTransform="matrix(0.9843 0.9843 0.9843 -0.9843 -283.2848 93.402)">
		<stop  offset="0" style="stop-color:#2D3335"/>
		<stop  offset="0.5" style="stop-color:#4C464A"/>
		<stop  offset="1" style="stop-color:#384042"/>
	</linearGradient>
	<path id="path5604-9-1-8-8-1_1_" class="st14" d="M38.8,24.1l-1.1,0.8c0.6,1.2,1.4,2.3,2.4,3.3c1,1,2.1,1.8,3.3,2.4l0.8-1.1
		c-1.1-0.6-2.2-1.3-3.1-2.3C40.1,26.2,39.3,25.2,38.8,24.1z"/>
	
		<linearGradient id="rect5757-5_2_" gradientUnits="userSpaceOnUse" x1="-236.0288" y1="195.1258" x2="-234.1471" y2="195.1258" gradientTransform="matrix(-0.9843 -0.9843 0.9843 -0.9843 -385.652 -8.9652)">
		<stop  offset="0" style="stop-color:#2D3335"/>
		<stop  offset="0.5" style="stop-color:#4C464A"/>
		<stop  offset="1" style="stop-color:#384042"/>
	</linearGradient>
	<path id="rect5757-5_1_" class="st15" d="M40.4,27.8c0.3,0.3,0.6,0.7,0.8,1.1l-4.9,4.9c-0.4-0.2-0.8-0.4-1.1-0.8
		c-0.3-0.3-0.6-0.7-0.8-1.1l4.9-4.9C39.7,27.2,40.1,27.4,40.4,27.8z"/>
	
		<linearGradient id="rect5757-8-7-2_2_" gradientUnits="userSpaceOnUse" x1="129.5788" y1="188.2457" x2="132.5907" y2="188.2457" gradientTransform="matrix(0.9843 0.9843 0.9843 -0.9843 -283.2848 93.402)">
		<stop  offset="0" style="stop-color:#F9E295"/>
		<stop  offset="0.125" style="stop-color:#F7DD84"/>
		<stop  offset="0.2058" style="stop-color:#FFFFFF"/>
		<stop  offset="0.3011" style="stop-color:#F4CE51"/>
		<stop  offset="0.3412" style="stop-color:#F9E7AA"/>
		<stop  offset="1" style="stop-color:#EFBB0E"/>
	</linearGradient>
	<path id="rect5757-8-7-2_1_" class="st16" d="M38.8,32.3L26.4,44.8c-0.7-0.4-1.1-0.6-1.7-1.2c-0.7-0.7-0.8-1-1.2-1.7l12.4-12.4
		C36.8,30.1,38.1,31.3,38.8,32.3L38.8,32.3z"/>
	
		<linearGradient id="rect5757-8-6_2_" gradientUnits="userSpaceOnUse" x1="-144.4828" y1="239.8671" x2="-142.6003" y2="239.8671" gradientTransform="matrix(-1.9685 -1.9685 1.7421 -1.7421 -669.822 172.862)">
		<stop  offset="0" style="stop-color:#2D3335"/>
		<stop  offset="0.5" style="stop-color:#4C464A"/>
		<stop  offset="1" style="stop-color:#384042"/>
	</linearGradient>
	<path id="rect5757-8-6_1_" class="st17" d="M36.8,31.4c0.7,0.7,1.4,1.3,1.6,2.1L26.4,45.5c-1.2-1-2.7-2.4-3.7-3.7l12.1-12.1
		C35.4,29.8,36.2,30.7,36.8,31.4L36.8,31.4L36.8,31.4z"/>
	
		<linearGradient id="rect5757-8-6-3_2_" gradientUnits="userSpaceOnUse" x1="-147.1148" y1="237.3495" x2="-142.4092" y2="240.6152" gradientTransform="matrix(-1.9685 -1.9685 1.7421 -1.7421 -669.822 172.862)">
		<stop  offset="0" style="stop-color:#000000"/>
		<stop  offset="1" style="stop-color:#000000;stop-opacity:0"/>
	</linearGradient>
	<path id="rect5757-8-6-3_1_" class="st18" d="M36.8,31.4c0.7,0.7,1.4,1.2,1.7,2L26.4,45.5c-1.5-1.3-2.2-2-3.7-3.7l12.1-12.1
		C35.4,29.8,36.1,30.8,36.8,31.4L36.8,31.4L36.8,31.4z"/>
	
		<linearGradient id="path6587_2_" gradientUnits="userSpaceOnUse" x1="42.8684" y1="32.966" x2="52.9045" y2="12.7536" gradientTransform="matrix(1 0 0 -1 0 38)">
		<stop  offset="0" style="stop-color:#FFFFFF"/>
		<stop  offset="1" style="stop-color:#FFFFFF;stop-opacity:0"/>
	</linearGradient>
	<path id="path6587_1_" class="st19" d="M41.6,9.3c7.7-6.1,14.7-2.4,14.6,1S45.6,23.6,41.9,22.8C38.1,22,37.1,12.7,41.6,9.3
		L41.6,9.3z"/>
	
		<linearGradient id="path6587-7_2_" gradientUnits="userSpaceOnUse" x1="-390.9767" y1="1157.9624" x2="-380.9406" y2="1137.7499" gradientTransform="matrix(-0.503 0.1984 -0.1972 0.4325 88.453 -394.5348)">
		<stop  offset="0" style="stop-color:#FFFFFF"/>
		<stop  offset="1" style="stop-color:#FFFFFF;stop-opacity:0"/>
	</linearGradient>
	<path id="path6587-7_1_" class="st20" d="M58.2,26.7c-5,4.1-7.9,4-7.2,2.5c0.7-1.5,8-7.8,9.7-8.2C62.5,20.5,61.2,24.3,58.2,26.7z"
		/>
</g>
<g>
	<path d="M47.2,11.3v5.4h5.7v-5.4h3.1v14h-3.1v-6.1h-5.7v6.1h-3.1v-14H47.2z"/>
</g>
</svg>
