<?xml version="1.0" standalone="no"?>
<!DOCTYPE svg PUBLIC "-//W3C//DTD SVG 1.1//EN"
  "http://www.w3.org/Graphics/SVG/1.1/DTD/svg11.dtd">
<svg version="1.1" xmlns="http://www.w3.org/2000/svg" xmlns:xlink="http://www.w3.org/1999/xlink" width="572" height="707" viewBox="-32 -32 1144 1414" id="ccdiagram"><filter id="grayscale"><feColorMatrix type="matrix" values="0.3333 0.3333 0.3333 0 0 0.3333 0.3333 0.3333 0 0 0.3333 0.3333 0.3333 0 0 0 0 0 1 0"></feColorMatrix></filter><defs><style type="text/css">@import url('https://fonts.googleapis.com/css?family=Open+Sans:400,700|Inconsolata:400');</style></defs><g><rect x="-32" y="-32" width="1144" height="1414" fill="#ffffff" id="interactionLayer"></rect><g style="pointer-events: none;"><g><pattern id="gridPatternMinor" x="0" y="0" width="90" height="90" patternUnits="userSpaceOnUse"><path d="M -45 45 L 135 45" stroke="#eeeeee" stroke-width="1"></path><path d="M 45 -45 L 45 135" stroke="#eeeeee" stroke-width="1"></path></pattern><polygon points="0 0, 1080 0, 1080 1350, 0 1350" fill="url(#gridPatternMinor)"></polygon></g></g><g pointer-events="auto"></g><g style="pointer-events: none;"><g><pattern id="gridPatternMajor" x="0" y="0" width="90" height="90" patternUnits="userSpaceOnUse"><path d="M 0 0 L 90 0 90 90 0 90 z" stroke="#54626f" stroke-width="1" fill="none"></path></pattern><polygon points="0 0, 1080 0, 1080 1350, 0 1350" fill="url(#gridPatternMajor)"></polygon></g></g><g pointer-events="auto"><g opacity="1"><g id="fc9dcee9-98d1-4d07-a51e-3a7640a624b5"><svg x="315" y="450" overflow="visible"><polygon points="0 0, 458 0, 458 90, 0 90" fill="#f5b720"></polygon><polygon points="0 0, 458 0, 458 90, 0 90" fill="none" stroke-width="20" stroke="#f5b720" opacity="1"></polygon><g cursor="nwse-resize"><polygon points="0 0, -27 0, -27 -45, -72 45, -27 135, -27 90, 0 90" fill="#f5b720"></polygon><polygon points="458 0, 485 0, 485 -45, 530 45, 485 135, 485 90, 458 90" fill="#f5b720"></polygon></g></svg></g></g></g><g pointer-events="auto"><g opacity="1"><g id="08feae64-3de2-4cd6-83e0-4070e30dae5f"><g><g><polygon points="675 945, 720 900, 720 720, 675 675, 450 675, 450 900, 495 945" stroke="#ff9800" stroke-width="8" fill="none"></polygon></g><g><polygon points="450 675, 405 675, 405 855, 450 900" stroke="#ff9800" stroke-width="8" fill="#ff9800"></polygon><text font-family="Inconsolata" font-size="20pt" font-weight="bold" fill="#ffffff" transform="translate(437 729) rotate(270)" text-anchor="end"> hotosm...</text><g transform="translate(416 686) "><svg width="23" height="32" style="fill: rgb(255, 255, 255);"><svg xmlns="http://www.w3.org/2000/svg" width="23" height="32" viewBox="0 0 23 32"><path d="M19.429 17.143V5.714h-8v20.304c.911-.482 2.375-1.321 3.804-2.446 1.911-1.5 4.196-3.839 4.196-6.429zm3.428-13.714v13.714c0 7.518-10.518 12.268-10.964 12.464a1.049 1.049 0 0 1-.928 0C10.519 29.411.001 24.661.001 17.143V3.429c0-.625.518-1.143 1.143-1.143h20.571c.625 0 1.143.518 1.143 1.143z"></path></svg></svg></g></g></g></g></g><g opacity="1"><g id="ad0f08b7-8d0e-4f3d-81d4-a3cc16a0f16e"><g><g><polygon points="818 630, 863 585, 863 405, 818 360, 720 360, 675 315, 675 180, 630 135, 450 135, 405 180, 405 315, 360 360, 225 360, 225 585, 270 630" stroke="#3f51b5" stroke-width="8" fill="none"></polygon></g><g><polygon points="225 360, 180 360, 180 540, 225 585" stroke="#3f51b5" stroke-width="8" fill="#3f51b5"></polygon><text font-family="Inconsolata" font-size="20pt" font-weight="bold" fill="#ffffff" transform="translate(212 414) rotate(270)" text-anchor="end"> hotosm...</text><g transform="translate(191 371) "><svg width="23" height="32" style="fill: rgb(255, 255, 255);"><svg xmlns="http://www.w3.org/2000/svg" width="23" height="32" viewBox="0 0 23 32"><path d="M19.429 17.143V5.714h-8v20.304c.911-.482 2.375-1.321 3.804-2.446 1.911-1.5 4.196-3.839 4.196-6.429zm3.428-13.714v13.714c0 7.518-10.518 12.268-10.964 12.464a1.049 1.049 0 0 1-.928 0C10.519 29.411.001 24.661.001 17.143V3.429c0-.625.518-1.143 1.143-1.143h20.571c.625 0 1.143.518 1.143 1.143z"></path></svg></svg></g></g></g></g></g></g><g></g><g pointer-events="auto"><g opacity="1"><g id="d27b0b61-fbb9-4181-9122-50d8878466f9"><g><g><polygon points="908 720, 953 675, 953 90, 908 45, 90 45, 90 698, 135 743, 135 1013, 180 1058, 394 1058, 416 1035, 765 1035, 810 990, 810 765, 855 720" stroke="#9c27b0" stroke-width="8" fill="none"></polygon></g><g><polygon points="90 45, 45 45, 45 360, 90 405" stroke="#9c27b0" stroke-width="8" fill="#9c27b0"></polygon><text font-family="Inconsolata" font-size="20pt" font-weight="bold" fill="#ffffff" transform="translate(77 88) rotate(270)" text-anchor="end">vpc</text><g transform="translate(51 51) "><svg width="34" height="32" style="fill: rgb(255, 255, 255);"><svg xmlns="http://www.w3.org/2000/svg" width="34" height="32" viewBox="0 0 34 32"><path d="M34.286 20.571a6.858 6.858 0 0 1-6.857 6.857H8c-4.411 0-8-3.589-8-8a7.993 7.993 0 0 1 4.607-7.232c-.018-.25-.036-.518-.036-.768a9.137 9.137 0 0 1 9.143-9.143c3.821 0 7.089 2.339 8.464 5.679a4.439 4.439 0 0 1 2.964-1.107 4.58 4.58 0 0 1 4.571 4.571 4.49 4.49 0 0 1-.732 2.464c3.036.714 5.304 3.429 5.304 6.679z"></path></svg></svg></g></g></g></g></g></g><g></g><g pointer-events="auto"></g><g pointer-events="auto"></g><g pointer-events="none"></g><g pointer-events="auto"><g id="fc9dcee9-98d1-4d07-a51e-3a7640a624b5-ae7ad86e-95f3-4da7-a9db-41bcbfd7c9f8"><g><g cursor="cell"><line x1="540" y1="360" x2="540" y2="329" stroke="red" stroke-width="8" opacity="0"></line><line x1="540" y1="360" x2="540" y2="329" stroke="#000000" stroke-width="2" stroke-linecap="round"></line><polygon points="540 315, 529 339, 540 333, 551 339, 540 315" stroke-linejoin="round" fill="#000000" stroke="#000000" stroke-width="1"></polygon></g><g cursor="cell"><line x1="360" y1="450" x2="360" y2="383" stroke="red" stroke-width="8" opacity="0"></line><line x1="360" y1="450" x2="360" y2="383" stroke="#000000" stroke-width="2" stroke-linecap="none"></line></g><g cursor="cell"><line x1="383" y1="360" x2="360" y2="383" stroke="red" stroke-width="8" opacity="0"></line><line x1="383" y1="360" x2="360" y2="383" stroke="#000000" stroke-width="2" stroke-linecap="round"></line></g><g cursor="cell"><line x1="544" y1="450" x2="544" y2="360" stroke="red" stroke-width="8" opacity="0"></line><line x1="544" y1="450" x2="544" y2="360" stroke="#000000" stroke-width="2" stroke-linecap="none"></line></g><g cursor="cell"><line x1="728" y1="450" x2="728" y2="383" stroke="red" stroke-width="8" opacity="0"></line><line x1="728" y1="450" x2="728" y2="383" stroke="#000000" stroke-width="2" stroke-linecap="none"></line></g><g cursor="cell"><line x1="706" y1="360" x2="728" y2="383" stroke="red" stroke-width="8" opacity="0"></line><line x1="706" y1="360" x2="728" y2="383" stroke="#000000" stroke-width="2" stroke-linecap="round"></line></g><g cursor="cell"><line x1="383" y1="360" x2="706" y2="360" stroke="red" stroke-width="8" opacity="0"></line><line x1="383" y1="360" x2="706" y2="360" stroke="#000000" stroke-width="2" stroke-linecap="round"></line></g></g></g><g id="58b6f8af-eaa6-4dab-9099-f19a8e5c359e-fc9dcee9-98d1-4d07-a51e-3a7640a624b5"><g><g cursor="cell"><line x1="585" y1="765" x2="585" y2="630" stroke="red" stroke-width="8" opacity="0"></line><line x1="585" y1="765" x2="585" y2="630" stroke="#000000" stroke-width="2" stroke-linecap="round"></line></g><g cursor="cell"><line x1="360" y1="608" x2="360" y2="554" stroke="red" stroke-width="8" opacity="0"></line><line x1="360" y1="608" x2="360" y2="554" stroke="#000000" stroke-width="2" stroke-linecap="none"></line><polygon points="360 540, 349 564, 360 558, 371 564, 360 540" stroke-linejoin="round" fill="#000000" stroke="#000000" stroke-width="1"></polygon></g><g cursor="cell"><line x1="383" y1="630" x2="360" y2="608" stroke="red" stroke-width="8" opacity="0"></line><line x1="383" y1="630" x2="360" y2="608" stroke="#000000" stroke-width="2" stroke-linecap="round"></line></g><g cursor="cell"><line x1="544" y1="630" x2="544" y2="554" stroke="red" stroke-width="8" opacity="0"></line><line x1="544" y1="630" x2="544" y2="554" stroke="#000000" stroke-width="2" stroke-linecap="none"></line><polygon points="544 540, 533 564, 544 558, 555 564, 544 540" stroke-linejoin="round" fill="#000000" stroke="#000000" stroke-width="1"></polygon></g><g cursor="cell"><line x1="728" y1="608" x2="728" y2="554" stroke="red" stroke-width="8" opacity="0"></line><line x1="728" y1="608" x2="728" y2="554" stroke="#000000" stroke-width="2" stroke-linecap="none"></line><polygon points="728 540, 717 564, 728 558, 740 564, 728 540" stroke-linejoin="round" fill="#000000" stroke="#000000" stroke-width="1"></polygon></g><g cursor="cell"><line x1="706" y1="630" x2="728" y2="608" stroke="red" stroke-width="8" opacity="0"></line><line x1="706" y1="630" x2="728" y2="608" stroke="#000000" stroke-width="2" stroke-linecap="round"></line></g><g cursor="cell"><line x1="383" y1="630" x2="706" y2="630" stroke="red" stroke-width="8" opacity="0"></line><line x1="383" y1="630" x2="706" y2="630" stroke="#000000" stroke-width="2" stroke-linecap="round"></line></g></g></g><g id="9993d991-658b-4366-b531-e98a499fcbf9-01434c33-6243-4fd2-a94a-bd139a25a937"><g cursor="cell"><line x1="900" y1="1215" x2="824" y2="1215" stroke="red" stroke-width="8" opacity="0"></line><line x1="900" y1="1215" x2="824" y2="1215" stroke="#000000" stroke-width="2" stroke-linecap="round"></line><polygon points="810 1215, 834 1226, 828 1215, 834 1204, 810 1215" stroke-linejoin="round" fill="#000000" stroke="#000000" stroke-width="1"></polygon></g></g><g id="4ad722df-7dbb-4b9c-b8e3-15768844a5f6-58b6f8af-eaa6-4dab-9099-f19a8e5c359e"><g cursor="cell"><line x1="405" y1="1170" x2="578" y2="867" stroke="red" stroke-width="8" opacity="0"></line><line x1="405" y1="1170" x2="578" y2="867" stroke="#000000" stroke-width="2" stroke-linecap="round"></line><polygon points="585 855, 563 871, 576 870, 583 882, 585 855" stroke-linejoin="round" fill="#000000" stroke="#000000" stroke-width="1"></polygon></g></g><g id="01434c33-6243-4fd2-a94a-bd139a25a937-cf336ee1-d5b6-4ab6-be5d-98423e1c5513"><g cursor="cell"><line x1="720" y1="1215" x2="644" y2="1215" stroke="red" stroke-width="8" opacity="0"></line><line x1="720" y1="1215" x2="644" y2="1215" stroke="#000000" stroke-width="2" stroke-linecap="round"></line><polygon points="630 1215, 654 1226, 648 1215, 654 1204, 630 1215" stroke-linejoin="round" fill="#000000" stroke="#000000" stroke-width="1"></polygon></g></g><g id="cf336ee1-d5b6-4ab6-be5d-98423e1c5513-4ad722df-7dbb-4b9c-b8e3-15768844a5f6"><g cursor="cell"><line x1="540" y1="1215" x2="464" y2="1215" stroke="red" stroke-width="8" opacity="0"></line><line x1="540" y1="1215" x2="464" y2="1215" stroke="#000000" stroke-width="2" stroke-linecap="round"></line><polygon points="450 1215, 474 1226, 468 1215, 474 1204, 450 1215" stroke-linejoin="round" fill="#000000" stroke="#000000" stroke-width="1"></polygon></g></g></g><g pointer-events="auto"><g opacity="1"><g id="ae7ad86e-95f3-4da7-a9db-41bcbfd7c9f8" transform="translate(0 0)"><svg x="495" y="225" height="90" width="90"><path class="cls-1" d="M0 0h90v90H0z" fill="#3b48cc" data-name="Blue Light BG"></path><path class="cls-2" d="M58.14 33.876c0-3.48-6.828-5.088-13.2-5.088s-13.2 1.608-13.2 5.088a1.848 1.848 0 0 0 .06.516v21.66c-.06 3.6 6.78 5.136 13.2 5.136s13.2-1.584 13.2-5.064V33.876ZM44.964 31.2c6.996 0 10.8 1.908 10.8 2.688 0 .78-3.78 2.688-10.8 2.688s-10.8-1.896-10.8-2.688c0-.792 3.804-2.688 10.8-2.688zm10.8 24.936c0 .768-3.792 2.664-10.8 2.664s-10.8-1.896-10.8-2.664v-3.792c2.532 1.38 6.78 2.04 10.8 2.04 4.02 0 8.232-.648 10.8-2.004zm0-6.828c0 .768-3.78 2.688-10.8 2.688s-10.8-1.92-10.8-2.688v-4.584c2.532 1.368 6.78 2.028 10.8 2.028 4.02 0 8.232-.648 10.8-2.004zm0-7.644c0 .78-3.78 2.7-10.8 2.7s-10.8-1.92-10.8-2.7v-4.68c2.556 1.356 6.756 1.98 10.8 1.98s8.292-.648 10.8-2.028zM19.092 72.612H27v2.4H16.2a1.2 1.2 0 0 1-1.2-1.2v-10.8h2.4v7.884l9-8.988 1.68 1.692ZM75 63.012v10.8a1.2 1.2 0 0 1-1.2 1.2H63v-2.4h7.908L62.04 63.72l1.692-1.68 8.868 8.856v-7.884zm0-46.8v10.8h-2.4v-7.92l-8.868 8.868-1.692-1.692 8.856-8.856H63v-2.4h10.8a1.2 1.2 0 0 1 1.2 1.2zM28.08 26.4l-1.68 1.68-9-8.988v7.896H15v-10.8a1.2 1.2 0 0 1 1.2-1.2H27v2.4h-7.908zm-1.488 29.352C19.26 53.112 15.06 49.08 15.06 44.7s4.2-8.4 11.532-11.052l.816 2.256c-6.228 2.244-9.948 5.532-9.948 8.796 0 3.264 3.72 6.552 9.948 8.796zm36.144.264-.768-2.28C68.628 51.492 72.6 48.108 72.6 44.7s-3.972-6.792-10.632-9.048l.768-2.268C70.524 36 75 40.152 75 44.7s-4.476 8.676-12.264 11.316z" fill="#ffffff" data-name="Product Icon-2"></path></svg></g></g><g opacity="1"><g id="b93a5841-bb2b-430f-9c7e-aeefbf7d49a3" transform="translate(0 0)"><svg x="315" y="450" height="90" width="90"><defs></defs><path class="cls-1" d="M80.402 80.402H9.599V9.599h70.803zm-67.137-3.667h63.47v-63.47h-63.47Z" fill="#d86613"></path><path class="cls-1" d="M19.719 1h3.666v10.432H19.72zm11.495 0h3.666v10.432h-3.666zm11.513 0h3.667v10.432h-3.667zM54.24 1h3.667v10.432H54.24zm11.514 0h3.666v10.432h-3.666zM19.719 78.57h3.666V89H19.72zm11.495 0h3.666V89h-3.666zm11.513 0h3.667V89h-3.667zm11.513 0h3.667V89H54.24zm11.514 0h3.666V89h-3.666zm12.815-58.41H89v3.666H78.57zm0 11.495H89v3.666H78.57zm0 11.513H89v3.667H78.57zm0 11.513H89v3.667H78.57zm0 11.495H89v3.667H78.57zM1 20.16h10.432v3.666H1zm0 11.495h10.432v3.666H1zm0 11.513h10.432v3.667H1zM1 54.68h10.432v3.667H1zm0 11.495h10.432v3.667H1z" fill="#d86613"></path><path d="M13.265 13.265h63.47v63.47h-63.47z" fill="#d86613" opacity=".05" stroke="#d86613" stroke-opacity="0" stroke-width=".999"></path></svg><svg x="324" y="477" width="72" height="36" style="overflow: visible; cursor: default;"><text transform="" font-family="Open Sans" text-anchor="middle" x="50%" font-weight="bold" font-size="18pt" y="75%" fill="#d86613"><tspan>C5d</tspan></text></svg></g></g><g opacity="1"><g id="c5392a4a-f8bf-4ccd-bb19-b532274508c1" transform="translate(0 0)"><svg x="499" y="450" height="90" width="90"><defs></defs><path class="cls-1" d="M80.402 80.402H9.599V9.599h70.803zm-67.137-3.667h63.47v-63.47h-63.47Z" fill="#d86613"></path><path class="cls-1" d="M19.719 1h3.666v10.432H19.72zm11.495 0h3.666v10.432h-3.666zm11.513 0h3.667v10.432h-3.667zM54.24 1h3.667v10.432H54.24zm11.514 0h3.666v10.432h-3.666zM19.719 78.57h3.666V89H19.72zm11.495 0h3.666V89h-3.666zm11.513 0h3.667V89h-3.667zm11.513 0h3.667V89H54.24zm11.514 0h3.666V89h-3.666zm12.815-58.41H89v3.666H78.57zm0 11.495H89v3.666H78.57zm0 11.513H89v3.667H78.57zm0 11.513H89v3.667H78.57zm0 11.495H89v3.667H78.57zM1 20.16h10.432v3.666H1zm0 11.495h10.432v3.666H1zm0 11.513h10.432v3.667H1zM1 54.68h10.432v3.667H1zm0 11.495h10.432v3.667H1z" fill="#d86613"></path><path d="M13.265 13.265h63.47v63.47h-63.47z" fill="#d86613" opacity=".05" stroke="#d86613" stroke-opacity="0" stroke-width=".999"></path></svg><svg x="508" y="477" width="72" height="36" style="overflow: visible; cursor: default;"><text transform="" font-family="Open Sans" text-anchor="middle" x="50%" font-weight="bold" font-size="18pt" y="75%" fill="#d86613"><tspan>C5d</tspan></text></svg></g></g><g opacity="1"><g id="d4566d87-d6bc-4cfd-8ee6-647cdc14437d" transform="translate(0 0)"><svg x="683" y="450" height="90" width="90"><defs></defs><path class="cls-1" d="M80.402 80.402H9.599V9.599h70.803zm-67.137-3.667h63.47v-63.47h-63.47Z" fill="#d86613"></path><path class="cls-1" d="M19.719 1h3.666v10.432H19.72zm11.495 0h3.666v10.432h-3.666zm11.513 0h3.667v10.432h-3.667zM54.24 1h3.667v10.432H54.24zm11.514 0h3.666v10.432h-3.666zM19.719 78.57h3.666V89H19.72zm11.495 0h3.666V89h-3.666zm11.513 0h3.667V89h-3.667zm11.513 0h3.667V89H54.24zm11.514 0h3.666V89h-3.666zm12.815-58.41H89v3.666H78.57zm0 11.495H89v3.666H78.57zm0 11.513H89v3.667H78.57zm0 11.513H89v3.667H78.57zm0 11.495H89v3.667H78.57zM1 20.16h10.432v3.666H1zm0 11.495h10.432v3.666H1zm0 11.513h10.432v3.667H1zM1 54.68h10.432v3.667H1zm0 11.495h10.432v3.667H1z" fill="#d86613"></path><path d="M13.265 13.265h63.47v63.47h-63.47z" fill="#d86613" opacity=".05" stroke="#d86613" stroke-opacity="0" stroke-width=".999"></path></svg><svg x="692" y="477" width="72" height="36" style="overflow: visible; cursor: default;"><text transform="" font-family="Open Sans" text-anchor="middle" x="50%" font-weight="bold" font-size="18pt" y="75%" fill="#d86613"><tspan>C5d</tspan></text></svg></g></g><g opacity="1"><g id="58b6f8af-eaa6-4dab-9099-f19a8e5c359e" transform="translate(0 0)"><svg x="540" y="765" height="90" width="90"><path d="M0 0h90v90H0z" fill="#693cc5" data-name="Orange Light BG"></path><path d="M59.448 46.2a7.464 7.464 0 1 0 0-2.4h-8.952a16.932 16.932 0 0 0-1.68-6.36l10.8-9.132a7.464 7.464 0 1 0-2.832-5.844 7.296 7.296 0 0 0 1.2 4.08l-10.44 8.796a17.4 17.4 0 1 0 0 19.32l10.44 8.796a7.296 7.296 0 0 0-1.2 4.08 7.452 7.452 0 1 0 2.832-5.844l-10.8-9.132a16.932 16.932 0 0 0 1.68-6.36zm7.344-6.264A5.064 5.064 0 1 1 61.74 45a5.064 5.064 0 0 1 5.052-5.064zM64.296 17.4a5.064 5.064 0 1 1-5.064 5.064 5.064 5.064 0 0 1 5.064-5.064zm0 45.084a5.064 5.064 0 1 1-5.064 5.052 5.064 5.064 0 0 1 5.064-5.052zM33.144 60a15 15 0 1 1 15-15 15.024 15.024 0 0 1-15 15Z" fill="#ffffff" data-name="Product Icon"></path></svg></g></g><g opacity="1"><g id="e4fb0b76-fd58-41d4-a711-642218af4bf6" transform="translate(0 0)"><svg x="225" y="878" height="90" width="90"><defs></defs><g fill="#693cc5" transform="translate(-2.872 -2.872) scale(1.9149)"><path class="cls-1" d="M35.31 38.19H14.69a1 1 0 0 1-1-1V21.25a1 1 0 0 1 1-1h20.62a1 1 0 0 1 1 1v15.94a1 1 0 0 1-1 1zm-19.62-2h18.62V22.26H15.69Z"></path><path class="cls-1" d="M24 29.27h2v5.04h-2zm7.61-8.22h-2v-4.46a5 5 0 0 0-1.35-3.42 4.45 4.45 0 0 0-3.26-1.4 4.71 4.71 0 0 0-4.63 4.76v4.51h-2v-4.51A6.7 6.7 0 0 1 25 9.77a6.45 6.45 0 0 1 4.68 2 6.9 6.9 0 0 1 1.9 4.8z"></path><path class="cls-1" d="M25 48.5A23.5 23.5 0 1 1 48.5 25 23.52 23.52 0 0 1 25 48.5Zm0-45A21.5 21.5 0 1 0 46.5 25 21.52 21.52 0 0 0 25 3.5Z"></path><path class="cls-1" d="M25 31.16a3.35 3.35 0 1 1 3.34-3.35A3.35 3.35 0 0 1 25 31.16Zm0-4.69a1.35 1.35 0 1 0 1.34 1.34A1.34 1.34 0 0 0 25 26.47Z"></path><circle cx="25" cy="25" opacity=".05" r="23.171" stroke-width=".657"></circle></g></svg></g></g><g opacity="1"><g id="4ad722df-7dbb-4b9c-b8e3-15768844a5f6" transform="translate(0 0)"><svg x="360" y="1170" height="90" width="90"><path d="M0 0h90v90H0z" fill="#3f8624" data-name="Green Light BG"></path><path d="M73.716 48.072c-.348-1.884-2.484-3.216-3.948-4.164-.468-.3-1.752-.78-1.86-1.2a2.832 2.832 0 0 1 .12-.888l1.2-8.628c.348-2.532.684-5.064 1.032-7.596.312-2.328-.804-3.888-2.7-5.196-3.864-2.676-8.904-3.756-13.452-4.5a67.02 67.02 0 0 0-17.256-.564 48 48 0 0 0-15.036 3.6c-2.568 1.2-5.928 3.072-5.508 6.348 1.2 9.744 2.616 19.464 3.924 29.196l1.8 13.356a4.956 4.956 0 0 0 2.952 3.996c3.72 2.016 8.328 2.592 12.48 2.976A61.8 61.8 0 0 0 54 74.076c3.456-.636 9.888-1.68 10.44-6 .684-5.352 1.44-10.704 2.16-16.044l.264-1.632c1.956.468 7.536 1.464 6.852-2.328zM43.26 17.4c7.2 0 15.444.816 21.9 4.368.996.552 3.312 1.788 2.616 3.252-.696 1.464-2.856 2.196-4.176 2.724a37.056 37.056 0 0 1-5.796 1.62 74.748 74.748 0 0 1-25.992.54 32.16 32.16 0 0 1-11.184-3.276c-.864-.492-2.292-1.38-1.896-2.556a3.6 3.6 0 0 1 1.416-1.512 25.008 25.008 0 0 1 8.64-3.492A60.42 60.42 0 0 1 43.26 17.4zm18.816 50.58c-.18 1.404-2.496 2.1-3.6 2.496a35.52 35.52 0 0 1-7.056 1.584 60.864 60.864 0 0 1-16.044 0 26.688 26.688 0 0 1-9.6-2.604 2.4 2.4 0 0 1-1.44-2.076c-1.2-9.516-2.568-19.032-3.852-28.548l-1.392-10.32a27.912 27.912 0 0 0 8.76 3.072 71.544 71.544 0 0 0 9.972 1.308A77.76 77.76 0 0 0 57.492 31.8a29.124 29.124 0 0 0 9.852-3.288L64.8 47.352a144.516 144.516 0 0 1-17.784-7.2 5.124 5.124 0 0 1-.732-.348c-.324-.24-.24-.12-.396-.492-.3-.684-.372-1.2-1.008-1.764a2.7 2.7 0 1 0-1.488 4.8 4.944 4.944 0 0 0 1.2-.36c.468-.144.468-.12.96.108a152.064 152.064 0 0 0 18 7.392c.924.3.912 0 .912.768a13.788 13.788 0 0 1-.228 1.74l-.768 5.724ZM43.56 39.6c0 .324-.456.288-.576.084-.12-.204.576-.54.576-.084ZM67.2 48l.36-2.652c1.2.684 3.24 1.716 3.78 3.084-1.176.48-3.036-.156-4.14-.432Z" fill="#ffffff" data-name="Product Icon"></path></svg></g></g><g opacity="1"><g id="cf336ee1-d5b6-4ab6-be5d-98423e1c5513" transform="translate(0 0)"><svg x="540" y="1170" height="90" id="svg35" width="90" version="1.1"><defs id="defs4"></defs><g id="Reference" fill-opacity="1" transform="scale(1.2)"><path id="Purple_Light_BG" d="M0 0h75v75H0z" fill="#693cc5" data-name="Purple Light BG"></path><g id="Product_Icon" fill="#ffffff" data-name="Product Icon"><path class="cls-2" id="path9" d="M46.14 60.67l-1.78-.92a29.75 29.75 0 0 0 2.27-5.66l1.92.56a31.93 31.93 0 0 1-2.41 6.02zM48 42.36a31.87 31.87 0 0 0-5.27-15.68l1.67-1.09A33.81 33.81 0 0 1 50 42.24zM34.81 18.23a30.08 30.08 0 0 0-4.62-2.84l.91-1.78a31.94 31.94 0 0 1 4.92 3z" fill="#ffffff" fill-opacity="1"></path><path class="cls-2" id="path11" d="M43 44.9a29.91 29.91 0 0 0-11.17-7l.62-1.9a31.91 31.91 0 0 1 11.9 7.45z" fill="#ffffff" fill-opacity="1"></path><path class="cls-2" id="path13" d="M51.24 56.84c-.37-1-.79-1.92-1.25-2.85l1.79-.89a32.71 32.71 0 0 1 1.33 3z" fill="#ffffff" fill-opacity="1"></path><path class="cls-2" id="path15" d="M45.57 61.15l-.64-1.89a22.4 22.4 0 0 0 6.63-3.57l1.23 1.58a24.36 24.36 0 0 1-7.22 3.88z" fill="#ffffff" fill-opacity="1"></path><path class="cls-2" id="path17" d="M13.78 37l-.46-1.94a31.25 31.25 0 0 1 6.77-.89l.05 2a29.4 29.4 0 0 0-6.36.83z" fill="#ffffff" fill-opacity="1"></path><path class="cls-2" id="path19" d="M30.18 30.64l-1.68-1.09a28.67 28.67 0 0 1 5.37-6.4l1.32 1.51a26.64 26.64 0 0 0-5.01 5.98z" fill="#ffffff" fill-opacity="1"></path><path class="cls-2" id="path21" d="M45.05 18.78l-.68-1.88A29.77 29.77 0 0 1 49 15.58l.37 2a26.9 26.9 0 0 0-4.32 1.2z" fill="#ffffff" fill-opacity="1"></path><path class="cls-2" id="path23" d="M25.25 59a31.53 31.53 0 0 1-2.57-12 21.72 21.72 0 0 1 .62-4.72c.07-.35.15-.71.22-1.08l2 .39c-.07.38-.15.74-.22 1.1a20 20 0 0 0-.58 4.31 29.56 29.56 0 0 0 2.38 11.28z" fill="#ffffff" fill-opacity="1"></path><path class="cls-2" id="path25" d="M37.5 62.5a25 25 0 0 1-25-25c0-.51 0-1 .05-1.51a25 25 0 0 1 17.81-22.45 25 25 0 0 1 19.36 2.16 25 25 0 0 1 3.07 41.58A25.2 25.2 0 0 1 37.5 62.5zm0-48a22.56 22.56 0 0 0-6.57 1 23 23 0 0 0-16.38 20.63c0 .47-.05.92-.05 1.37a23 23 0 0 0 23 23 22.61 22.61 0 0 0 7.42-1.24 22.32 22.32 0 0 0 6.64-3.57A23 23 0 0 0 37.5 14.5z" fill="#ffffff" fill-opacity="1"></path><path class="cls-2" id="path27" d="M39.93 25.93a4.43 4.43 0 1 1 4.43-4.42 4.42 4.42 0 0 1-4.43 4.42zm0-6.85a2.43 2.43 0 1 0 2.43 2.43 2.43 2.43 0 0 0-2.43-2.43z" fill="#ffffff" fill-opacity="1"></path><path class="cls-2" id="path29" d="M26.29 39.88a4.43 4.43 0 1 1 4.43-4.43 4.44 4.44 0 0 1-4.43 4.43zm0-6.86a2.43 2.43 0 1 0 2.43 2.43A2.43 2.43 0 0 0 26.29 33z" fill="#ffffff" fill-opacity="1"></path><path class="cls-2" id="path31" d="M48.28 52.7a4.43 4.43 0 1 1 4.42-4.42 4.42 4.42 0 0 1-4.42 4.42zm0-6.85a2.43 2.43 0 1 0 2.42 2.43 2.43 2.43 0 0 0-2.42-2.43z" fill="#ffffff" fill-opacity="1"></path></g></g></svg></g></g><g opacity="1"><g id="01434c33-6243-4fd2-a94a-bd139a25a937" transform="translate(0 0)"><svg x="720" y="1170" height="90" width="90"><defs></defs><path d="M0 0h90v90H0z" fill="#693cc5" data-name="Purple Light BG"></path><g fill="#ffffff" data-name="Product Icon"><path class="cls-2" d="M32.748 51.528a15.6 15.6 0 0 0 4.704.888 4.308 4.308 0 0 0 2.892-.816 3.072 3.072 0 0 0 .996-2.4 3.144 3.144 0 0 0-.936-2.544 4.8 4.8 0 0 0-3.072-.792 36.06 36.06 0 0 0-3.84.24V44.4l.468-7.404h9.036V39H36l-.324 5.028a13.356 13.356 0 0 1 2.4-.24 5.916 5.916 0 0 1 4.188 1.404 5.076 5.076 0 0 1 1.5 3.888 4.884 4.884 0 0 1-1.752 3.924 6.912 6.912 0 0 1-4.632 1.5 11.436 11.436 0 0 1-4.728-.996zm19.608-7.2h.444a5.544 5.544 0 0 1 3.936 1.272 4.596 4.596 0 0 1 1.44 3.6 4.8 4.8 0 0 1-1.776 3.852 7.2 7.2 0 0 1-4.692 1.452 11.412 11.412 0 0 1-4.596-.996v-1.98a14.88 14.88 0 0 0 4.596.888 4.428 4.428 0 0 0 2.904-.84 2.928 2.928 0 0 0 1.008-2.4q0-2.988-3.78-2.988a21.732 21.732 0 0 0-2.4.12v-1.632L54.636 39h-7.26v-2.028h10.08v1.956z"></path><path class="cls-2" d="M45 67.8a1.2 1.2 0 0 1-.6-.168 39.804 39.804 0 0 0-12.576-4.8c-2.532-.456-10.8-2.4-10.8-8.4 0-2.712 1.044-4.512 2.4-6.792a18.792 18.792 0 0 0 3.252-9.852 17.496 17.496 0 0 0-2.856-9.516 1.2 1.2 0 0 1 .084-1.404l1.92-2.4a1.2 1.2 0 0 1 1.524-.288 16.428 16.428 0 0 0 8.1 2.22 14.796 14.796 0 0 0 8.856-2.784 1.2 1.2 0 0 1 1.392 0 14.796 14.796 0 0 0 8.856 2.784 16.428 16.428 0 0 0 8.124-2.232 1.2 1.2 0 0 1 1.524.288l1.92 2.4a1.2 1.2 0 0 1 .084 1.404 17.472 17.472 0 0 0-2.856 9.516c0 4.26 1.728 7.2 3.24 9.852 1.332 2.28 2.4 4.08 2.4 6.792 0 6-8.256 7.98-10.8 8.4a39.804 39.804 0 0 0-12.576 4.8 1.2 1.2 0 0 1-.612.18zM26.28 27.6a19.728 19.728 0 0 1 2.772 10.056c0 4.908-1.98 8.316-3.6 11.052-1.2 2.124-2.04 3.528-2.04 5.592 0 4.272 7.332 5.808 8.808 6.072a41.856 41.856 0 0 1 12.756 4.8 41.856 41.856 0 0 1 12.756-4.8c1.476-.264 8.808-1.8 8.808-6.072 0-2.064-.816-3.468-2.04-5.592-1.596-2.736-3.6-6.144-3.6-11.052A19.728 19.728 0 0 1 63.72 27.6l-.756-.936a18.528 18.528 0 0 1-8.4 2.064 17.316 17.316 0 0 1-9.6-2.76 17.316 17.316 0 0 1-9.6 2.76 18.528 18.528 0 0 1-8.4-2.064z"></path><path class="cls-2" d="M45 75a1.2 1.2 0 0 1-.756-.264 36 36 0 0 0-13.5-6c-9.864-1.776-15.756-7.2-15.756-14.4a18.348 18.348 0 0 1 3.18-9.828c1.308-2.244 2.4-4.188 2.4-6.816a12.924 12.924 0 0 0-4.368-9.156 1.2 1.2 0 0 1-.168-1.776c0-.084 7.044-8.532 8.64-10.728a1.2 1.2 0 0 1 .936-.504 1.2 1.2 0 0 1 .984.384 12.408 12.408 0 0 0 8.82 4.392c3.348 0 6-1.488 8.556-4.8a1.296 1.296 0 0 1 1.992 0c2.568 3.36 5.208 4.8 8.556 4.8a12.408 12.408 0 0 0 8.82-4.392 1.2 1.2 0 0 1 .984-.384 1.2 1.2 0 0 1 .936.504c1.596 2.196 8.58 10.644 8.64 10.728a1.2 1.2 0 0 1 .288.924 1.308 1.308 0 0 1-.456.852 12.924 12.924 0 0 0-4.368 9.156c0 2.628 1.128 4.572 2.4 6.816a18.348 18.348 0 0 1 3.18 9.828c0 7.2-5.892 12.624-15.756 14.4a35.652 35.652 0 0 0-13.488 6A1.2 1.2 0 0 1 45 75zM18.732 27.468A15.012 15.012 0 0 1 23.1 37.704c0 3.3-1.404 5.724-2.76 8.064-1.464 2.532-2.856 4.908-2.856 8.58 0 8.784 10.488 11.352 13.704 11.928A37.608 37.608 0 0 1 45 72.204a37.608 37.608 0 0 1 13.8-5.928c3.216-.576 13.704-3.144 13.704-11.928 0-3.672-1.392-6-2.856-8.58-1.356-2.4-2.76-4.8-2.76-8.064a15.012 15.012 0 0 1 4.368-10.236c-1.572-1.908-5.208-6.336-7.116-8.796a14.304 14.304 0 0 1-9.6 4.152 12.192 12.192 0 0 1-9.6-4.632 12.192 12.192 0 0 1-9.6 4.632 14.304 14.304 0 0 1-9.6-4.152c-1.74 2.46-5.436 6.888-7.008 8.796Z"></path></g></svg></g></g><g opacity="1"><g id="9993d991-658b-4366-b531-e98a499fcbf9" transform="translate(0 0)"><svg x="900" y="1170" height="90" width="90"><defs></defs><g transform="translate(-2.872 -2.852) scale(1.9149)"><circle cx="25.03" cy="13.644" fill="#232f3e" opacity=".05" r="10.787" stroke-width=".522"></circle><path class="cls-1" d="M47.5 48.44h-45a1 1 0 0 1-1-1v-3a22.73 22.73 0 0 1 17.36-22.1 1.06 1.06 0 0 1 .72.09 11.29 11.29 0 0 0 10.82 0 1 1 0 0 1 .71-.09A22.73 22.73 0 0 1 48.5 44.45v3a1 1 0 0 1-1 .99z" fill="#232f3e" opacity=".05"></path><path class="cls-1" d="M47.5 48.44h-45a1 1 0 0 1-1-1v-3a22.73 22.73 0 0 1 17.36-22.1 1.06 1.06 0 0 1 .72.09 11.29 11.29 0 0 0 10.82 0 1 1 0 0 1 .71-.09A22.73 22.73 0 0 1 48.5 44.45v3a1 1 0 0 1-1 .99zm-44-2h43v-2A20.71 20.71 0 0 0 31 24.39a13.51 13.51 0 0 1-6 1.43 13.21 13.21 0 0 1-6-1.43A20.72 20.72 0 0 0 3.5 44.45Z" fill="#232f3e"></path><path class="cls-1" d="M25 25.75a12.18 12.18 0 0 1-5.9-1.5 12.13 12.13 0 1 1 18.06-10.58 12 12 0 0 1-6.32 10.58 12.38 12.38 0 0 1-5.84 1.5Zm0-22.19a10.08 10.08 0 0 0-5 18.94 10.33 10.33 0 0 0 9.85 0A10.08 10.08 0 0 0 25 3.56Z" fill="#232f3e"></path></g></svg></g></g></g><g pointer-events="auto"></g><g pointer-events="auto"></g><g pointer-events="auto"><g opacity="1"><g id="2cb52d7d-42f2-43a2-9e73-ba350e8518fd"><svg x="551" y="855" overflow="visible"><text stroke="#ffffff" stroke-width="0" font-family="Open Sans" y="36.5" font-size="25pt" fill="#f5b720" font-weight="bold" transform="" xml:space="preserve"><tspan x="8" dy="0">ALB</tspan></text><text font-family="Open Sans" y="36.5" font-size="25pt" fill="#f5b720" font-weight="bold" transform="" xml:space="preserve"><tspan x="8" dy="0">ALB</tspan></text></svg></g></g><g opacity="1"><g id="51a9cc39-e8eb-44dd-81de-ab753e8a24c7"><svg x="409" y="553" overflow="visible"><text stroke="#ffffff" stroke-width="4" font-family="Open Sans" y="36.5" font-size="25pt" fill="#f5b720" font-weight="bold" transform="" xml:space="preserve"><tspan x="8" dy="0">Auto Scaling</tspan></text><text font-family="Open Sans" y="36.5" font-size="25pt" fill="#f5b720" font-weight="bold" transform="" xml:space="preserve"><tspan x="8" dy="0">Auto Scaling</tspan></text></svg></g></g><g opacity="1"><g id="c1109dc4-8a4a-4db1-86b2-c3c4447ad049"><svg x="585" y="248" overflow="visible"><text stroke="#ffffff" stroke-width="0" font-family="Open Sans" y="36.5" font-size="25pt" fill="#f5b720" font-weight="bold" transform="" xml:space="preserve"><tspan x="8" dy="0">RDS</tspan></text><text font-family="Open Sans" y="36.5" font-size="25pt" fill="#f5b720" font-weight="bold" transform="" xml:space="preserve"><tspan x="8" dy="0">RDS</tspan></text></svg></g></g><g opacity="1"><g id="4009905d-aeaa-42cd-b2ad-540886138332" transform="translate(0 0)"><svg x="608" y="1283" overflow="visible"><text stroke="#ffffff" stroke-width="4" font-family="Open Sans" y="36.5" font-size="25pt" fill="#f5b720" font-weight="bold" transform="" xml:space="preserve"><tspan x="8" dy="0">tasks.hotosm.org</tspan></text><text font-family="Open Sans" y="36.5" font-size="25pt" fill="#f5b720" font-weight="bold" transform="" xml:space="preserve"><tspan x="8" dy="0">tasks.hotosm.org</tspan></text></svg></g></g><g opacity="1"><g id="5194cd67-f76e-4566-97d0-cc7042a76263" transform="translate(0 0)"><svg x="495" y="1103" overflow="visible"><text stroke="#ffffff" stroke-width="4" font-family="Open Sans" y="36.5" font-size="25pt" fill="#f5b720" font-weight="bold" transform="" xml:space="preserve"><tspan x="8" dy="0">React App</tspan></text><text font-family="Open Sans" y="36.5" font-size="25pt" fill="#f5b720" font-weight="bold" transform="" xml:space="preserve"><tspan x="8" dy="0">React App</tspan></text></svg></g></g></g><g pointer-events="auto"><g></g><g></g><g></g><g></g><g></g><g></g><g></g><g></g><g></g><g></g></g></g></svg>
