<?xml version="1.0" standalone="no"?>
<!DOCTYPE svg PUBLIC "-//W3C//DTD SVG 1.1//EN"
  "http://www.w3.org/Graphics/SVG/1.1/DTD/svg11.dtd">
<svg version="1.1" xmlns="http://www.w3.org/2000/svg" xmlns:xlink="http://www.w3.org/1999/xlink" width="1280" height="720" viewBox="-716.8888888888887 -32 2513.7777777777774 1414" id="ccdiagram"><filter id="grayscale"><feColorMatrix type="matrix" values="0.3333 0.3333 0.3333 0 0 0.3333 0.3333 0.3333 0 0 0.3333 0.3333 0.3333 0 0 0 0 0 1 0"></feColorMatrix></filter><defs><style type="text/css">@import url('https://fonts.googleapis.com/css?family=Open+Sans:400,700|Inconsolata:400');</style></defs><g><g pointer-events="auto"></g><g pointer-events="auto"><g opacity="1"><g id="08feae64-3de2-4cd6-83e0-4070e30dae5f"><g><g><polygon points="675 945, 720 900, 720 720, 675 675, 450 675, 450 900, 495 945" stroke="#ff9800" stroke-width="8" fill="none"></polygon></g><g><polygon points="450 675, 405 675, 405 855, 450 900" stroke="#ff9800" stroke-width="8" fill="#ff9800"></polygon><text font-family="Inconsolata" font-size="20pt" font-weight="bold" fill="#ffffff" transform="translate(437 729) rotate(270)" text-anchor="end"> hotosm...</text><g transform="translate(416 686) "><svg width="23" height="32" style="fill: rgb(255, 255, 255);"><svg xmlns="http://www.w3.org/2000/svg" width="23" height="32" viewBox="0 0 23 32"><path d="M19.429 17.143V5.714h-8v20.304c.911-.482 2.375-1.321 3.804-2.446 1.911-1.5 4.196-3.839 4.196-6.429zm3.428-13.714v13.714c0 7.518-10.518 12.268-10.964 12.464a1.049 1.049 0 0 1-.928 0C10.519 29.411.001 24.661.001 17.143V3.429c0-.625.518-1.143 1.143-1.143h20.571c.625 0 1.143.518 1.143 1.143z"></path></svg></svg></g></g></g></g></g><g opacity="1"><g id="ad0f08b7-8d0e-4f3d-81d4-a3cc16a0f16e"><g><g><polygon points="818 630, 863 585, 863 405, 818 360, 720 360, 675 315, 675 180, 630 135, 450 135, 405 180, 405 315, 360 360, 225 360, 225 585, 270 630" stroke="#3f51b5" stroke-width="8" fill="none"></polygon></g><g><polygon points="225 360, 180 360, 180 540, 225 585" stroke="#3f51b5" stroke-width="8" fill="#3f51b5"></polygon><text font-family="Inconsolata" font-size="20pt" font-weight="bold" fill="#ffffff" transform="translate(212 414) rotate(270)" text-anchor="end"> hotosm...</text><g transform="translate(191 371) "><svg width="23" height="32" style="fill: rgb(255, 255, 255);"><svg xmlns="http://www.w3.org/2000/svg" width="23" height="32" viewBox="0 0 23 32"><path d="M19.429 17.143V5.714h-8v20.304c.911-.482 2.375-1.321 3.804-2.446 1.911-1.5 4.196-3.839 4.196-6.429zm3.428-13.714v13.714c0 7.518-10.518 12.268-10.964 12.464a1.049 1.049 0 0 1-.928 0C10.519 29.411.001 24.661.001 17.143V3.429c0-.625.518-1.143 1.143-1.143h20.571c.625 0 1.143.518 1.143 1.143z"></path></svg></svg></g></g></g></g></g></g><g></g><g pointer-events="auto"><g opacity="1"><g id="d27b0b61-fbb9-4181-9122-50d8878466f9"><g><g><polygon points="908 720, 953 675, 953 90, 908 45, 135 45, 135 1013, 180 1058, 394 1058, 416 1035, 765 1035, 810 990, 810 765, 855 720" stroke="#9c27b0" stroke-width="8" fill="none"></polygon></g><g><polygon points="135 45, 90 45, 90 360, 135 405" stroke="#9c27b0" stroke-width="8" fill="#9c27b0"></polygon><text font-family="Inconsolata" font-size="20pt" font-weight="bold" fill="#ffffff" transform="translate(122 88) rotate(270)" text-anchor="end">vpc</text><g transform="translate(96 51) "><svg width="34" height="32" style="fill: rgb(255, 255, 255);"><svg xmlns="http://www.w3.org/2000/svg" width="34" height="32" viewBox="0 0 34 32"><path d="M34.286 20.571a6.858 6.858 0 0 1-6.857 6.857H8c-4.411 0-8-3.589-8-8a7.993 7.993 0 0 1 4.607-7.232c-.018-.25-.036-.518-.036-.768a9.137 9.137 0 0 1 9.143-9.143c3.821 0 7.089 2.339 8.464 5.679a4.439 4.439 0 0 1 2.964-1.107 4.58 4.58 0 0 1 4.571 4.571 4.49 4.49 0 0 1-.732 2.464c3.036.714 5.304 3.429 5.304 6.679z"></path></svg></svg></g></g></g></g></g></g><g></g><g pointer-events="auto"><g opacity="1"><g id="fc9dcee9-98d1-4d07-a51e-3a7640a624b5"><svg x="315" y="450" overflow="visible"><polygon points="0 0, 458 0, 458 90, 0 90" fill="#f5b720"></polygon><polygon points="0 0, 458 0, 458 90, 0 90" fill="none" stroke-width="20" stroke="#f5b720" opacity="1"></polygon><g cursor="nwse-resize"><polygon points="0 0, -27 0, -27 -45, -72 45, -27 135, -27 90, 0 90" fill="#f5b720"></polygon><polygon points="458 0, 485 0, 485 -45, 530 45, 485 135, 485 90, 458 90" fill="#f5b720"></polygon></g></svg></g></g></g><g pointer-events="none"></g><g pointer-events="auto"><g><g><g cursor="cell"><line x1="360" y1="450" x2="360" y2="383" stroke="red" stroke-width="8" opacity="0"></line><line x1="360" y1="450" x2="360" y2="383" stroke="#000000" stroke-width="2" stroke-linecap="none"></line></g><g cursor="cell"><line x1="383" y1="360" x2="360" y2="383" stroke="red" stroke-width="8" opacity="0"></line><line x1="383" y1="360" x2="360" y2="383" stroke="#000000" stroke-width="2" stroke-linecap="round"></line></g><g cursor="cell"><line x1="544" y1="450" x2="544" y2="360" stroke="red" stroke-width="8" opacity="0"></line><line x1="544" y1="450" x2="544" y2="360" stroke="#000000" stroke-width="2" stroke-linecap="none"></line></g><g cursor="cell"><line x1="728" y1="450" x2="728" y2="383" stroke="red" stroke-width="8" opacity="0"></line><line x1="728" y1="450" x2="728" y2="383" stroke="#000000" stroke-width="2" stroke-linecap="none"></line></g><g cursor="cell"><line x1="706" y1="360" x2="728" y2="383" stroke="red" stroke-width="8" opacity="0"></line><line x1="706" y1="360" x2="728" y2="383" stroke="#000000" stroke-width="2" stroke-linecap="round"></line></g><g cursor="cell"><line x1="383" y1="360" x2="706" y2="360" stroke="red" stroke-width="8" opacity="0"></line><line x1="383" y1="360" x2="706" y2="360" stroke="#000000" stroke-width="2" stroke-linecap="round"></line></g><g cursor="cell"><line x1="540" y1="360" x2="540" y2="329" stroke="red" stroke-width="8" opacity="0"></line><line x1="540" y1="360" x2="540" y2="329" stroke="#000000" stroke-width="2" stroke-linecap="round"></line><polygon points="540 315, 529 339, 540 333, 551 339, 540 315" stroke-linejoin="round" fill="#000000" stroke="#000000" stroke-width="1"></polygon></g></g></g><g><g><g cursor="cell"><line x1="360" y1="608" x2="360" y2="554" stroke="red" stroke-width="8" opacity="0"></line><line x1="360" y1="608" x2="360" y2="554" stroke="#000000" stroke-width="2" stroke-linecap="none"></line><polygon points="360 540, 349 564, 360 558, 371 564, 360 540" stroke-linejoin="round" fill="#000000" stroke="#000000" stroke-width="1"></polygon></g><g cursor="cell"><line x1="383" y1="630" x2="360" y2="608" stroke="red" stroke-width="8" opacity="0"></line><line x1="383" y1="630" x2="360" y2="608" stroke="#000000" stroke-width="2" stroke-linecap="round"></line></g><g cursor="cell"><line x1="544" y1="630" x2="544" y2="554" stroke="red" stroke-width="8" opacity="0"></line><line x1="544" y1="630" x2="544" y2="554" stroke="#000000" stroke-width="2" stroke-linecap="none"></line><polygon points="544 540, 533 564, 544 558, 555 564, 544 540" stroke-linejoin="round" fill="#000000" stroke="#000000" stroke-width="1"></polygon></g><g cursor="cell"><line x1="728" y1="608" x2="728" y2="554" stroke="red" stroke-width="8" opacity="0"></line><line x1="728" y1="608" x2="728" y2="554" stroke="#000000" stroke-width="2" stroke-linecap="none"></line><polygon points="728 540, 717 564, 728 558, 740 564, 728 540" stroke-linejoin="round" fill="#000000" stroke="#000000" stroke-width="1"></polygon></g><g cursor="cell"><line x1="706" y1="630" x2="728" y2="608" stroke="red" stroke-width="8" opacity="0"></line><line x1="706" y1="630" x2="728" y2="608" stroke="#000000" stroke-width="2" stroke-linecap="round"></line></g><g cursor="cell"><line x1="383" y1="630" x2="706" y2="630" stroke="red" stroke-width="8" opacity="0"></line><line x1="383" y1="630" x2="706" y2="630" stroke="#000000" stroke-width="2" stroke-linecap="round"></line></g><g cursor="cell"><line x1="585" y1="765" x2="585" y2="630" stroke="red" stroke-width="8" opacity="0"></line><line x1="585" y1="765" x2="585" y2="630" stroke="#000000" stroke-width="2" stroke-linecap="round"></line></g></g></g><g><g cursor="cell"><line x1="900" y1="1215" x2="824" y2="1215" stroke="red" stroke-width="8" opacity="0"></line><line x1="900" y1="1215" x2="824" y2="1215" stroke="#000000" stroke-width="2" stroke-linecap="round"></line><polygon points="810 1215, 834 1226, 828 1215, 834 1204, 810 1215" stroke-linejoin="round" fill="#000000" stroke="#000000" stroke-width="1"></polygon></g></g><g><g cursor="cell"><line x1="405" y1="1170" x2="578" y2="867" stroke="red" stroke-width="8" opacity="0"></line><line x1="405" y1="1170" x2="578" y2="867" stroke="#000000" stroke-width="2" stroke-linecap="round"></line><polygon points="585 855, 563 871, 576 870, 583 882, 585 855" stroke-linejoin="round" fill="#000000" stroke="#000000" stroke-width="1"></polygon></g></g><g><g cursor="cell"><line x1="720" y1="1215" x2="644" y2="1215" stroke="red" stroke-width="8" opacity="0"></line><line x1="720" y1="1215" x2="644" y2="1215" stroke="#000000" stroke-width="2" stroke-linecap="round"></line><polygon points="630 1215, 654 1226, 648 1215, 654 1204, 630 1215" stroke-linejoin="round" fill="#000000" stroke="#000000" stroke-width="1"></polygon></g></g><g><g cursor="cell"><line x1="540" y1="1215" x2="464" y2="1215" stroke="red" stroke-width="8" opacity="0"></line><line x1="540" y1="1215" x2="464" y2="1215" stroke="#000000" stroke-width="2" stroke-linecap="round"></line><polygon points="450 1215, 474 1226, 468 1215, 474 1204, 450 1215" stroke-linejoin="round" fill="#000000" stroke="#000000" stroke-width="1"></polygon></g></g></g><g pointer-events="auto"><g opacity="1"><g id="ae7ad86e-95f3-4da7-a9db-41bcbfd7c9f8" transform="translate(0 0)"><svg x="495" y="225" height="90" id="svg25" width="90" version="1.1"><defs id="defs4"></defs><g id="Reference" fill-opacity="1" transform="scale(1.2)"><path id="Blue_Light_BG" d="M0 0h75v75H0z" fill="#3b48cc" data-name="Blue Light BG"></path><g id="Product_Icon-2" fill="#ffffff" data-name="Product Icon-2"><path class="cls-2" id="path9" d="M48.45 28.23c0-2.9-5.69-4.24-11-4.24s-11 1.34-11 4.24a1.54 1.54 0 0 0 .05.43v18.05c-.05 3 5.65 4.28 11 4.28s11-1.32 11-4.22V28.23zM37.47 26c5.83 0 9 1.59 9 2.24 0 .65-3.15 2.24-9 2.24s-9-1.58-9-2.24c0-.66 3.17-2.24 9-2.24zm9 20.78c0 .64-3.16 2.22-9 2.22s-9-1.58-9-2.22v-3.16c2.11 1.15 5.65 1.7 9 1.7 3.35 0 6.86-.54 9-1.67zm0-5.69c0 .64-3.15 2.24-9 2.24s-9-1.6-9-2.24v-3.82c2.11 1.14 5.65 1.69 9 1.69 3.35 0 6.86-.54 9-1.67zm0-6.37c0 .65-3.15 2.25-9 2.25s-9-1.6-9-2.25v-3.9c2.13 1.13 5.63 1.65 9 1.65s6.91-.54 9-1.69z" fill="#ffffff" fill-opacity="1"></path><path class="cls-2" id="path11" d="M15.91 60.51h6.59v2h-9a1 1 0 0 1-1-1v-9h2v6.57l7.5-7.49L23.4 53z" fill="#ffffff" fill-opacity="1"></path><path class="cls-2" id="path13" d="M62.5 52.51v9a1 1 0 0 1-1 1h-9v-2h6.59L51.7 53.1l1.41-1.4 7.39 7.38v-6.57z" fill="#ffffff" fill-opacity="1"></path><path class="cls-2" id="path15" d="M62.5 13.51v9h-2v-6.6l-7.39 7.39-1.41-1.41 7.38-7.38H52.5v-2h9a1 1 0 0 1 1 1z" fill="#ffffff" fill-opacity="1"></path><path class="cls-2" id="path17" d="M23.4 22L22 23.4l-7.5-7.49v6.58h-2v-9a1 1 0 0 1 1-1h9v2h-6.59z" fill="#ffffff" fill-opacity="1"></path><path class="cls-2" id="path19" d="M22.16 46.46c-6.11-2.2-9.61-5.56-9.61-9.21 0-3.65 3.5-7 9.61-9.21l.68 1.88c-5.19 1.87-8.29 4.61-8.29 7.33 0 2.72 3.1 5.46 8.29 7.33z" fill="#ffffff" fill-opacity="1"></path><path class="cls-2" id="path21" d="M52.28 46.68l-.64-1.9c5.55-1.87 8.86-4.69 8.86-7.53s-3.31-5.66-8.86-7.54l.64-1.89C58.77 30 62.5 33.46 62.5 37.25s-3.73 7.23-10.22 9.43z" fill="#ffffff" fill-opacity="1"></path></g></g></svg></g></g><g opacity="1"><g id="b93a5841-bb2b-430f-9c7e-aeefbf7d49a3" transform="translate(0 0)"><svg x="315" y="450" height="90" id="svg51" width="90" version="1.1"><defs id="defs4"></defs><g id="Working" transform="translate(0 40)"><g id="g883" transform="matrix(1.83333 0 0 1.83333 -.833 -40.833)"><path class="cls-1" id="path8" d="M44.31 44.31H5.69V5.69h38.62zm-36.62-2h34.62V7.69H7.69z" fill="#d86613" fill-opacity="1"></path><path class="cls-1" id="rect10" d="M11.21 1h2v5.69h-2z" fill="#d86613" fill-opacity="1"></path><path class="cls-1" id="rect12" d="M17.48 1h2v5.69h-2z" fill="#d86613" fill-opacity="1"></path><path class="cls-1" id="rect14" d="M23.76 1h2v5.69h-2z" fill="#d86613" fill-opacity="1"></path><path class="cls-1" id="rect16" d="M30.04 1h2v5.69h-2z" fill="#d86613" fill-opacity="1"></path><path class="cls-1" id="rect18" d="M36.32 1h2v5.69h-2z" fill="#d86613" fill-opacity="1"></path><path class="cls-1" id="rect20" d="M11.21 43.31h2V49h-2z" fill="#d86613" fill-opacity="1"></path><path class="cls-1" id="rect22" d="M17.48 43.31h2V49h-2z" fill="#d86613" fill-opacity="1"></path><path class="cls-1" id="rect24" d="M23.76 43.31h2V49h-2z" fill="#d86613" fill-opacity="1"></path><path class="cls-1" id="rect26" d="M30.04 43.31h2V49h-2z" fill="#d86613" fill-opacity="1"></path><path class="cls-1" id="rect28" d="M36.32 43.31h2V49h-2z" fill="#d86613" fill-opacity="1"></path><path class="cls-1" id="rect30" d="M43.31 11.45H49v2h-5.69z" fill="#d86613" fill-opacity="1"></path><path class="cls-1" id="rect32" d="M43.31 17.72H49v2h-5.69z" fill="#d86613" fill-opacity="1"></path><path class="cls-1" id="rect34" d="M43.31 24H49v2h-5.69z" fill="#d86613" fill-opacity="1"></path><path class="cls-1" id="rect36" d="M43.31 30.28H49v2h-5.69z" fill="#d86613" fill-opacity="1"></path><path class="cls-1" id="rect38" d="M43.31 36.55H49v2h-5.69z" fill="#d86613" fill-opacity="1"></path><path class="cls-1" id="rect40" d="M1 11.45h5.69v2H1z" fill="#d86613" fill-opacity="1"></path><path class="cls-1" id="rect42" d="M1 17.72h5.69v2H1z" fill="#d86613" fill-opacity="1"></path><path class="cls-1" id="rect44" d="M1 24h5.69v2H1z" fill="#d86613" fill-opacity="1"></path><path class="cls-1" id="rect46" d="M1 30.28h5.69v2H1z" fill="#d86613" fill-opacity="1"></path><path class="cls-1" id="rect48" d="M1 36.55h5.69v2H1z" fill="#d86613" fill-opacity="1"></path><path id="rect836" d="M7.69 7.69h34.62v34.62H7.69z" fill="#d86613" fill-opacity="1" opacity=".05" stroke="#d86613" stroke-opacity="0" stroke-width=".545"></path></g></g></svg><svg x="324" y="477" width="72" height="36" style="overflow: visible; cursor: default;"><text transform="" font-family="Open Sans" text-anchor="middle" x="50%" font-weight="bold" font-size="18pt" y="75%" fill="#d86613"><tspan>C5d</tspan></text></svg></g></g><g opacity="1"><g id="c5392a4a-f8bf-4ccd-bb19-b532274508c1" transform="translate(0 0)"><svg x="499" y="450" height="90" id="svg51" width="90" version="1.1"><defs id="defs4"></defs><g id="Working" transform="translate(0 40)"><g id="g883" transform="matrix(1.83333 0 0 1.83333 -.833 -40.833)"><path class="cls-1" id="path8" d="M44.31 44.31H5.69V5.69h38.62zm-36.62-2h34.62V7.69H7.69z" fill="#d86613" fill-opacity="1"></path><path class="cls-1" id="rect10" d="M11.21 1h2v5.69h-2z" fill="#d86613" fill-opacity="1"></path><path class="cls-1" id="rect12" d="M17.48 1h2v5.69h-2z" fill="#d86613" fill-opacity="1"></path><path class="cls-1" id="rect14" d="M23.76 1h2v5.69h-2z" fill="#d86613" fill-opacity="1"></path><path class="cls-1" id="rect16" d="M30.04 1h2v5.69h-2z" fill="#d86613" fill-opacity="1"></path><path class="cls-1" id="rect18" d="M36.32 1h2v5.69h-2z" fill="#d86613" fill-opacity="1"></path><path class="cls-1" id="rect20" d="M11.21 43.31h2V49h-2z" fill="#d86613" fill-opacity="1"></path><path class="cls-1" id="rect22" d="M17.48 43.31h2V49h-2z" fill="#d86613" fill-opacity="1"></path><path class="cls-1" id="rect24" d="M23.76 43.31h2V49h-2z" fill="#d86613" fill-opacity="1"></path><path class="cls-1" id="rect26" d="M30.04 43.31h2V49h-2z" fill="#d86613" fill-opacity="1"></path><path class="cls-1" id="rect28" d="M36.32 43.31h2V49h-2z" fill="#d86613" fill-opacity="1"></path><path class="cls-1" id="rect30" d="M43.31 11.45H49v2h-5.69z" fill="#d86613" fill-opacity="1"></path><path class="cls-1" id="rect32" d="M43.31 17.72H49v2h-5.69z" fill="#d86613" fill-opacity="1"></path><path class="cls-1" id="rect34" d="M43.31 24H49v2h-5.69z" fill="#d86613" fill-opacity="1"></path><path class="cls-1" id="rect36" d="M43.31 30.28H49v2h-5.69z" fill="#d86613" fill-opacity="1"></path><path class="cls-1" id="rect38" d="M43.31 36.55H49v2h-5.69z" fill="#d86613" fill-opacity="1"></path><path class="cls-1" id="rect40" d="M1 11.45h5.69v2H1z" fill="#d86613" fill-opacity="1"></path><path class="cls-1" id="rect42" d="M1 17.72h5.69v2H1z" fill="#d86613" fill-opacity="1"></path><path class="cls-1" id="rect44" d="M1 24h5.69v2H1z" fill="#d86613" fill-opacity="1"></path><path class="cls-1" id="rect46" d="M1 30.28h5.69v2H1z" fill="#d86613" fill-opacity="1"></path><path class="cls-1" id="rect48" d="M1 36.55h5.69v2H1z" fill="#d86613" fill-opacity="1"></path><path id="rect836" d="M7.69 7.69h34.62v34.62H7.69z" fill="#d86613" fill-opacity="1" opacity=".05" stroke="#d86613" stroke-opacity="0" stroke-width=".545"></path></g></g></svg><svg x="508" y="477" width="72" height="36" style="overflow: visible; cursor: default;"><text transform="" font-family="Open Sans" text-anchor="middle" x="50%" font-weight="bold" font-size="18pt" y="75%" fill="#d86613"><tspan>C5d</tspan></text></svg></g></g><g opacity="1"><g id="d4566d87-d6bc-4cfd-8ee6-647cdc14437d" transform="translate(0 0)"><svg x="683" y="450" height="90" id="svg51" width="90" version="1.1"><defs id="defs4"></defs><g id="Working" transform="translate(0 40)"><g id="g883" transform="matrix(1.83333 0 0 1.83333 -.833 -40.833)"><path class="cls-1" id="path8" d="M44.31 44.31H5.69V5.69h38.62zm-36.62-2h34.62V7.69H7.69z" fill="#d86613" fill-opacity="1"></path><path class="cls-1" id="rect10" d="M11.21 1h2v5.69h-2z" fill="#d86613" fill-opacity="1"></path><path class="cls-1" id="rect12" d="M17.48 1h2v5.69h-2z" fill="#d86613" fill-opacity="1"></path><path class="cls-1" id="rect14" d="M23.76 1h2v5.69h-2z" fill="#d86613" fill-opacity="1"></path><path class="cls-1" id="rect16" d="M30.04 1h2v5.69h-2z" fill="#d86613" fill-opacity="1"></path><path class="cls-1" id="rect18" d="M36.32 1h2v5.69h-2z" fill="#d86613" fill-opacity="1"></path><path class="cls-1" id="rect20" d="M11.21 43.31h2V49h-2z" fill="#d86613" fill-opacity="1"></path><path class="cls-1" id="rect22" d="M17.48 43.31h2V49h-2z" fill="#d86613" fill-opacity="1"></path><path class="cls-1" id="rect24" d="M23.76 43.31h2V49h-2z" fill="#d86613" fill-opacity="1"></path><path class="cls-1" id="rect26" d="M30.04 43.31h2V49h-2z" fill="#d86613" fill-opacity="1"></path><path class="cls-1" id="rect28" d="M36.32 43.31h2V49h-2z" fill="#d86613" fill-opacity="1"></path><path class="cls-1" id="rect30" d="M43.31 11.45H49v2h-5.69z" fill="#d86613" fill-opacity="1"></path><path class="cls-1" id="rect32" d="M43.31 17.72H49v2h-5.69z" fill="#d86613" fill-opacity="1"></path><path class="cls-1" id="rect34" d="M43.31 24H49v2h-5.69z" fill="#d86613" fill-opacity="1"></path><path class="cls-1" id="rect36" d="M43.31 30.28H49v2h-5.69z" fill="#d86613" fill-opacity="1"></path><path class="cls-1" id="rect38" d="M43.31 36.55H49v2h-5.69z" fill="#d86613" fill-opacity="1"></path><path class="cls-1" id="rect40" d="M1 11.45h5.69v2H1z" fill="#d86613" fill-opacity="1"></path><path class="cls-1" id="rect42" d="M1 17.72h5.69v2H1z" fill="#d86613" fill-opacity="1"></path><path class="cls-1" id="rect44" d="M1 24h5.69v2H1z" fill="#d86613" fill-opacity="1"></path><path class="cls-1" id="rect46" d="M1 30.28h5.69v2H1z" fill="#d86613" fill-opacity="1"></path><path class="cls-1" id="rect48" d="M1 36.55h5.69v2H1z" fill="#d86613" fill-opacity="1"></path><path id="rect836" d="M7.69 7.69h34.62v34.62H7.69z" fill="#d86613" fill-opacity="1" opacity=".05" stroke="#d86613" stroke-opacity="0" stroke-width=".545"></path></g></g></svg><svg x="692" y="477" width="72" height="36" style="overflow: visible; cursor: default;"><text transform="" font-family="Open Sans" text-anchor="middle" x="50%" font-weight="bold" font-size="18pt" y="75%" fill="#d86613"><tspan>C5d</tspan></text></svg></g></g><g opacity="1"><g id="58b6f8af-eaa6-4dab-9099-f19a8e5c359e" transform="translate(0 0)"><svg x="540" y="765" height="90" width="90"><path d="M0 0h90v90H0z" fill="#693cc5" data-name="Orange Light BG"></path><path d="M59.448 46.2a7.464 7.464 0 1 0 0-2.4h-8.952a16.932 16.932 0 0 0-1.68-6.36l10.8-9.132a7.464 7.464 0 1 0-2.832-5.844 7.296 7.296 0 0 0 1.2 4.08l-10.44 8.796a17.4 17.4 0 1 0 0 19.32l10.44 8.796a7.296 7.296 0 0 0-1.2 4.08 7.452 7.452 0 1 0 2.832-5.844l-10.8-9.132a16.932 16.932 0 0 0 1.68-6.36zm7.344-6.264A5.064 5.064 0 1 1 61.74 45a5.064 5.064 0 0 1 5.052-5.064zM64.296 17.4a5.064 5.064 0 1 1-5.064 5.064 5.064 5.064 0 0 1 5.064-5.064zm0 45.084a5.064 5.064 0 1 1-5.064 5.052 5.064 5.064 0 0 1 5.064-5.052zM33.144 60a15 15 0 1 1 15-15 15.024 15.024 0 0 1-15 15z" fill="#ffffff" data-name="Product Icon"></path></svg></g></g><g opacity="1"><g id="e4fb0b76-fd58-41d4-a711-642218af4bf6" transform="translate(0 0)"><svg x="225" y="878" height="90" id="svg19" width="90" version="1.1"><defs id="defs4"></defs><g id="Working" fill="#693cc5" fill-opacity="1" transform="matrix(1.9149 0 0 1.9149 -2.872 -2.872)"><path class="cls-1" id="path8" d="M35.31 38.19H14.69a1 1 0 0 1-1-1V21.25a1 1 0 0 1 1-1h20.62a1 1 0 0 1 1 1v15.94a1 1 0 0 1-1 1zm-19.62-2h18.62V22.26H15.69z" fill="#693cc5" fill-opacity="1"></path><path class="cls-1" id="rect10" d="M24 29.27h2v5.04h-2z" fill="#693cc5" fill-opacity="1"></path><path class="cls-1" id="path12" d="M31.61 21.05h-2v-4.46a5 5 0 0 0-1.35-3.42 4.45 4.45 0 0 0-3.26-1.4 4.71 4.71 0 0 0-4.63 4.76v4.51h-2v-4.51A6.7 6.7 0 0 1 25 9.77a6.45 6.45 0 0 1 4.68 2 6.9 6.9 0 0 1 1.9 4.8z" fill="#693cc5" fill-opacity="1"></path><path class="cls-1" id="path14" d="M25 48.5A23.5 23.5 0 1 1 48.5 25 23.52 23.52 0 0 1 25 48.5zm0-45A21.5 21.5 0 1 0 46.5 25 21.52 21.52 0 0 0 25 3.5z" fill="#693cc5" fill-opacity="1"></path><circle id="path822" cx="25" cy="25" fill="#693cc5" fill-opacity="1" opacity=".05" r="23.171" stroke="none" stroke-opacity="1" stroke-width=".657"></circle><path class="cls-1" id="path16" d="M25 31.16a3.35 3.35 0 1 1 3.34-3.35A3.35 3.35 0 0 1 25 31.16zm0-4.69a1.35 1.35 0 1 0 1.34 1.34A1.34 1.34 0 0 0 25 26.47z" fill="#693cc5" fill-opacity="1"></path></g></svg></g></g><g opacity="1"><g id="4ad722df-7dbb-4b9c-b8e3-15768844a5f6" transform="translate(0 0)"><svg x="360" y="1170" height="90" width="90"><path d="M0 0h90v90H0z" fill="#3f8624" data-name="Green Light BG"></path><path d="M73.716 48.072c-.348-1.884-2.484-3.216-3.948-4.164-.468-.3-1.752-.78-1.86-1.2a2.832 2.832 0 0 1 .12-.888l1.2-8.628c.348-2.532.684-5.064 1.032-7.596.312-2.328-.804-3.888-2.7-5.196-3.864-2.676-8.904-3.756-13.452-4.5a67.02 67.02 0 0 0-17.256-.564 48 48 0 0 0-15.036 3.6c-2.568 1.2-5.928 3.072-5.508 6.348 1.2 9.744 2.616 19.464 3.924 29.196l1.8 13.356a4.956 4.956 0 0 0 2.952 3.996c3.72 2.016 8.328 2.592 12.48 2.976A61.8 61.8 0 0 0 54 74.076c3.456-.636 9.888-1.68 10.44-6 .684-5.352 1.44-10.704 2.16-16.044l.264-1.632c1.956.468 7.536 1.464 6.852-2.328zM43.26 17.4c7.2 0 15.444.816 21.9 4.368.996.552 3.312 1.788 2.616 3.252-.696 1.464-2.856 2.196-4.176 2.724a37.056 37.056 0 0 1-5.796 1.62 74.748 74.748 0 0 1-25.992.54 32.16 32.16 0 0 1-11.184-3.276c-.864-.492-2.292-1.38-1.896-2.556a3.6 3.6 0 0 1 1.416-1.512 25.008 25.008 0 0 1 8.64-3.492A60.42 60.42 0 0 1 43.26 17.4zm18.816 50.58c-.18 1.404-2.496 2.1-3.6 2.496a35.52 35.52 0 0 1-7.056 1.584 60.864 60.864 0 0 1-16.044 0 26.688 26.688 0 0 1-9.6-2.604 2.4 2.4 0 0 1-1.44-2.076c-1.2-9.516-2.568-19.032-3.852-28.548l-1.392-10.32a27.912 27.912 0 0 0 8.76 3.072 71.544 71.544 0 0 0 9.972 1.308A77.76 77.76 0 0 0 57.492 31.8a29.124 29.124 0 0 0 9.852-3.288L64.8 47.352a144.516 144.516 0 0 1-17.784-7.2 5.124 5.124 0 0 1-.732-.348c-.324-.24-.24-.12-.396-.492-.3-.684-.372-1.2-1.008-1.764a2.7 2.7 0 1 0-1.488 4.8 4.944 4.944 0 0 0 1.2-.36c.468-.144.468-.12.96.108a152.064 152.064 0 0 0 18 7.392c.924.3.912 0 .912.768a13.788 13.788 0 0 1-.228 1.74l-.768 5.724zM43.56 39.6c0 .324-.456.288-.576.084-.12-.204.576-.54.576-.084zM67.2 48l.36-2.652c1.2.684 3.24 1.716 3.78 3.084-1.176.48-3.036-.156-4.14-.432z" fill="#ffffff" data-name="Product Icon"></path></svg></g></g><g opacity="1"><g id="cf336ee1-d5b6-4ab6-be5d-98423e1c5513" transform="translate(0 0)"><svg x="540" y="1170" height="90" id="svg35" width="90" version="1.1"><defs id="defs4"></defs><g id="Reference" fill-opacity="1" transform="scale(1.2)"><path id="Purple_Light_BG" d="M0 0h75v75H0z" fill="#693cc5" data-name="Purple Light BG"></path><g id="Product_Icon" fill="#ffffff" data-name="Product Icon"><path class="cls-2" id="path9" d="M46.14 60.67l-1.78-.92a29.75 29.75 0 0 0 2.27-5.66l1.92.56a31.93 31.93 0 0 1-2.41 6.02zM48 42.36a31.87 31.87 0 0 0-5.27-15.68l1.67-1.09A33.81 33.81 0 0 1 50 42.24zM34.81 18.23a30.08 30.08 0 0 0-4.62-2.84l.91-1.78a31.94 31.94 0 0 1 4.92 3z" fill="#ffffff" fill-opacity="1"></path><path class="cls-2" id="path11" d="M43 44.9a29.91 29.91 0 0 0-11.17-7l.62-1.9a31.91 31.91 0 0 1 11.9 7.45z" fill="#ffffff" fill-opacity="1"></path><path class="cls-2" id="path13" d="M51.24 56.84c-.37-1-.79-1.92-1.25-2.85l1.79-.89a32.71 32.71 0 0 1 1.33 3z" fill="#ffffff" fill-opacity="1"></path><path class="cls-2" id="path15" d="M45.57 61.15l-.64-1.89a22.4 22.4 0 0 0 6.63-3.57l1.23 1.58a24.36 24.36 0 0 1-7.22 3.88z" fill="#ffffff" fill-opacity="1"></path><path class="cls-2" id="path17" d="M13.78 37l-.46-1.94a31.25 31.25 0 0 1 6.77-.89l.05 2a29.4 29.4 0 0 0-6.36.83z" fill="#ffffff" fill-opacity="1"></path><path class="cls-2" id="path19" d="M30.18 30.64l-1.68-1.09a28.67 28.67 0 0 1 5.37-6.4l1.32 1.51a26.64 26.64 0 0 0-5.01 5.98z" fill="#ffffff" fill-opacity="1"></path><path class="cls-2" id="path21" d="M45.05 18.78l-.68-1.88A29.77 29.77 0 0 1 49 15.58l.37 2a26.9 26.9 0 0 0-4.32 1.2z" fill="#ffffff" fill-opacity="1"></path><path class="cls-2" id="path23" d="M25.25 59a31.53 31.53 0 0 1-2.57-12 21.72 21.72 0 0 1 .62-4.72c.07-.35.15-.71.22-1.08l2 .39c-.07.38-.15.74-.22 1.1a20 20 0 0 0-.58 4.31 29.56 29.56 0 0 0 2.38 11.28z" fill="#ffffff" fill-opacity="1"></path><path class="cls-2" id="path25" d="M37.5 62.5a25 25 0 0 1-25-25c0-.51 0-1 .05-1.51a25 25 0 0 1 17.81-22.45 25 25 0 0 1 19.36 2.16 25 25 0 0 1 3.07 41.58A25.2 25.2 0 0 1 37.5 62.5zm0-48a22.56 22.56 0 0 0-6.57 1 23 23 0 0 0-16.38 20.63c0 .47-.05.92-.05 1.37a23 23 0 0 0 23 23 22.61 22.61 0 0 0 7.42-1.24 22.32 22.32 0 0 0 6.64-3.57A23 23 0 0 0 37.5 14.5z" fill="#ffffff" fill-opacity="1"></path><path class="cls-2" id="path27" d="M39.93 25.93a4.43 4.43 0 1 1 4.43-4.42 4.42 4.42 0 0 1-4.43 4.42zm0-6.85a2.43 2.43 0 1 0 2.43 2.43 2.43 2.43 0 0 0-2.43-2.43z" fill="#ffffff" fill-opacity="1"></path><path class="cls-2" id="path29" d="M26.29 39.88a4.43 4.43 0 1 1 4.43-4.43 4.44 4.44 0 0 1-4.43 4.43zm0-6.86a2.43 2.43 0 1 0 2.43 2.43A2.43 2.43 0 0 0 26.29 33z" fill="#ffffff" fill-opacity="1"></path><path class="cls-2" id="path31" d="M48.28 52.7a4.43 4.43 0 1 1 4.42-4.42 4.42 4.42 0 0 1-4.42 4.42zm0-6.85a2.43 2.43 0 1 0 2.42 2.43 2.43 2.43 0 0 0-2.42-2.43z" fill="#ffffff" fill-opacity="1"></path></g></g></svg></g></g><g opacity="1"><g id="01434c33-6243-4fd2-a94a-bd139a25a937" transform="translate(0 0)"><svg x="720" y="1170" height="90" id="svg19" width="90" version="1.1"><defs id="defs4"></defs><g id="Reference" fill-opacity="1" transform="scale(1.2)"><path id="Purple_Light_BG" d="M0 0h75v75H0z" fill="#693cc5" data-name="Purple Light BG"></path><g id="Product_Icon" fill="#ffffff" data-name="Product Icon"><path class="cls-2" id="path9" d="M27.29 42.94a13 13 0 0 0 3.92.74 3.59 3.59 0 0 0 2.41-.68 2.56 2.56 0 0 0 .83-2 2.62 2.62 0 0 0-.78-2.12 4 4 0 0 0-2.56-.66 30.05 30.05 0 0 0-3.2.2V37l.39-6.17h7.53v1.67H30l-.27 4.19a11.13 11.13 0 0 1 2-.2 4.93 4.93 0 0 1 3.49 1.17 4.23 4.23 0 0 1 1.25 3.24 4.07 4.07 0 0 1-1.46 3.27 5.76 5.76 0 0 1-3.86 1.25 9.53 9.53 0 0 1-3.94-.83z" fill="#ffffff" fill-opacity="1"></path><path class="cls-2" id="path11" d="M43.63 36.94H44A4.62 4.62 0 0 1 47.28 38a3.83 3.83 0 0 1 1.2 3A4 4 0 0 1 47 44.21a6 6 0 0 1-3.91 1.21 9.51 9.51 0 0 1-3.83-.83v-1.65a12.4 12.4 0 0 0 3.83.74 3.69 3.69 0 0 0 2.42-.7 2.44 2.44 0 0 0 .84-2q0-2.49-3.15-2.49a18.11 18.11 0 0 0-2 .1v-1.36l4.33-4.73h-6.05v-1.69h8.4v1.63z" fill="#ffffff" fill-opacity="1"></path><path class="cls-2" id="path13" d="M37.5 56.5a1 1 0 0 1-.5-.14 33.17 33.17 0 0 0-10.48-4c-2.11-.38-9-2-9-7 0-2.26.87-3.76 2-5.66a15.66 15.66 0 0 0 2.71-8.21 14.58 14.58 0 0 0-2.38-7.93 1 1 0 0 1 .07-1.17l1.6-2a1 1 0 0 1 1.27-.24A13.69 13.69 0 0 0 29.54 22a12.33 12.33 0 0 0 7.38-2.32 1 1 0 0 1 1.16 0A12.33 12.33 0 0 0 45.46 22a13.69 13.69 0 0 0 6.77-1.86 1 1 0 0 1 1.27.24l1.6 2a1 1 0 0 1 .07 1.17 14.56 14.56 0 0 0-2.38 7.93c0 3.55 1.44 6 2.7 8.21 1.11 1.9 2 3.4 2 5.66 0 5-6.88 6.65-9 7a33.17 33.17 0 0 0-10.48 4 1 1 0 0 1-.51.15zM21.9 23a16.44 16.44 0 0 1 2.31 8.38c0 4.09-1.65 6.93-3 9.21-1 1.77-1.7 2.94-1.7 4.66 0 3.56 6.11 4.84 7.34 5.06a34.88 34.88 0 0 1 10.63 4 34.88 34.88 0 0 1 10.63-4c1.23-.22 7.34-1.5 7.34-5.06 0-1.72-.68-2.89-1.7-4.66-1.33-2.28-3-5.12-3-9.21A16.44 16.44 0 0 1 53.1 23l-.63-.78a15.44 15.44 0 0 1-7 1.72 14.43 14.43 0 0 1-8-2.3 14.43 14.43 0 0 1-8 2.3 15.44 15.44 0 0 1-7-1.72z" fill="#ffffff" fill-opacity="1"></path><path class="cls-2" id="path15" d="M37.5 62.5a1 1 0 0 1-.63-.22 30 30 0 0 0-11.25-5c-8.22-1.48-13.13-6-13.13-12a15.29 15.29 0 0 1 2.65-8.19c1.09-1.87 2-3.49 2-5.68a10.77 10.77 0 0 0-3.64-7.63 1 1 0 0 1-.14-1.48c0-.07 5.87-7.11 7.2-8.94a1 1 0 0 1 .78-.42 1 1 0 0 1 .82.32 10.34 10.34 0 0 0 7.35 3.66c2.79 0 5-1.24 7.13-4a1.08 1.08 0 0 1 1.66 0c2.14 2.8 4.34 4 7.13 4a10.34 10.34 0 0 0 7.35-3.66 1 1 0 0 1 .82-.32 1 1 0 0 1 .78.42c1.33 1.83 7.15 8.87 7.2 8.94a1 1 0 0 1 .24.77 1.09 1.09 0 0 1-.38.71 10.77 10.77 0 0 0-3.64 7.63c0 2.19.94 3.81 2 5.68a15.29 15.29 0 0 1 2.65 8.19c0 6-4.91 10.52-13.13 12a29.71 29.71 0 0 0-11.24 5 1 1 0 0 1-.58.22zM15.61 22.89a12.51 12.51 0 0 1 3.64 8.53c0 2.75-1.17 4.77-2.3 6.72-1.22 2.11-2.38 4.09-2.38 7.15 0 7.32 8.74 9.46 11.42 9.94a31.34 31.34 0 0 1 11.51 4.94A31.34 31.34 0 0 1 49 55.23c2.68-.48 11.42-2.62 11.42-9.94 0-3.06-1.16-5-2.38-7.15-1.13-2-2.3-4-2.3-6.72a12.51 12.51 0 0 1 3.64-8.53c-1.31-1.59-4.34-5.28-5.93-7.33a11.92 11.92 0 0 1-8 3.46 10.16 10.16 0 0 1-8-3.86 10.16 10.16 0 0 1-8 3.86 11.92 11.92 0 0 1-8-3.46c-1.45 2.05-4.53 5.74-5.84 7.33z" fill="#ffffff" fill-opacity="1"></path></g></g></svg></g></g><g opacity="1"><g id="9993d991-658b-4366-b531-e98a499fcbf9" transform="translate(0 0)"><svg x="900" y="1170" height="90" id="svg13" width="90" version="1.1"><defs id="defs4"></defs><g id="Working" transform="matrix(1.9149 0 0 1.9149 -2.872 -2.852)"><circle id="path819" cx="25.03" cy="13.644" fill="#232f3e" fill-opacity="1" opacity=".05" r="10.787" stroke="none" stroke-opacity="1" stroke-width=".522"></circle><path class="cls-1" id="path8-6" d="M47.5 48.44h-45a1 1 0 0 1-1-1v-3a22.73 22.73 0 0 1 17.36-22.1 1.06 1.06 0 0 1 .72.09 11.29 11.29 0 0 0 10.82 0 1 1 0 0 1 .71-.09A22.73 22.73 0 0 1 48.5 44.45v3a1 1 0 0 1-1 .99z" fill="#232f3e" fill-opacity="1" opacity=".05" stroke-width="1"></path><path class="cls-1" id="path8" d="M47.5 48.44h-45a1 1 0 0 1-1-1v-3a22.73 22.73 0 0 1 17.36-22.1 1.06 1.06 0 0 1 .72.09 11.29 11.29 0 0 0 10.82 0 1 1 0 0 1 .71-.09A22.73 22.73 0 0 1 48.5 44.45v3a1 1 0 0 1-1 .99zm-44-2h43v-2A20.71 20.71 0 0 0 31 24.39a13.51 13.51 0 0 1-6 1.43 13.21 13.21 0 0 1-6-1.43A20.72 20.72 0 0 0 3.5 44.45z" fill="#232f3e" fill-opacity="1"></path><path class="cls-1" id="path10" d="M25 25.75a12.18 12.18 0 0 1-5.9-1.5 12.13 12.13 0 1 1 18.06-10.58 12 12 0 0 1-6.32 10.58 12.38 12.38 0 0 1-5.84 1.5zm0-22.19a10.08 10.08 0 0 0-5 18.94 10.33 10.33 0 0 0 9.85 0A10.08 10.08 0 0 0 25 3.56z" fill="#232f3e" fill-opacity="1"></path></g></svg></g></g></g><g pointer-events="auto"></g><g pointer-events="auto"></g><g pointer-events="auto"><g opacity="1"><g id="2cb52d7d-42f2-43a2-9e73-ba350e8518fd"><svg x="551" y="855" overflow="visible"><text stroke="#ffffff" stroke-width="0" font-family="Open Sans" y="36.5" font-size="25pt" fill="#f5b720" font-weight="bold" transform="" xml:space="preserve"><tspan x="8" dy="0">ALB</tspan></text><text font-family="Open Sans" y="36.5" font-size="25pt" fill="#f5b720" font-weight="bold" transform="" xml:space="preserve"><tspan x="8" dy="0">ALB</tspan></text></svg></g></g><g opacity="1"><g id="51a9cc39-e8eb-44dd-81de-ab753e8a24c7"><svg x="409" y="553" overflow="visible"><text stroke="#ffffff" stroke-width="4" font-family="Open Sans" y="36.5" font-size="25pt" fill="#f5b720" font-weight="bold" transform="" xml:space="preserve"><tspan x="8" dy="0">Auto Scaling</tspan></text><text font-family="Open Sans" y="36.5" font-size="25pt" fill="#f5b720" font-weight="bold" transform="" xml:space="preserve"><tspan x="8" dy="0">Auto Scaling</tspan></text></svg></g></g><g opacity="1"><g id="c1109dc4-8a4a-4db1-86b2-c3c4447ad049"><svg x="585" y="248" overflow="visible"><text stroke="#ffffff" stroke-width="0" font-family="Open Sans" y="36.5" font-size="25pt" fill="#f5b720" font-weight="bold" transform="" xml:space="preserve"><tspan x="8" dy="0">RDS</tspan></text><text font-family="Open Sans" y="36.5" font-size="25pt" fill="#f5b720" font-weight="bold" transform="" xml:space="preserve"><tspan x="8" dy="0">RDS</tspan></text></svg></g></g><g opacity="1"><g id="4009905d-aeaa-42cd-b2ad-540886138332" transform="translate(0 0)"><svg x="608" y="1283" overflow="visible"><text stroke="#ffffff" stroke-width="4" font-family="Open Sans" y="36.5" font-size="25pt" fill="#f5b720" font-weight="bold" transform="" xml:space="preserve"><tspan x="8" dy="0">tasks.hotosm.org</tspan></text><text font-family="Open Sans" y="36.5" font-size="25pt" fill="#f5b720" font-weight="bold" transform="" xml:space="preserve"><tspan x="8" dy="0">tasks.hotosm.org</tspan></text></svg></g></g><g opacity="1"><g id="5194cd67-f76e-4566-97d0-cc7042a76263" transform="translate(0 0)"><svg x="495" y="1103" overflow="visible"><text stroke="#ffffff" stroke-width="4" font-family="Open Sans" y="36.5" font-size="25pt" fill="#f5b720" font-weight="bold" transform="" xml:space="preserve"><tspan x="8" dy="0">React App</tspan></text><text font-family="Open Sans" y="36.5" font-size="25pt" fill="#f5b720" font-weight="bold" transform="" xml:space="preserve"><tspan x="8" dy="0">React App</tspan></text></svg></g></g></g><g></g></g></svg>